SplineFontDB: 3.0
FontName: Kaypro84
FullName: Kaypro84
FamilyName: Kaypro84
Weight: Medium
Copyright: Created by Douglas Miller with genfont Kaypro2xFONT.rom
UComments: "2017-3-2: Created." 
Version: 001.000
ItalicAngle: 0
UnderlinePosition: -100
UnderlineWidth: 50
Ascent: 1229
Descent: 410
LayerCount: 2
Layer: 0 0 "Back"  1
Layer: 1 0 "Fore"  0
XUID: [1021 590 1488486075 919824]
FSType: 0
OS2Version: 0
OS2_WeightWidthSlopeOnly: 0
OS2_UseTypoMetrics: 1
CreationTime: 1488486075
ModificationTime: 1488486075
OS2TypoAscent: 0
OS2TypoAOffset: 1
OS2TypoDescent: 0
OS2TypoDOffset: 1
OS2TypoLinegap: 90
OS2WinAscent: 0
OS2WinAOffset: 1
OS2WinDescent: 0
OS2WinDOffset: 1
HheadAscent: 0
HheadAOffset: 1
HheadDescent: 0
HheadDOffset: 1
OS2Vendor: 'PfEd'
DEI: 91125
Encoding: Custom
UnicodeInterp: none
NameList: Adobe Glyph List
DisplaySize: -24
AntiAlias: 1
FitToEm: 1
WinInfo: 16 16 15

BeginChars: 57856 512

StartChar: uni0100
Encoding: 256 256 0
Width: 819
VWidth: 0
Flags: HW
LayerCount: 2
Fore
SplineSet
410 -409 m 1
 410 -307 l 1
 512 -307 l 1
 512 -409 l 1
 410 -409 l 1
410 -306 m 1
 410 -205 l 1
 512 -205 l 1
 512 -306 l 1
 410 -306 l 1
410 -204 m 1
 410 -102 l 1
 512 -102 l 1
 512 -204 l 1
 410 -204 l 1
410 -101 m 1
 410 -1 l 1
 512 -1 l 1
 512 -101 l 1
 410 -101 l 1
410 0 m 1
 410 101 l 1
 512 101 l 1
 512 0 l 1
 410 0 l 1
410 102 m 1
 410 204 l 1
 512 204 l 1
 512 102 l 1
 410 102 l 1
410 205 m 1
 410 306 l 1
 512 306 l 1
 512 205 l 1
 410 205 l 1
410 307 m 1
 410 409 l 1
 512 409 l 1
 512 307 l 1
 410 307 l 1
410 410 m 1
 410 511 l 1
 512 511 l 1
 512 410 l 1
 410 410 l 1
410 512 m 1
 410 613 l 1
 512 613 l 1
 512 512 l 1
 410 512 l 1
410 614 m 1
 410 716 l 1
 512 716 l 1
 512 614 l 1
 410 614 l 1
410 717 m 1
 410 818 l 1
 512 818 l 1
 512 717 l 1
 410 717 l 1
410 819 m 1
 410 921 l 1
 512 921 l 1
 512 819 l 1
 410 819 l 1
410 922 m 1
 410 1023 l 1
 512 1023 l 1
 512 922 l 1
 410 922 l 1
410 1024 m 1
 410 1125 l 1
 512 1125 l 1
 512 1024 l 1
 410 1024 l 1
410 1126 m 1
 410 1228 l 1
 512 1228 l 1
 512 1126 l 1
 410 1126 l 1
EndSplineSet
EndChar

StartChar: uni0101
Encoding: 257 257 1
Width: 819
VWidth: 0
Flags: HW
LayerCount: 2
Fore
SplineSet
410 -409 m 1
 410 -307 l 1
 512 -307 l 1
 512 -409 l 1
 410 -409 l 1
410 -306 m 1
 410 -205 l 1
 512 -205 l 1
 512 -306 l 1
 410 -306 l 1
410 -204 m 1
 410 -102 l 1
 512 -102 l 1
 512 -204 l 1
 410 -204 l 1
410 -101 m 1
 410 -1 l 1
 512 -1 l 1
 512 -101 l 1
 410 -101 l 1
410 0 m 1
 410 101 l 1
 512 101 l 1
 512 0 l 1
 410 0 l 1
410 102 m 1
 410 204 l 1
 512 204 l 1
 512 102 l 1
 410 102 l 1
410 205 m 1
 410 306 l 1
 512 306 l 1
 512 205 l 1
 410 205 l 1
410 307 m 1
 410 409 l 1
 512 409 l 1
 512 307 l 1
 410 307 l 1
0 410 m 1
 0 511 l 1
 819 511 l 1
 819 410 l 1
 0 410 l 1
410 512 m 1
 410 613 l 1
 512 613 l 1
 512 512 l 1
 410 512 l 1
410 614 m 1
 410 716 l 1
 512 716 l 1
 512 614 l 1
 410 614 l 1
410 717 m 1
 410 818 l 1
 512 818 l 1
 512 717 l 1
 410 717 l 1
410 819 m 1
 410 921 l 1
 512 921 l 1
 512 819 l 1
 410 819 l 1
410 922 m 1
 410 1023 l 1
 512 1023 l 1
 512 922 l 1
 410 922 l 1
410 1024 m 1
 410 1125 l 1
 512 1125 l 1
 512 1024 l 1
 410 1024 l 1
410 1126 m 1
 410 1228 l 1
 512 1228 l 1
 512 1126 l 1
 410 1126 l 1
EndSplineSet
EndChar

StartChar: uni0102
Encoding: 258 258 2
Width: 819
VWidth: 0
Flags: HW
LayerCount: 2
Fore
SplineSet
410 -409 m 1
 410 -307 l 1
 512 -307 l 1
 512 -409 l 1
 410 -409 l 1
410 -306 m 1
 410 -205 l 1
 512 -205 l 1
 512 -306 l 1
 410 -306 l 1
410 -204 m 1
 410 -102 l 1
 512 -102 l 1
 512 -204 l 1
 410 -204 l 1
410 -101 m 1
 410 -1 l 1
 512 -1 l 1
 512 -101 l 1
 410 -101 l 1
410 0 m 1
 410 101 l 1
 512 101 l 1
 512 0 l 1
 410 0 l 1
410 102 m 1
 410 204 l 1
 512 204 l 1
 512 102 l 1
 410 102 l 1
410 205 m 1
 410 306 l 1
 512 306 l 1
 512 205 l 1
 410 205 l 1
410 307 m 1
 410 409 l 1
 512 409 l 1
 512 307 l 1
 410 307 l 1
0 410 m 1
 0 511 l 1
 819 511 l 1
 819 410 l 1
 0 410 l 1
410 512 m 1
 410 613 l 1
 512 613 l 1
 512 512 l 1
 410 512 l 1
410 614 m 1
 410 716 l 1
 512 716 l 1
 512 614 l 1
 410 614 l 1
410 717 m 1
 410 818 l 1
 512 818 l 1
 512 717 l 1
 410 717 l 1
410 819 m 1
 410 921 l 1
 512 921 l 1
 512 819 l 1
 410 819 l 1
410 922 m 1
 410 1023 l 1
 512 1023 l 1
 512 922 l 1
 410 922 l 1
410 1024 m 1
 410 1125 l 1
 512 1125 l 1
 512 1024 l 1
 410 1024 l 1
410 1126 m 1
 410 1228 l 1
 512 1228 l 1
 512 1126 l 1
 410 1126 l 1
EndSplineSet
EndChar

StartChar: uni0103
Encoding: 259 259 3
Width: 819
VWidth: 0
Flags: HW
LayerCount: 2
Fore
SplineSet
410 -409 m 1
 410 -307 l 1
 512 -307 l 1
 512 -409 l 1
 410 -409 l 1
410 -306 m 1
 410 -205 l 1
 512 -205 l 1
 512 -306 l 1
 410 -306 l 1
410 -204 m 1
 410 -102 l 1
 512 -102 l 1
 512 -204 l 1
 410 -204 l 1
410 -101 m 1
 410 -1 l 1
 512 -1 l 1
 512 -101 l 1
 410 -101 l 1
410 0 m 1
 410 101 l 1
 512 101 l 1
 512 0 l 1
 410 0 l 1
410 102 m 1
 410 204 l 1
 512 204 l 1
 512 102 l 1
 410 102 l 1
0 205 m 1
 0 306 l 1
 512 306 l 1
 512 205 l 1
 0 205 l 1
EndSplineSet
EndChar

StartChar: uni0104
Encoding: 260 260 4
Width: 819
VWidth: 0
Flags: HW
LayerCount: 2
Fore
SplineSet
0 512 m 1
 0 613 l 1
 512 613 l 1
 512 512 l 1
 0 512 l 1
410 614 m 1
 410 716 l 1
 512 716 l 1
 512 614 l 1
 410 614 l 1
410 717 m 1
 410 818 l 1
 512 818 l 1
 512 717 l 1
 410 717 l 1
410 819 m 1
 410 921 l 1
 512 921 l 1
 512 819 l 1
 410 819 l 1
410 922 m 1
 410 1023 l 1
 512 1023 l 1
 512 922 l 1
 410 922 l 1
410 1024 m 1
 410 1125 l 1
 512 1125 l 1
 512 1024 l 1
 410 1024 l 1
410 1126 m 1
 410 1228 l 1
 512 1228 l 1
 512 1126 l 1
 410 1126 l 1
EndSplineSet
EndChar

StartChar: uni0105
Encoding: 261 261 5
Width: 819
VWidth: 0
Flags: HW
LayerCount: 2
Fore
SplineSet
410 512 m 1
 410 613 l 1
 819 613 l 1
 819 512 l 1
 410 512 l 1
410 614 m 1
 410 716 l 1
 512 716 l 1
 512 614 l 1
 410 614 l 1
410 717 m 1
 410 818 l 1
 512 818 l 1
 512 717 l 1
 410 717 l 1
410 819 m 1
 410 921 l 1
 512 921 l 1
 512 819 l 1
 410 819 l 1
410 922 m 1
 410 1023 l 1
 512 1023 l 1
 512 922 l 1
 410 922 l 1
410 1024 m 1
 410 1125 l 1
 512 1125 l 1
 512 1024 l 1
 410 1024 l 1
410 1126 m 1
 410 1228 l 1
 512 1228 l 1
 512 1126 l 1
 410 1126 l 1
EndSplineSet
EndChar

StartChar: uni0106
Encoding: 262 262 6
Width: 819
VWidth: 0
Flags: HW
LayerCount: 2
Fore
SplineSet
410 -409 m 1
 410 -307 l 1
 512 -307 l 1
 512 -409 l 1
 410 -409 l 1
410 -306 m 1
 410 -205 l 1
 512 -205 l 1
 512 -306 l 1
 410 -306 l 1
410 -204 m 1
 410 -102 l 1
 512 -102 l 1
 512 -204 l 1
 410 -204 l 1
410 -101 m 1
 410 -1 l 1
 512 -1 l 1
 512 -101 l 1
 410 -101 l 1
410 0 m 1
 410 101 l 1
 512 101 l 1
 512 0 l 1
 410 0 l 1
410 102 m 1
 410 204 l 1
 512 204 l 1
 512 102 l 1
 410 102 l 1
410 205 m 1
 410 306 l 1
 819 306 l 1
 819 205 l 1
 410 205 l 1
EndSplineSet
EndChar

StartChar: uni0107
Encoding: 263 263 7
Width: 819
VWidth: 0
Flags: HW
LayerCount: 2
Fore
SplineSet
205 205 m 1
 205 306 l 1
 717 306 l 1
 717 205 l 1
 205 205 l 1
410 410 m 1
 410 511 l 1
 512 511 l 1
 512 410 l 1
 410 410 l 1
410 512 m 1
 410 613 l 1
 512 613 l 1
 512 512 l 1
 410 512 l 1
205 614 m 1
 205 716 l 1
 717 716 l 1
 717 614 l 1
 205 614 l 1
410 717 m 1
 410 818 l 1
 512 818 l 1
 512 717 l 1
 410 717 l 1
410 819 m 1
 410 921 l 1
 512 921 l 1
 512 819 l 1
 410 819 l 1
EndSplineSet
EndChar

StartChar: uni0108
Encoding: 264 264 8
Width: 819
VWidth: 0
Flags: HW
LayerCount: 2
Fore
SplineSet
410 205 m 1
 410 306 l 1
 512 306 l 1
 512 205 l 1
 410 205 l 1
512 307 m 1
 512 409 l 1
 614 409 l 1
 614 307 l 1
 512 307 l 1
205 410 m 1
 205 511 l 1
 717 511 l 1
 717 410 l 1
 205 410 l 1
512 512 m 1
 512 613 l 1
 614 613 l 1
 614 512 l 1
 512 512 l 1
410 614 m 1
 410 716 l 1
 512 716 l 1
 512 614 l 1
 410 614 l 1
EndSplineSet
EndChar

StartChar: uni0109
Encoding: 265 265 9
Width: 819
VWidth: 0
Flags: HW
LayerCount: 2
Fore
SplineSet
0 -409 m 1
 0 -307 l 1
 819 -307 l 1
 819 -409 l 1
 0 -409 l 1
0 -306 m 1
 0 -205 l 1
 819 -205 l 1
 819 -306 l 1
 0 -306 l 1
0 -204 m 1
 0 -102 l 1
 819 -102 l 1
 819 -204 l 1
 0 -204 l 1
0 -101 m 1
 0 -1 l 1
 819 -1 l 1
 819 -101 l 1
 0 -101 l 1
0 0 m 1
 0 101 l 1
 819 101 l 1
 819 0 l 1
 0 0 l 1
0 102 m 1
 0 204 l 1
 819 204 l 1
 819 102 l 1
 0 102 l 1
0 205 m 1
 0 306 l 1
 819 306 l 1
 819 205 l 1
 0 205 l 1
0 307 m 1
 0 409 l 1
 819 409 l 1
 819 307 l 1
 0 307 l 1
0 410 m 1
 0 511 l 1
 819 511 l 1
 819 410 l 1
 0 410 l 1
0 512 m 1
 0 613 l 1
 819 613 l 1
 819 512 l 1
 0 512 l 1
0 614 m 1
 0 716 l 1
 819 716 l 1
 819 614 l 1
 0 614 l 1
0 717 m 1
 0 818 l 1
 819 818 l 1
 819 717 l 1
 0 717 l 1
0 819 m 1
 0 921 l 1
 819 921 l 1
 819 819 l 1
 0 819 l 1
0 922 m 1
 0 1023 l 1
 819 1023 l 1
 819 922 l 1
 0 922 l 1
0 1024 m 1
 0 1125 l 1
 819 1125 l 1
 819 1024 l 1
 0 1024 l 1
0 1126 m 1
 0 1228 l 1
 819 1228 l 1
 819 1126 l 1
 0 1126 l 1
EndSplineSet
EndChar

StartChar: uni010A
Encoding: 266 266 10
Width: 819
VWidth: 0
Flags: HW
LayerCount: 2
Fore
SplineSet
410 102 m 1
 410 204 l 1
 512 204 l 1
 512 102 l 1
 410 102 l 1
205 410 m 1
 205 511 l 1
 717 511 l 1
 717 410 l 1
 205 410 l 1
410 717 m 1
 410 818 l 1
 512 818 l 1
 512 717 l 1
 410 717 l 1
EndSplineSet
EndChar

StartChar: uni010B
Encoding: 267 267 11
Width: 819
VWidth: 0
Flags: HW
LayerCount: 2
Fore
SplineSet
410 307 m 1
 410 409 l 1
 512 409 l 1
 512 307 l 1
 410 307 l 1
307 410 m 1
 307 511 l 1
 614 511 l 1
 614 410 l 1
 307 410 l 1
205 512 m 1
 205 613 l 1
 307 613 l 1
 307 512 l 1
 205 512 l 1
410 512 m 1
 410 613 l 1
 512 613 l 1
 512 512 l 1
 410 512 l 1
614 512 m 1
 614 613 l 1
 717 613 l 1
 717 512 l 1
 614 512 l 1
410 614 m 1
 410 716 l 1
 512 716 l 1
 512 614 l 1
 410 614 l 1
410 717 m 1
 410 818 l 1
 512 818 l 1
 512 717 l 1
 410 717 l 1
EndSplineSet
EndChar

StartChar: uni010C
Encoding: 268 268 12
Width: 819
VWidth: 0
Flags: HW
LayerCount: 2
Fore
SplineSet
512 -409 m 1
 512 -307 l 1
 819 -307 l 1
 819 -409 l 1
 512 -409 l 1
512 -306 m 1
 512 -205 l 1
 819 -205 l 1
 819 -306 l 1
 512 -306 l 1
512 -204 m 1
 512 -102 l 1
 819 -102 l 1
 819 -204 l 1
 512 -204 l 1
512 -101 m 1
 512 -1 l 1
 819 -1 l 1
 819 -101 l 1
 512 -101 l 1
512 0 m 1
 512 101 l 1
 819 101 l 1
 819 0 l 1
 512 0 l 1
512 102 m 1
 512 204 l 1
 819 204 l 1
 819 102 l 1
 512 102 l 1
512 205 m 1
 512 306 l 1
 819 306 l 1
 819 205 l 1
 512 205 l 1
EndSplineSet
EndChar

StartChar: uni010D
Encoding: 269 269 13
Width: 819
VWidth: 0
Flags: HW
LayerCount: 2
Fore
SplineSet
0 -409 m 1
 0 -307 l 1
 410 -307 l 1
 410 -409 l 1
 0 -409 l 1
0 -306 m 1
 0 -205 l 1
 410 -205 l 1
 410 -306 l 1
 0 -306 l 1
0 -204 m 1
 0 -102 l 1
 410 -102 l 1
 410 -204 l 1
 0 -204 l 1
0 -101 m 1
 0 -1 l 1
 410 -1 l 1
 410 -101 l 1
 0 -101 l 1
0 0 m 1
 0 101 l 1
 410 101 l 1
 410 0 l 1
 0 0 l 1
0 102 m 1
 0 204 l 1
 410 204 l 1
 410 102 l 1
 0 102 l 1
0 205 m 1
 0 306 l 1
 410 306 l 1
 410 205 l 1
 0 205 l 1
EndSplineSet
EndChar

StartChar: uni010E
Encoding: 270 270 14
Width: 819
VWidth: 0
Flags: HW
LayerCount: 2
Fore
SplineSet
0 512 m 1
 0 613 l 1
 410 613 l 1
 410 512 l 1
 0 512 l 1
0 614 m 1
 0 716 l 1
 410 716 l 1
 410 614 l 1
 0 614 l 1
0 717 m 1
 0 818 l 1
 410 818 l 1
 410 717 l 1
 0 717 l 1
0 819 m 1
 0 921 l 1
 410 921 l 1
 410 819 l 1
 0 819 l 1
0 922 m 1
 0 1023 l 1
 410 1023 l 1
 410 922 l 1
 0 922 l 1
0 1024 m 1
 0 1125 l 1
 410 1125 l 1
 410 1024 l 1
 0 1024 l 1
0 1126 m 1
 0 1228 l 1
 410 1228 l 1
 410 1126 l 1
 0 1126 l 1
EndSplineSet
EndChar

StartChar: uni010F
Encoding: 271 271 15
Width: 819
VWidth: 0
Flags: HW
LayerCount: 2
Fore
SplineSet
512 512 m 1
 512 613 l 1
 819 613 l 1
 819 512 l 1
 512 512 l 1
512 614 m 1
 512 716 l 1
 819 716 l 1
 819 614 l 1
 512 614 l 1
512 717 m 1
 512 818 l 1
 819 818 l 1
 819 717 l 1
 512 717 l 1
512 819 m 1
 512 921 l 1
 819 921 l 1
 819 819 l 1
 512 819 l 1
512 922 m 1
 512 1023 l 1
 819 1023 l 1
 819 922 l 1
 512 922 l 1
512 1024 m 1
 512 1125 l 1
 819 1125 l 1
 819 1024 l 1
 512 1024 l 1
512 1126 m 1
 512 1228 l 1
 819 1228 l 1
 819 1126 l 1
 512 1126 l 1
EndSplineSet
EndChar

StartChar: uni0110
Encoding: 272 272 16
Width: 819
VWidth: 0
Flags: HW
LayerCount: 2
Fore
SplineSet
0 410 m 1
 0 511 l 1
 819 511 l 1
 819 410 l 1
 0 410 l 1
0 512 m 1
 0 613 l 1
 819 613 l 1
 819 512 l 1
 0 512 l 1
0 614 m 1
 0 716 l 1
 819 716 l 1
 819 614 l 1
 0 614 l 1
0 717 m 1
 0 818 l 1
 819 818 l 1
 819 717 l 1
 0 717 l 1
0 819 m 1
 0 921 l 1
 819 921 l 1
 819 819 l 1
 0 819 l 1
0 922 m 1
 0 1023 l 1
 819 1023 l 1
 819 922 l 1
 0 922 l 1
0 1024 m 1
 0 1125 l 1
 819 1125 l 1
 819 1024 l 1
 0 1024 l 1
0 1126 m 1
 0 1228 l 1
 819 1228 l 1
 819 1126 l 1
 0 1126 l 1
EndSplineSet
EndChar

StartChar: uni0111
Encoding: 273 273 17
Width: 819
VWidth: 0
Flags: HW
LayerCount: 2
Fore
SplineSet
512 -409 m 1
 512 -307 l 1
 717 -307 l 1
 717 -409 l 1
 512 -409 l 1
512 -306 m 1
 512 -205 l 1
 717 -205 l 1
 717 -306 l 1
 512 -306 l 1
512 -204 m 1
 512 -102 l 1
 717 -102 l 1
 717 -204 l 1
 512 -204 l 1
512 -101 m 1
 512 -1 l 1
 717 -1 l 1
 717 -101 l 1
 512 -101 l 1
512 0 m 1
 512 101 l 1
 717 101 l 1
 717 0 l 1
 512 0 l 1
512 102 m 1
 512 204 l 1
 717 204 l 1
 717 102 l 1
 512 102 l 1
512 205 m 1
 512 306 l 1
 717 306 l 1
 717 205 l 1
 512 205 l 1
512 307 m 1
 512 409 l 1
 717 409 l 1
 717 307 l 1
 512 307 l 1
512 410 m 1
 512 511 l 1
 717 511 l 1
 717 410 l 1
 512 410 l 1
512 512 m 1
 512 613 l 1
 717 613 l 1
 717 512 l 1
 512 512 l 1
512 614 m 1
 512 716 l 1
 717 716 l 1
 717 614 l 1
 512 614 l 1
512 717 m 1
 512 818 l 1
 717 818 l 1
 717 717 l 1
 512 717 l 1
512 819 m 1
 512 921 l 1
 717 921 l 1
 717 819 l 1
 512 819 l 1
512 922 m 1
 512 1023 l 1
 717 1023 l 1
 717 922 l 1
 512 922 l 1
512 1024 m 1
 512 1125 l 1
 717 1125 l 1
 717 1024 l 1
 512 1024 l 1
512 1126 m 1
 512 1228 l 1
 717 1228 l 1
 717 1126 l 1
 512 1126 l 1
EndSplineSet
EndChar

StartChar: uni0112
Encoding: 274 274 18
Width: 819
VWidth: 0
Flags: HW
LayerCount: 2
Fore
SplineSet
0 -306 m 1
 0 -205 l 1
 102 -205 l 1
 102 -306 l 1
 0 -306 l 1
0 -204 m 1
 0 -102 l 1
 205 -102 l 1
 205 -204 l 1
 0 -204 l 1
0 -101 m 1
 0 -1 l 1
 205 -1 l 1
 205 -101 l 1
 0 -101 l 1
0 0 m 1
 0 101 l 1
 307 101 l 1
 307 0 l 1
 0 0 l 1
0 102 m 1
 0 204 l 1
 307 204 l 1
 307 102 l 1
 0 102 l 1
0 205 m 1
 0 306 l 1
 307 306 l 1
 307 205 l 1
 0 205 l 1
0 307 m 1
 0 409 l 1
 410 409 l 1
 410 307 l 1
 0 307 l 1
0 410 m 1
 0 511 l 1
 410 511 l 1
 410 410 l 1
 0 410 l 1
0 512 m 1
 0 613 l 1
 410 613 l 1
 410 512 l 1
 0 512 l 1
0 614 m 1
 0 716 l 1
 512 716 l 1
 512 614 l 1
 0 614 l 1
0 717 m 1
 0 818 l 1
 512 818 l 1
 512 717 l 1
 0 717 l 1
0 819 m 1
 0 921 l 1
 614 921 l 1
 614 819 l 1
 0 819 l 1
0 922 m 1
 0 1023 l 1
 614 1023 l 1
 614 922 l 1
 0 922 l 1
0 1024 m 1
 0 1125 l 1
 614 1125 l 1
 614 1024 l 1
 0 1024 l 1
0 1126 m 1
 0 1228 l 1
 717 1228 l 1
 717 1126 l 1
 0 1126 l 1
EndSplineSet
EndChar

StartChar: uni0113
Encoding: 275 275 19
Width: 819
VWidth: 0
Flags: HW
LayerCount: 2
Fore
SplineSet
410 -409 m 1
 410 -307 l 1
 512 -307 l 1
 512 -409 l 1
 410 -409 l 1
410 -306 m 1
 410 -205 l 1
 512 -205 l 1
 512 -306 l 1
 410 -306 l 1
410 -204 m 1
 410 -102 l 1
 512 -102 l 1
 512 -204 l 1
 410 -204 l 1
410 -101 m 1
 410 -1 l 1
 512 -1 l 1
 512 -101 l 1
 410 -101 l 1
410 0 m 1
 410 101 l 1
 512 101 l 1
 512 0 l 1
 410 0 l 1
410 102 m 1
 410 204 l 1
 512 204 l 1
 512 102 l 1
 410 102 l 1
410 205 m 1
 410 306 l 1
 512 306 l 1
 512 205 l 1
 410 205 l 1
0 307 m 1
 0 409 l 1
 819 409 l 1
 819 307 l 1
 0 307 l 1
EndSplineSet
EndChar

StartChar: uni0114
Encoding: 276 276 20
Width: 819
VWidth: 0
Flags: HW
LayerCount: 2
Fore
SplineSet
410 -409 m 1
 410 -307 l 1
 512 -307 l 1
 512 -409 l 1
 410 -409 l 1
410 -306 m 1
 410 -205 l 1
 512 -205 l 1
 512 -306 l 1
 410 -306 l 1
410 -204 m 1
 410 -102 l 1
 512 -102 l 1
 512 -204 l 1
 410 -204 l 1
410 -101 m 1
 410 -1 l 1
 512 -1 l 1
 512 -101 l 1
 410 -101 l 1
410 0 m 1
 410 101 l 1
 512 101 l 1
 512 0 l 1
 410 0 l 1
410 102 m 1
 410 204 l 1
 512 204 l 1
 512 102 l 1
 410 102 l 1
410 205 m 1
 410 306 l 1
 512 306 l 1
 512 205 l 1
 410 205 l 1
410 307 m 1
 410 409 l 1
 512 409 l 1
 512 307 l 1
 410 307 l 1
0 410 m 1
 0 511 l 1
 512 511 l 1
 512 410 l 1
 0 410 l 1
410 512 m 1
 410 613 l 1
 512 613 l 1
 512 512 l 1
 410 512 l 1
410 614 m 1
 410 716 l 1
 512 716 l 1
 512 614 l 1
 410 614 l 1
410 717 m 1
 410 818 l 1
 512 818 l 1
 512 717 l 1
 410 717 l 1
410 819 m 1
 410 921 l 1
 512 921 l 1
 512 819 l 1
 410 819 l 1
410 922 m 1
 410 1023 l 1
 512 1023 l 1
 512 922 l 1
 410 922 l 1
410 1024 m 1
 410 1125 l 1
 512 1125 l 1
 512 1024 l 1
 410 1024 l 1
410 1126 m 1
 410 1228 l 1
 512 1228 l 1
 512 1126 l 1
 410 1126 l 1
EndSplineSet
EndChar

StartChar: uni0115
Encoding: 277 277 21
Width: 819
VWidth: 0
Flags: HW
LayerCount: 2
Fore
SplineSet
0 410 m 1
 0 511 l 1
 819 511 l 1
 819 410 l 1
 0 410 l 1
410 512 m 1
 410 613 l 1
 512 613 l 1
 512 512 l 1
 410 512 l 1
410 614 m 1
 410 716 l 1
 512 716 l 1
 512 614 l 1
 410 614 l 1
410 717 m 1
 410 818 l 1
 512 818 l 1
 512 717 l 1
 410 717 l 1
410 819 m 1
 410 921 l 1
 512 921 l 1
 512 819 l 1
 410 819 l 1
410 922 m 1
 410 1023 l 1
 512 1023 l 1
 512 922 l 1
 410 922 l 1
410 1024 m 1
 410 1125 l 1
 512 1125 l 1
 512 1024 l 1
 410 1024 l 1
410 1126 m 1
 410 1228 l 1
 512 1228 l 1
 512 1126 l 1
 410 1126 l 1
EndSplineSet
EndChar

StartChar: uni0116
Encoding: 278 278 22
Width: 819
VWidth: 0
Flags: HW
LayerCount: 2
Fore
SplineSet
410 -409 m 1
 410 -307 l 1
 512 -307 l 1
 512 -409 l 1
 410 -409 l 1
410 -306 m 1
 410 -205 l 1
 512 -205 l 1
 512 -306 l 1
 410 -306 l 1
410 -204 m 1
 410 -102 l 1
 512 -102 l 1
 512 -204 l 1
 410 -204 l 1
410 -101 m 1
 410 -1 l 1
 512 -1 l 1
 512 -101 l 1
 410 -101 l 1
410 0 m 1
 410 101 l 1
 512 101 l 1
 512 0 l 1
 410 0 l 1
410 102 m 1
 410 204 l 1
 512 204 l 1
 512 102 l 1
 410 102 l 1
410 205 m 1
 410 306 l 1
 512 306 l 1
 512 205 l 1
 410 205 l 1
410 307 m 1
 410 409 l 1
 512 409 l 1
 512 307 l 1
 410 307 l 1
410 410 m 1
 410 511 l 1
 819 511 l 1
 819 410 l 1
 410 410 l 1
410 512 m 1
 410 613 l 1
 512 613 l 1
 512 512 l 1
 410 512 l 1
410 614 m 1
 410 716 l 1
 512 716 l 1
 512 614 l 1
 410 614 l 1
410 717 m 1
 410 818 l 1
 512 818 l 1
 512 717 l 1
 410 717 l 1
410 819 m 1
 410 921 l 1
 512 921 l 1
 512 819 l 1
 410 819 l 1
410 922 m 1
 410 1023 l 1
 512 1023 l 1
 512 922 l 1
 410 922 l 1
410 1024 m 1
 410 1125 l 1
 512 1125 l 1
 512 1024 l 1
 410 1024 l 1
410 1126 m 1
 410 1228 l 1
 512 1228 l 1
 512 1126 l 1
 410 1126 l 1
EndSplineSet
EndChar

StartChar: uni0117
Encoding: 279 279 23
Width: 819
VWidth: 0
Flags: HW
LayerCount: 2
Fore
SplineSet
0 -409 m 1
 0 -307 l 1
 102 -307 l 1
 102 -409 l 1
 0 -409 l 1
717 -409 m 1
 717 -307 l 1
 819 -307 l 1
 819 -409 l 1
 717 -409 l 1
102 -306 m 1
 102 -205 l 1
 205 -205 l 1
 205 -306 l 1
 102 -306 l 1
614 -306 m 1
 614 -205 l 1
 717 -205 l 1
 717 -306 l 1
 614 -306 l 1
102 -204 m 1
 102 -102 l 1
 205 -102 l 1
 205 -204 l 1
 102 -204 l 1
614 -204 m 1
 614 -102 l 1
 717 -102 l 1
 717 -204 l 1
 614 -204 l 1
205 -101 m 1
 205 -1 l 1
 307 -1 l 1
 307 -101 l 1
 205 -101 l 1
512 -101 m 1
 512 -1 l 1
 614 -1 l 1
 614 -101 l 1
 512 -101 l 1
205 0 m 1
 205 101 l 1
 307 101 l 1
 307 0 l 1
 205 0 l 1
512 0 m 1
 512 101 l 1
 614 101 l 1
 614 0 l 1
 512 0 l 1
205 102 m 1
 205 204 l 1
 307 204 l 1
 307 102 l 1
 205 102 l 1
512 102 m 1
 512 204 l 1
 614 204 l 1
 614 102 l 1
 512 102 l 1
307 205 m 1
 307 306 l 1
 512 306 l 1
 512 205 l 1
 307 205 l 1
307 307 m 1
 307 409 l 1
 512 409 l 1
 512 307 l 1
 307 307 l 1
307 410 m 1
 307 511 l 1
 512 511 l 1
 512 410 l 1
 307 410 l 1
205 512 m 1
 205 613 l 1
 307 613 l 1
 307 512 l 1
 205 512 l 1
512 512 m 1
 512 613 l 1
 614 613 l 1
 614 512 l 1
 512 512 l 1
205 614 m 1
 205 716 l 1
 307 716 l 1
 307 614 l 1
 205 614 l 1
512 614 m 1
 512 716 l 1
 614 716 l 1
 614 614 l 1
 512 614 l 1
205 717 m 1
 205 818 l 1
 307 818 l 1
 307 717 l 1
 205 717 l 1
512 717 m 1
 512 818 l 1
 614 818 l 1
 614 717 l 1
 512 717 l 1
102 819 m 1
 102 921 l 1
 205 921 l 1
 205 819 l 1
 102 819 l 1
614 819 m 1
 614 921 l 1
 717 921 l 1
 717 819 l 1
 614 819 l 1
102 922 m 1
 102 1023 l 1
 205 1023 l 1
 205 922 l 1
 102 922 l 1
614 922 m 1
 614 1023 l 1
 717 1023 l 1
 717 922 l 1
 614 922 l 1
102 1024 m 1
 102 1125 l 1
 205 1125 l 1
 205 1024 l 1
 102 1024 l 1
614 1024 m 1
 614 1125 l 1
 717 1125 l 1
 717 1024 l 1
 614 1024 l 1
0 1126 m 1
 0 1228 l 1
 102 1228 l 1
 102 1126 l 1
 0 1126 l 1
717 1126 m 1
 717 1228 l 1
 819 1228 l 1
 819 1126 l 1
 717 1126 l 1
EndSplineSet
EndChar

StartChar: uni0118
Encoding: 280 280 24
Width: 819
VWidth: 0
Flags: HW
LayerCount: 2
Fore
SplineSet
0 -409 m 1
 0 -307 l 1
 102 -307 l 1
 102 -409 l 1
 0 -409 l 1
0 -306 m 1
 0 -205 l 1
 102 -205 l 1
 102 -306 l 1
 0 -306 l 1
102 -204 m 1
 102 -102 l 1
 205 -102 l 1
 205 -204 l 1
 102 -204 l 1
102 -101 m 1
 102 -1 l 1
 205 -1 l 1
 205 -101 l 1
 102 -101 l 1
205 0 m 1
 205 101 l 1
 307 101 l 1
 307 0 l 1
 205 0 l 1
205 102 m 1
 205 204 l 1
 307 204 l 1
 307 102 l 1
 205 102 l 1
307 205 m 1
 307 306 l 1
 410 306 l 1
 410 205 l 1
 307 205 l 1
307 307 m 1
 307 409 l 1
 410 409 l 1
 410 307 l 1
 307 307 l 1
410 410 m 1
 410 511 l 1
 512 511 l 1
 512 410 l 1
 410 410 l 1
410 512 m 1
 410 613 l 1
 512 613 l 1
 512 512 l 1
 410 512 l 1
512 614 m 1
 512 716 l 1
 614 716 l 1
 614 614 l 1
 512 614 l 1
512 717 m 1
 512 818 l 1
 614 818 l 1
 614 717 l 1
 512 717 l 1
614 819 m 1
 614 921 l 1
 717 921 l 1
 717 819 l 1
 614 819 l 1
614 922 m 1
 614 1023 l 1
 717 1023 l 1
 717 922 l 1
 614 922 l 1
717 1024 m 1
 717 1125 l 1
 819 1125 l 1
 819 1024 l 1
 717 1024 l 1
717 1126 m 1
 717 1228 l 1
 819 1228 l 1
 819 1126 l 1
 717 1126 l 1
EndSplineSet
EndChar

StartChar: uni0119
Encoding: 281 281 25
Width: 819
VWidth: 0
Flags: HW
LayerCount: 2
Fore
SplineSet
717 -409 m 1
 717 -307 l 1
 819 -307 l 1
 819 -409 l 1
 717 -409 l 1
717 -306 m 1
 717 -205 l 1
 819 -205 l 1
 819 -306 l 1
 717 -306 l 1
614 -204 m 1
 614 -102 l 1
 717 -102 l 1
 717 -204 l 1
 614 -204 l 1
614 -101 m 1
 614 -1 l 1
 717 -1 l 1
 717 -101 l 1
 614 -101 l 1
512 0 m 1
 512 101 l 1
 614 101 l 1
 614 0 l 1
 512 0 l 1
512 102 m 1
 512 204 l 1
 614 204 l 1
 614 102 l 1
 512 102 l 1
410 205 m 1
 410 306 l 1
 512 306 l 1
 512 205 l 1
 410 205 l 1
410 307 m 1
 410 409 l 1
 512 409 l 1
 512 307 l 1
 410 307 l 1
307 410 m 1
 307 511 l 1
 410 511 l 1
 410 410 l 1
 307 410 l 1
307 512 m 1
 307 613 l 1
 410 613 l 1
 410 512 l 1
 307 512 l 1
205 614 m 1
 205 716 l 1
 307 716 l 1
 307 614 l 1
 205 614 l 1
205 717 m 1
 205 818 l 1
 307 818 l 1
 307 717 l 1
 205 717 l 1
102 819 m 1
 102 921 l 1
 205 921 l 1
 205 819 l 1
 102 819 l 1
102 922 m 1
 102 1023 l 1
 205 1023 l 1
 205 922 l 1
 102 922 l 1
0 1024 m 1
 0 1125 l 1
 102 1125 l 1
 102 1024 l 1
 0 1024 l 1
0 1126 m 1
 0 1228 l 1
 102 1228 l 1
 102 1126 l 1
 0 1126 l 1
EndSplineSet
EndChar

StartChar: uni011A
Encoding: 282 282 26
Width: 819
VWidth: 0
Flags: HW
LayerCount: 2
Fore
SplineSet
0 1024 m 1
 0 1125 l 1
 819 1125 l 1
 819 1024 l 1
 0 1024 l 1
EndSplineSet
EndChar

StartChar: uni011B
Encoding: 283 283 27
Width: 819
VWidth: 0
Flags: HW
LayerCount: 2
Fore
SplineSet
0 -306 m 1
 0 -205 l 1
 819 -205 l 1
 819 -306 l 1
 0 -306 l 1
EndSplineSet
EndChar

StartChar: uni011C
Encoding: 284 284 28
Width: 819
VWidth: 0
Flags: HW
LayerCount: 2
Fore
SplineSet
102 -409 m 1
 102 -307 l 1
 205 -307 l 1
 205 -409 l 1
 102 -409 l 1
102 -306 m 1
 102 -205 l 1
 205 -205 l 1
 205 -306 l 1
 102 -306 l 1
102 -204 m 1
 102 -102 l 1
 205 -102 l 1
 205 -204 l 1
 102 -204 l 1
102 -101 m 1
 102 -1 l 1
 205 -1 l 1
 205 -101 l 1
 102 -101 l 1
102 0 m 1
 102 101 l 1
 205 101 l 1
 205 0 l 1
 102 0 l 1
102 102 m 1
 102 204 l 1
 205 204 l 1
 205 102 l 1
 102 102 l 1
102 205 m 1
 102 306 l 1
 205 306 l 1
 205 205 l 1
 102 205 l 1
102 307 m 1
 102 409 l 1
 205 409 l 1
 205 307 l 1
 102 307 l 1
102 410 m 1
 102 511 l 1
 205 511 l 1
 205 410 l 1
 102 410 l 1
102 512 m 1
 102 613 l 1
 205 613 l 1
 205 512 l 1
 102 512 l 1
102 614 m 1
 102 716 l 1
 205 716 l 1
 205 614 l 1
 102 614 l 1
102 717 m 1
 102 818 l 1
 205 818 l 1
 205 717 l 1
 102 717 l 1
102 819 m 1
 102 921 l 1
 205 921 l 1
 205 819 l 1
 102 819 l 1
102 922 m 1
 102 1023 l 1
 205 1023 l 1
 205 922 l 1
 102 922 l 1
102 1024 m 1
 102 1125 l 1
 205 1125 l 1
 205 1024 l 1
 102 1024 l 1
102 1126 m 1
 102 1228 l 1
 205 1228 l 1
 205 1126 l 1
 102 1126 l 1
EndSplineSet
EndChar

StartChar: uni011D
Encoding: 285 285 29
Width: 819
VWidth: 0
Flags: HW
LayerCount: 2
Fore
SplineSet
614 -409 m 1
 614 -307 l 1
 717 -307 l 1
 717 -409 l 1
 614 -409 l 1
614 -306 m 1
 614 -205 l 1
 717 -205 l 1
 717 -306 l 1
 614 -306 l 1
614 -204 m 1
 614 -102 l 1
 717 -102 l 1
 717 -204 l 1
 614 -204 l 1
614 -101 m 1
 614 -1 l 1
 717 -1 l 1
 717 -101 l 1
 614 -101 l 1
614 0 m 1
 614 101 l 1
 717 101 l 1
 717 0 l 1
 614 0 l 1
614 102 m 1
 614 204 l 1
 717 204 l 1
 717 102 l 1
 614 102 l 1
614 205 m 1
 614 306 l 1
 717 306 l 1
 717 205 l 1
 614 205 l 1
614 307 m 1
 614 409 l 1
 717 409 l 1
 717 307 l 1
 614 307 l 1
614 410 m 1
 614 511 l 1
 717 511 l 1
 717 410 l 1
 614 410 l 1
614 512 m 1
 614 613 l 1
 717 613 l 1
 717 512 l 1
 614 512 l 1
614 614 m 1
 614 716 l 1
 717 716 l 1
 717 614 l 1
 614 614 l 1
614 717 m 1
 614 818 l 1
 717 818 l 1
 717 717 l 1
 614 717 l 1
614 819 m 1
 614 921 l 1
 717 921 l 1
 717 819 l 1
 614 819 l 1
614 922 m 1
 614 1023 l 1
 717 1023 l 1
 717 922 l 1
 614 922 l 1
614 1024 m 1
 614 1125 l 1
 717 1125 l 1
 717 1024 l 1
 614 1024 l 1
614 1126 m 1
 614 1228 l 1
 717 1228 l 1
 717 1126 l 1
 614 1126 l 1
EndSplineSet
EndChar

StartChar: uni011E
Encoding: 286 286 30
Width: 819
VWidth: 0
Flags: HW
LayerCount: 2
Fore
SplineSet
512 0 m 1
 512 101 l 1
 614 101 l 1
 614 0 l 1
 512 0 l 1
512 102 m 1
 512 204 l 1
 614 204 l 1
 614 102 l 1
 512 102 l 1
512 205 m 1
 512 306 l 1
 614 306 l 1
 614 205 l 1
 512 205 l 1
512 307 m 1
 512 409 l 1
 614 409 l 1
 614 307 l 1
 512 307 l 1
307 410 m 1
 307 511 l 1
 614 511 l 1
 614 410 l 1
 307 410 l 1
205 512 m 1
 205 613 l 1
 614 613 l 1
 614 512 l 1
 205 512 l 1
205 614 m 1
 205 716 l 1
 614 716 l 1
 614 614 l 1
 205 614 l 1
205 717 m 1
 205 818 l 1
 614 818 l 1
 614 717 l 1
 205 717 l 1
307 819 m 1
 307 921 l 1
 717 921 l 1
 717 819 l 1
 307 819 l 1
EndSplineSet
EndChar

StartChar: uni011F
Encoding: 287 287 31
Width: 819
VWidth: 0
Flags: HW
LayerCount: 2
Fore
SplineSet
717 -409 m 1
 717 -307 l 1
 819 -307 l 1
 819 -409 l 1
 717 -409 l 1
614 -306 m 1
 614 -205 l 1
 819 -205 l 1
 819 -306 l 1
 614 -306 l 1
614 -204 m 1
 614 -102 l 1
 819 -102 l 1
 819 -204 l 1
 614 -204 l 1
614 -101 m 1
 614 -1 l 1
 819 -1 l 1
 819 -101 l 1
 614 -101 l 1
512 0 m 1
 512 101 l 1
 819 101 l 1
 819 0 l 1
 512 0 l 1
512 102 m 1
 512 204 l 1
 819 204 l 1
 819 102 l 1
 512 102 l 1
512 205 m 1
 512 306 l 1
 819 306 l 1
 819 205 l 1
 512 205 l 1
410 307 m 1
 410 409 l 1
 819 409 l 1
 819 307 l 1
 410 307 l 1
410 410 m 1
 410 511 l 1
 819 511 l 1
 819 410 l 1
 410 410 l 1
410 512 m 1
 410 613 l 1
 819 613 l 1
 819 512 l 1
 410 512 l 1
307 614 m 1
 307 716 l 1
 819 716 l 1
 819 614 l 1
 307 614 l 1
307 717 m 1
 307 818 l 1
 819 818 l 1
 819 717 l 1
 307 717 l 1
307 819 m 1
 307 921 l 1
 819 921 l 1
 819 819 l 1
 307 819 l 1
205 922 m 1
 205 1023 l 1
 819 1023 l 1
 819 922 l 1
 205 922 l 1
205 1024 m 1
 205 1125 l 1
 819 1125 l 1
 819 1024 l 1
 205 1024 l 1
102 1126 m 1
 102 1228 l 1
 819 1228 l 1
 819 1126 l 1
 102 1126 l 1
EndSplineSet
EndChar

StartChar: uni0020
Encoding: 32 32 32
Width: 819
VWidth: 0
Flags: HW
LayerCount: 2
Fore
SplineSet
EndSplineSet
EndChar

StartChar: uni0021
Encoding: 33 33 33
Width: 819
VWidth: 0
Flags: HW
LayerCount: 2
Fore
SplineSet
410 0 m 1
 410 101 l 1
 512 101 l 1
 512 0 l 1
 410 0 l 1
410 307 m 1
 410 409 l 1
 512 409 l 1
 512 307 l 1
 410 307 l 1
410 410 m 1
 410 511 l 1
 512 511 l 1
 512 410 l 1
 410 410 l 1
410 512 m 1
 410 613 l 1
 512 613 l 1
 512 512 l 1
 410 512 l 1
410 614 m 1
 410 716 l 1
 512 716 l 1
 512 614 l 1
 410 614 l 1
410 717 m 1
 410 818 l 1
 512 818 l 1
 512 717 l 1
 410 717 l 1
410 819 m 1
 410 921 l 1
 512 921 l 1
 512 819 l 1
 410 819 l 1
410 922 m 1
 410 1023 l 1
 512 1023 l 1
 512 922 l 1
 410 922 l 1
410 1024 m 1
 410 1125 l 1
 512 1125 l 1
 512 1024 l 1
 410 1024 l 1
EndSplineSet
EndChar

StartChar: uni0022
Encoding: 34 34 34
Width: 819
VWidth: 0
Flags: HW
LayerCount: 2
Fore
SplineSet
205 819 m 1
 205 921 l 1
 307 921 l 1
 307 819 l 1
 205 819 l 1
512 819 m 1
 512 921 l 1
 614 921 l 1
 614 819 l 1
 512 819 l 1
205 922 m 1
 205 1023 l 1
 307 1023 l 1
 307 922 l 1
 205 922 l 1
512 922 m 1
 512 1023 l 1
 614 1023 l 1
 614 922 l 1
 512 922 l 1
205 1024 m 1
 205 1125 l 1
 307 1125 l 1
 307 1024 l 1
 205 1024 l 1
512 1024 m 1
 512 1125 l 1
 614 1125 l 1
 614 1024 l 1
 512 1024 l 1
EndSplineSet
EndChar

StartChar: uni0023
Encoding: 35 35 35
Width: 819
VWidth: 0
Flags: HW
LayerCount: 2
Fore
SplineSet
307 0 m 1
 307 101 l 1
 410 101 l 1
 410 0 l 1
 307 0 l 1
512 0 m 1
 512 101 l 1
 614 101 l 1
 614 0 l 1
 512 0 l 1
307 102 m 1
 307 204 l 1
 410 204 l 1
 410 102 l 1
 307 102 l 1
512 102 m 1
 512 204 l 1
 614 204 l 1
 614 102 l 1
 512 102 l 1
307 205 m 1
 307 306 l 1
 410 306 l 1
 410 205 l 1
 307 205 l 1
512 205 m 1
 512 306 l 1
 614 306 l 1
 614 205 l 1
 512 205 l 1
307 307 m 1
 307 409 l 1
 410 409 l 1
 410 307 l 1
 307 307 l 1
512 307 m 1
 512 409 l 1
 614 409 l 1
 614 307 l 1
 512 307 l 1
102 410 m 1
 102 511 l 1
 819 511 l 1
 819 410 l 1
 102 410 l 1
307 512 m 1
 307 613 l 1
 410 613 l 1
 410 512 l 1
 307 512 l 1
512 512 m 1
 512 613 l 1
 614 613 l 1
 614 512 l 1
 512 512 l 1
102 614 m 1
 102 716 l 1
 819 716 l 1
 819 614 l 1
 102 614 l 1
307 717 m 1
 307 818 l 1
 410 818 l 1
 410 717 l 1
 307 717 l 1
512 717 m 1
 512 818 l 1
 614 818 l 1
 614 717 l 1
 512 717 l 1
307 819 m 1
 307 921 l 1
 410 921 l 1
 410 819 l 1
 307 819 l 1
512 819 m 1
 512 921 l 1
 614 921 l 1
 614 819 l 1
 512 819 l 1
307 922 m 1
 307 1023 l 1
 410 1023 l 1
 410 922 l 1
 307 922 l 1
512 922 m 1
 512 1023 l 1
 614 1023 l 1
 614 922 l 1
 512 922 l 1
307 1024 m 1
 307 1125 l 1
 410 1125 l 1
 410 1024 l 1
 307 1024 l 1
512 1024 m 1
 512 1125 l 1
 614 1125 l 1
 614 1024 l 1
 512 1024 l 1
EndSplineSet
EndChar

StartChar: uni0024
Encoding: 36 36 36
Width: 819
VWidth: 0
Flags: HW
LayerCount: 2
Fore
SplineSet
410 0 m 1
 410 101 l 1
 512 101 l 1
 512 0 l 1
 410 0 l 1
102 102 m 1
 102 204 l 1
 717 204 l 1
 717 102 l 1
 102 102 l 1
410 205 m 1
 410 306 l 1
 512 306 l 1
 512 205 l 1
 410 205 l 1
717 205 m 1
 717 306 l 1
 819 306 l 1
 819 205 l 1
 717 205 l 1
410 307 m 1
 410 409 l 1
 512 409 l 1
 512 307 l 1
 410 307 l 1
717 307 m 1
 717 409 l 1
 819 409 l 1
 819 307 l 1
 717 307 l 1
410 410 m 1
 410 511 l 1
 512 511 l 1
 512 410 l 1
 410 410 l 1
717 410 m 1
 717 511 l 1
 819 511 l 1
 819 410 l 1
 717 410 l 1
205 512 m 1
 205 613 l 1
 717 613 l 1
 717 512 l 1
 205 512 l 1
102 614 m 1
 102 716 l 1
 205 716 l 1
 205 614 l 1
 102 614 l 1
410 614 m 1
 410 716 l 1
 512 716 l 1
 512 614 l 1
 410 614 l 1
102 717 m 1
 102 818 l 1
 205 818 l 1
 205 717 l 1
 102 717 l 1
410 717 m 1
 410 818 l 1
 512 818 l 1
 512 717 l 1
 410 717 l 1
102 819 m 1
 102 921 l 1
 205 921 l 1
 205 819 l 1
 102 819 l 1
410 819 m 1
 410 921 l 1
 512 921 l 1
 512 819 l 1
 410 819 l 1
205 922 m 1
 205 1023 l 1
 819 1023 l 1
 819 922 l 1
 205 922 l 1
410 1024 m 1
 410 1125 l 1
 512 1125 l 1
 512 1024 l 1
 410 1024 l 1
EndSplineSet
EndChar

StartChar: uni0025
Encoding: 37 37 37
Width: 819
VWidth: 0
Flags: HW
LayerCount: 2
Fore
SplineSet
614 0 m 1
 614 101 l 1
 717 101 l 1
 717 0 l 1
 614 0 l 1
512 102 m 1
 512 204 l 1
 614 204 l 1
 614 102 l 1
 512 102 l 1
717 102 m 1
 717 204 l 1
 819 204 l 1
 819 102 l 1
 717 102 l 1
102 205 m 1
 102 306 l 1
 205 306 l 1
 205 205 l 1
 102 205 l 1
614 205 m 1
 614 306 l 1
 717 306 l 1
 717 205 l 1
 614 205 l 1
205 307 m 1
 205 409 l 1
 307 409 l 1
 307 307 l 1
 205 307 l 1
307 410 m 1
 307 511 l 1
 410 511 l 1
 410 410 l 1
 307 410 l 1
410 512 m 1
 410 613 l 1
 512 613 l 1
 512 512 l 1
 410 512 l 1
512 614 m 1
 512 716 l 1
 614 716 l 1
 614 614 l 1
 512 614 l 1
614 717 m 1
 614 818 l 1
 717 818 l 1
 717 717 l 1
 614 717 l 1
205 819 m 1
 205 921 l 1
 307 921 l 1
 307 819 l 1
 205 819 l 1
717 819 m 1
 717 921 l 1
 819 921 l 1
 819 819 l 1
 717 819 l 1
102 922 m 1
 102 1023 l 1
 205 1023 l 1
 205 922 l 1
 102 922 l 1
307 922 m 1
 307 1023 l 1
 410 1023 l 1
 410 922 l 1
 307 922 l 1
205 1024 m 1
 205 1125 l 1
 307 1125 l 1
 307 1024 l 1
 205 1024 l 1
EndSplineSet
EndChar

StartChar: uni0026
Encoding: 38 38 38
Width: 819
VWidth: 0
Flags: HW
LayerCount: 2
Fore
SplineSet
205 0 m 1
 205 101 l 1
 512 101 l 1
 512 0 l 1
 205 0 l 1
102 102 m 1
 102 204 l 1
 205 204 l 1
 205 102 l 1
 102 102 l 1
512 102 m 1
 512 204 l 1
 614 204 l 1
 614 102 l 1
 512 102 l 1
717 102 m 1
 717 204 l 1
 819 204 l 1
 819 102 l 1
 717 102 l 1
102 205 m 1
 102 306 l 1
 205 306 l 1
 205 205 l 1
 102 205 l 1
512 205 m 1
 512 306 l 1
 717 306 l 1
 717 205 l 1
 512 205 l 1
102 307 m 1
 102 409 l 1
 205 409 l 1
 205 307 l 1
 102 307 l 1
512 307 m 1
 512 409 l 1
 614 409 l 1
 614 307 l 1
 512 307 l 1
717 307 m 1
 717 409 l 1
 819 409 l 1
 819 307 l 1
 717 307 l 1
205 410 m 1
 205 511 l 1
 307 511 l 1
 307 410 l 1
 205 410 l 1
410 410 m 1
 410 511 l 1
 512 511 l 1
 512 410 l 1
 410 410 l 1
307 512 m 1
 307 613 l 1
 410 613 l 1
 410 512 l 1
 307 512 l 1
205 614 m 1
 205 716 l 1
 307 716 l 1
 307 614 l 1
 205 614 l 1
410 614 m 1
 410 716 l 1
 512 716 l 1
 512 614 l 1
 410 614 l 1
102 717 m 1
 102 818 l 1
 205 818 l 1
 205 717 l 1
 102 717 l 1
512 717 m 1
 512 818 l 1
 614 818 l 1
 614 717 l 1
 512 717 l 1
102 819 m 1
 102 921 l 1
 205 921 l 1
 205 819 l 1
 102 819 l 1
512 819 m 1
 512 921 l 1
 614 921 l 1
 614 819 l 1
 512 819 l 1
102 922 m 1
 102 1023 l 1
 205 1023 l 1
 205 922 l 1
 102 922 l 1
512 922 m 1
 512 1023 l 1
 614 1023 l 1
 614 922 l 1
 512 922 l 1
205 1024 m 1
 205 1125 l 1
 512 1125 l 1
 512 1024 l 1
 205 1024 l 1
EndSplineSet
EndChar

StartChar: uni0027
Encoding: 39 39 39
Width: 819
VWidth: 0
Flags: HW
LayerCount: 2
Fore
SplineSet
307 717 m 1
 307 818 l 1
 410 818 l 1
 410 717 l 1
 307 717 l 1
410 819 m 1
 410 921 l 1
 512 921 l 1
 512 819 l 1
 410 819 l 1
410 922 m 1
 410 1023 l 1
 614 1023 l 1
 614 922 l 1
 410 922 l 1
410 1024 m 1
 410 1125 l 1
 614 1125 l 1
 614 1024 l 1
 410 1024 l 1
EndSplineSet
EndChar

StartChar: uni0028
Encoding: 40 40 40
Width: 819
VWidth: 0
Flags: HW
LayerCount: 2
Fore
SplineSet
512 -101 m 1
 512 -1 l 1
 614 -1 l 1
 614 -101 l 1
 512 -101 l 1
410 0 m 1
 410 101 l 1
 512 101 l 1
 512 0 l 1
 410 0 l 1
307 102 m 1
 307 204 l 1
 410 204 l 1
 410 102 l 1
 307 102 l 1
307 205 m 1
 307 306 l 1
 410 306 l 1
 410 205 l 1
 307 205 l 1
307 307 m 1
 307 409 l 1
 410 409 l 1
 410 307 l 1
 307 307 l 1
307 410 m 1
 307 511 l 1
 410 511 l 1
 410 410 l 1
 307 410 l 1
307 512 m 1
 307 613 l 1
 410 613 l 1
 410 512 l 1
 307 512 l 1
307 614 m 1
 307 716 l 1
 410 716 l 1
 410 614 l 1
 307 614 l 1
307 717 m 1
 307 818 l 1
 410 818 l 1
 410 717 l 1
 307 717 l 1
307 819 m 1
 307 921 l 1
 410 921 l 1
 410 819 l 1
 307 819 l 1
410 922 m 1
 410 1023 l 1
 512 1023 l 1
 512 922 l 1
 410 922 l 1
512 1024 m 1
 512 1125 l 1
 614 1125 l 1
 614 1024 l 1
 512 1024 l 1
EndSplineSet
EndChar

StartChar: uni0029
Encoding: 41 41 41
Width: 819
VWidth: 0
Flags: HW
LayerCount: 2
Fore
SplineSet
307 -101 m 1
 307 -1 l 1
 410 -1 l 1
 410 -101 l 1
 307 -101 l 1
410 0 m 1
 410 101 l 1
 512 101 l 1
 512 0 l 1
 410 0 l 1
512 102 m 1
 512 204 l 1
 614 204 l 1
 614 102 l 1
 512 102 l 1
512 205 m 1
 512 306 l 1
 614 306 l 1
 614 205 l 1
 512 205 l 1
512 307 m 1
 512 409 l 1
 614 409 l 1
 614 307 l 1
 512 307 l 1
512 410 m 1
 512 511 l 1
 614 511 l 1
 614 410 l 1
 512 410 l 1
512 512 m 1
 512 613 l 1
 614 613 l 1
 614 512 l 1
 512 512 l 1
512 614 m 1
 512 716 l 1
 614 716 l 1
 614 614 l 1
 512 614 l 1
512 717 m 1
 512 818 l 1
 614 818 l 1
 614 717 l 1
 512 717 l 1
512 819 m 1
 512 921 l 1
 614 921 l 1
 614 819 l 1
 512 819 l 1
410 922 m 1
 410 1023 l 1
 512 1023 l 1
 512 922 l 1
 410 922 l 1
307 1024 m 1
 307 1125 l 1
 410 1125 l 1
 410 1024 l 1
 307 1024 l 1
EndSplineSet
EndChar

StartChar: uni002A
Encoding: 42 42 42
Width: 819
VWidth: 0
Flags: HW
LayerCount: 2
Fore
SplineSet
410 102 m 1
 410 204 l 1
 512 204 l 1
 512 102 l 1
 410 102 l 1
102 205 m 1
 102 306 l 1
 205 306 l 1
 205 205 l 1
 102 205 l 1
410 205 m 1
 410 306 l 1
 512 306 l 1
 512 205 l 1
 410 205 l 1
717 205 m 1
 717 306 l 1
 819 306 l 1
 819 205 l 1
 717 205 l 1
205 307 m 1
 205 409 l 1
 307 409 l 1
 307 307 l 1
 205 307 l 1
410 307 m 1
 410 409 l 1
 512 409 l 1
 512 307 l 1
 410 307 l 1
614 307 m 1
 614 409 l 1
 717 409 l 1
 717 307 l 1
 614 307 l 1
307 410 m 1
 307 511 l 1
 614 511 l 1
 614 410 l 1
 307 410 l 1
410 512 m 1
 410 613 l 1
 512 613 l 1
 512 512 l 1
 410 512 l 1
307 614 m 1
 307 716 l 1
 614 716 l 1
 614 614 l 1
 307 614 l 1
205 717 m 1
 205 818 l 1
 307 818 l 1
 307 717 l 1
 205 717 l 1
410 717 m 1
 410 818 l 1
 512 818 l 1
 512 717 l 1
 410 717 l 1
614 717 m 1
 614 818 l 1
 717 818 l 1
 717 717 l 1
 614 717 l 1
102 819 m 1
 102 921 l 1
 205 921 l 1
 205 819 l 1
 102 819 l 1
410 819 m 1
 410 921 l 1
 512 921 l 1
 512 819 l 1
 410 819 l 1
717 819 m 1
 717 921 l 1
 819 921 l 1
 819 819 l 1
 717 819 l 1
410 922 m 1
 410 1023 l 1
 512 1023 l 1
 512 922 l 1
 410 922 l 1
EndSplineSet
EndChar

StartChar: uni002B
Encoding: 43 43 43
Width: 819
VWidth: 0
Flags: HW
LayerCount: 2
Fore
SplineSet
410 102 m 1
 410 204 l 1
 512 204 l 1
 512 102 l 1
 410 102 l 1
410 205 m 1
 410 306 l 1
 512 306 l 1
 512 205 l 1
 410 205 l 1
410 307 m 1
 410 409 l 1
 512 409 l 1
 512 307 l 1
 410 307 l 1
410 410 m 1
 410 511 l 1
 512 511 l 1
 512 410 l 1
 410 410 l 1
102 512 m 1
 102 613 l 1
 819 613 l 1
 819 512 l 1
 102 512 l 1
410 614 m 1
 410 716 l 1
 512 716 l 1
 512 614 l 1
 410 614 l 1
410 717 m 1
 410 818 l 1
 512 818 l 1
 512 717 l 1
 410 717 l 1
410 819 m 1
 410 921 l 1
 512 921 l 1
 512 819 l 1
 410 819 l 1
410 922 m 1
 410 1023 l 1
 512 1023 l 1
 512 922 l 1
 410 922 l 1
EndSplineSet
EndChar

StartChar: uni002C
Encoding: 44 44 44
Width: 819
VWidth: 0
Flags: HW
LayerCount: 2
Fore
SplineSet
205 -204 m 1
 205 -102 l 1
 307 -102 l 1
 307 -204 l 1
 205 -204 l 1
307 -101 m 1
 307 -1 l 1
 410 -1 l 1
 410 -101 l 1
 307 -101 l 1
307 0 m 1
 307 101 l 1
 512 101 l 1
 512 0 l 1
 307 0 l 1
307 102 m 1
 307 204 l 1
 512 204 l 1
 512 102 l 1
 307 102 l 1
EndSplineSet
EndChar

StartChar: uni002D
Encoding: 45 45 45
Width: 819
VWidth: 0
Flags: HW
LayerCount: 2
Fore
SplineSet
102 512 m 1
 102 613 l 1
 819 613 l 1
 819 512 l 1
 102 512 l 1
EndSplineSet
EndChar

StartChar: uni002E
Encoding: 46 46 46
Width: 819
VWidth: 0
Flags: HW
LayerCount: 2
Fore
SplineSet
307 0 m 1
 307 101 l 1
 512 101 l 1
 512 0 l 1
 307 0 l 1
307 102 m 1
 307 204 l 1
 512 204 l 1
 512 102 l 1
 307 102 l 1
EndSplineSet
EndChar

StartChar: uni002F
Encoding: 47 47 47
Width: 819
VWidth: 0
Flags: HW
LayerCount: 2
Fore
SplineSet
102 205 m 1
 102 306 l 1
 205 306 l 1
 205 205 l 1
 102 205 l 1
205 307 m 1
 205 409 l 1
 307 409 l 1
 307 307 l 1
 205 307 l 1
307 410 m 1
 307 511 l 1
 410 511 l 1
 410 410 l 1
 307 410 l 1
410 512 m 1
 410 613 l 1
 512 613 l 1
 512 512 l 1
 410 512 l 1
512 614 m 1
 512 716 l 1
 614 716 l 1
 614 614 l 1
 512 614 l 1
614 717 m 1
 614 818 l 1
 717 818 l 1
 717 717 l 1
 614 717 l 1
717 819 m 1
 717 921 l 1
 819 921 l 1
 819 819 l 1
 717 819 l 1
EndSplineSet
EndChar

StartChar: uni0030
Encoding: 48 48 48
Width: 819
VWidth: 0
Flags: HW
LayerCount: 2
Fore
SplineSet
205 0 m 1
 205 101 l 1
 717 101 l 1
 717 0 l 1
 205 0 l 1
102 102 m 1
 102 204 l 1
 205 204 l 1
 205 102 l 1
 102 102 l 1
717 102 m 1
 717 204 l 1
 819 204 l 1
 819 102 l 1
 717 102 l 1
102 205 m 1
 102 306 l 1
 205 306 l 1
 205 205 l 1
 102 205 l 1
717 205 m 1
 717 306 l 1
 819 306 l 1
 819 205 l 1
 717 205 l 1
102 307 m 1
 102 409 l 1
 307 409 l 1
 307 307 l 1
 102 307 l 1
717 307 m 1
 717 409 l 1
 819 409 l 1
 819 307 l 1
 717 307 l 1
102 410 m 1
 102 511 l 1
 205 511 l 1
 205 410 l 1
 102 410 l 1
307 410 m 1
 307 511 l 1
 410 511 l 1
 410 410 l 1
 307 410 l 1
717 410 m 1
 717 511 l 1
 819 511 l 1
 819 410 l 1
 717 410 l 1
102 512 m 1
 102 613 l 1
 205 613 l 1
 205 512 l 1
 102 512 l 1
410 512 m 1
 410 613 l 1
 512 613 l 1
 512 512 l 1
 410 512 l 1
717 512 m 1
 717 613 l 1
 819 613 l 1
 819 512 l 1
 717 512 l 1
102 614 m 1
 102 716 l 1
 205 716 l 1
 205 614 l 1
 102 614 l 1
512 614 m 1
 512 716 l 1
 614 716 l 1
 614 614 l 1
 512 614 l 1
717 614 m 1
 717 716 l 1
 819 716 l 1
 819 614 l 1
 717 614 l 1
102 717 m 1
 102 818 l 1
 205 818 l 1
 205 717 l 1
 102 717 l 1
614 717 m 1
 614 818 l 1
 819 818 l 1
 819 717 l 1
 614 717 l 1
102 819 m 1
 102 921 l 1
 205 921 l 1
 205 819 l 1
 102 819 l 1
717 819 m 1
 717 921 l 1
 819 921 l 1
 819 819 l 1
 717 819 l 1
102 922 m 1
 102 1023 l 1
 205 1023 l 1
 205 922 l 1
 102 922 l 1
717 922 m 1
 717 1023 l 1
 819 1023 l 1
 819 922 l 1
 717 922 l 1
205 1024 m 1
 205 1125 l 1
 717 1125 l 1
 717 1024 l 1
 205 1024 l 1
EndSplineSet
EndChar

StartChar: uni0031
Encoding: 49 49 49
Width: 819
VWidth: 0
Flags: HW
LayerCount: 2
Fore
SplineSet
205 0 m 1
 205 101 l 1
 717 101 l 1
 717 0 l 1
 205 0 l 1
410 102 m 1
 410 204 l 1
 512 204 l 1
 512 102 l 1
 410 102 l 1
410 205 m 1
 410 306 l 1
 512 306 l 1
 512 205 l 1
 410 205 l 1
410 307 m 1
 410 409 l 1
 512 409 l 1
 512 307 l 1
 410 307 l 1
410 410 m 1
 410 511 l 1
 512 511 l 1
 512 410 l 1
 410 410 l 1
410 512 m 1
 410 613 l 1
 512 613 l 1
 512 512 l 1
 410 512 l 1
410 614 m 1
 410 716 l 1
 512 716 l 1
 512 614 l 1
 410 614 l 1
410 717 m 1
 410 818 l 1
 512 818 l 1
 512 717 l 1
 410 717 l 1
205 819 m 1
 205 921 l 1
 307 921 l 1
 307 819 l 1
 205 819 l 1
410 819 m 1
 410 921 l 1
 512 921 l 1
 512 819 l 1
 410 819 l 1
307 922 m 1
 307 1023 l 1
 512 1023 l 1
 512 922 l 1
 307 922 l 1
410 1024 m 1
 410 1125 l 1
 512 1125 l 1
 512 1024 l 1
 410 1024 l 1
EndSplineSet
EndChar

StartChar: uni0032
Encoding: 50 50 50
Width: 819
VWidth: 0
Flags: HW
LayerCount: 2
Fore
SplineSet
102 0 m 1
 102 101 l 1
 819 101 l 1
 819 0 l 1
 102 0 l 1
102 102 m 1
 102 204 l 1
 205 204 l 1
 205 102 l 1
 102 102 l 1
102 205 m 1
 102 306 l 1
 205 306 l 1
 205 205 l 1
 102 205 l 1
102 307 m 1
 102 409 l 1
 205 409 l 1
 205 307 l 1
 102 307 l 1
205 410 m 1
 205 511 l 1
 307 511 l 1
 307 410 l 1
 205 410 l 1
307 512 m 1
 307 613 l 1
 614 613 l 1
 614 512 l 1
 307 512 l 1
614 614 m 1
 614 716 l 1
 717 716 l 1
 717 614 l 1
 614 614 l 1
717 717 m 1
 717 818 l 1
 819 818 l 1
 819 717 l 1
 717 717 l 1
717 819 m 1
 717 921 l 1
 819 921 l 1
 819 819 l 1
 717 819 l 1
102 922 m 1
 102 1023 l 1
 205 1023 l 1
 205 922 l 1
 102 922 l 1
717 922 m 1
 717 1023 l 1
 819 1023 l 1
 819 922 l 1
 717 922 l 1
205 1024 m 1
 205 1125 l 1
 717 1125 l 1
 717 1024 l 1
 205 1024 l 1
EndSplineSet
EndChar

StartChar: uni0033
Encoding: 51 51 51
Width: 819
VWidth: 0
Flags: HW
LayerCount: 2
Fore
SplineSet
205 0 m 1
 205 101 l 1
 717 101 l 1
 717 0 l 1
 205 0 l 1
102 102 m 1
 102 204 l 1
 205 204 l 1
 205 102 l 1
 102 102 l 1
717 102 m 1
 717 204 l 1
 819 204 l 1
 819 102 l 1
 717 102 l 1
717 205 m 1
 717 306 l 1
 819 306 l 1
 819 205 l 1
 717 205 l 1
717 307 m 1
 717 409 l 1
 819 409 l 1
 819 307 l 1
 717 307 l 1
717 410 m 1
 717 511 l 1
 819 511 l 1
 819 410 l 1
 717 410 l 1
307 512 m 1
 307 613 l 1
 717 613 l 1
 717 512 l 1
 307 512 l 1
717 614 m 1
 717 716 l 1
 819 716 l 1
 819 614 l 1
 717 614 l 1
717 717 m 1
 717 818 l 1
 819 818 l 1
 819 717 l 1
 717 717 l 1
717 819 m 1
 717 921 l 1
 819 921 l 1
 819 819 l 1
 717 819 l 1
102 922 m 1
 102 1023 l 1
 205 1023 l 1
 205 922 l 1
 102 922 l 1
717 922 m 1
 717 1023 l 1
 819 1023 l 1
 819 922 l 1
 717 922 l 1
205 1024 m 1
 205 1125 l 1
 717 1125 l 1
 717 1024 l 1
 205 1024 l 1
EndSplineSet
EndChar

StartChar: uni0034
Encoding: 52 52 52
Width: 819
VWidth: 0
Flags: HW
LayerCount: 2
Fore
SplineSet
614 0 m 1
 614 101 l 1
 717 101 l 1
 717 0 l 1
 614 0 l 1
614 102 m 1
 614 204 l 1
 717 204 l 1
 717 102 l 1
 614 102 l 1
102 205 m 1
 102 306 l 1
 717 306 l 1
 717 205 l 1
 102 205 l 1
102 307 m 1
 102 409 l 1
 205 409 l 1
 205 307 l 1
 102 307 l 1
614 307 m 1
 614 409 l 1
 717 409 l 1
 717 307 l 1
 614 307 l 1
102 410 m 1
 102 511 l 1
 205 511 l 1
 205 410 l 1
 102 410 l 1
614 410 m 1
 614 511 l 1
 717 511 l 1
 717 410 l 1
 614 410 l 1
102 512 m 1
 102 613 l 1
 205 613 l 1
 205 512 l 1
 102 512 l 1
614 512 m 1
 614 613 l 1
 717 613 l 1
 717 512 l 1
 614 512 l 1
205 614 m 1
 205 716 l 1
 307 716 l 1
 307 614 l 1
 205 614 l 1
614 614 m 1
 614 716 l 1
 717 716 l 1
 717 614 l 1
 614 614 l 1
307 717 m 1
 307 818 l 1
 410 818 l 1
 410 717 l 1
 307 717 l 1
614 717 m 1
 614 818 l 1
 717 818 l 1
 717 717 l 1
 614 717 l 1
410 819 m 1
 410 921 l 1
 512 921 l 1
 512 819 l 1
 410 819 l 1
614 819 m 1
 614 921 l 1
 717 921 l 1
 717 819 l 1
 614 819 l 1
512 922 m 1
 512 1023 l 1
 717 1023 l 1
 717 922 l 1
 512 922 l 1
614 1024 m 1
 614 1125 l 1
 717 1125 l 1
 717 1024 l 1
 614 1024 l 1
EndSplineSet
EndChar

StartChar: uni0035
Encoding: 53 53 53
Width: 819
VWidth: 0
Flags: HW
LayerCount: 2
Fore
SplineSet
205 0 m 1
 205 101 l 1
 614 101 l 1
 614 0 l 1
 205 0 l 1
102 102 m 1
 102 204 l 1
 205 204 l 1
 205 102 l 1
 102 102 l 1
614 102 m 1
 614 204 l 1
 717 204 l 1
 717 102 l 1
 614 102 l 1
717 205 m 1
 717 306 l 1
 819 306 l 1
 819 205 l 1
 717 205 l 1
717 307 m 1
 717 409 l 1
 819 409 l 1
 819 307 l 1
 717 307 l 1
717 410 m 1
 717 511 l 1
 819 511 l 1
 819 410 l 1
 717 410 l 1
614 512 m 1
 614 613 l 1
 717 613 l 1
 717 512 l 1
 614 512 l 1
102 614 m 1
 102 716 l 1
 614 716 l 1
 614 614 l 1
 102 614 l 1
102 717 m 1
 102 818 l 1
 205 818 l 1
 205 717 l 1
 102 717 l 1
102 819 m 1
 102 921 l 1
 205 921 l 1
 205 819 l 1
 102 819 l 1
102 922 m 1
 102 1023 l 1
 205 1023 l 1
 205 922 l 1
 102 922 l 1
102 1024 m 1
 102 1125 l 1
 819 1125 l 1
 819 1024 l 1
 102 1024 l 1
EndSplineSet
EndChar

StartChar: uni0036
Encoding: 54 54 54
Width: 819
VWidth: 0
Flags: HW
LayerCount: 2
Fore
SplineSet
205 0 m 1
 205 101 l 1
 717 101 l 1
 717 0 l 1
 205 0 l 1
102 102 m 1
 102 204 l 1
 205 204 l 1
 205 102 l 1
 102 102 l 1
717 102 m 1
 717 204 l 1
 819 204 l 1
 819 102 l 1
 717 102 l 1
102 205 m 1
 102 306 l 1
 205 306 l 1
 205 205 l 1
 102 205 l 1
717 205 m 1
 717 306 l 1
 819 306 l 1
 819 205 l 1
 717 205 l 1
102 307 m 1
 102 409 l 1
 205 409 l 1
 205 307 l 1
 102 307 l 1
717 307 m 1
 717 409 l 1
 819 409 l 1
 819 307 l 1
 717 307 l 1
102 410 m 1
 102 511 l 1
 205 511 l 1
 205 410 l 1
 102 410 l 1
717 410 m 1
 717 511 l 1
 819 511 l 1
 819 410 l 1
 717 410 l 1
102 512 m 1
 102 613 l 1
 717 613 l 1
 717 512 l 1
 102 512 l 1
102 614 m 1
 102 716 l 1
 205 716 l 1
 205 614 l 1
 102 614 l 1
102 717 m 1
 102 818 l 1
 205 818 l 1
 205 717 l 1
 102 717 l 1
102 819 m 1
 102 921 l 1
 205 921 l 1
 205 819 l 1
 102 819 l 1
205 922 m 1
 205 1023 l 1
 307 1023 l 1
 307 922 l 1
 205 922 l 1
307 1024 m 1
 307 1125 l 1
 717 1125 l 1
 717 1024 l 1
 307 1024 l 1
EndSplineSet
EndChar

StartChar: uni0037
Encoding: 55 55 55
Width: 819
VWidth: 0
Flags: HW
LayerCount: 2
Fore
SplineSet
307 0 m 1
 307 101 l 1
 410 101 l 1
 410 0 l 1
 307 0 l 1
307 102 m 1
 307 204 l 1
 410 204 l 1
 410 102 l 1
 307 102 l 1
307 205 m 1
 307 306 l 1
 410 306 l 1
 410 205 l 1
 307 205 l 1
410 307 m 1
 410 409 l 1
 512 409 l 1
 512 307 l 1
 410 307 l 1
410 410 m 1
 410 511 l 1
 512 511 l 1
 512 410 l 1
 410 410 l 1
512 512 m 1
 512 613 l 1
 614 613 l 1
 614 512 l 1
 512 512 l 1
512 614 m 1
 512 716 l 1
 614 716 l 1
 614 614 l 1
 512 614 l 1
614 717 m 1
 614 818 l 1
 717 818 l 1
 717 717 l 1
 614 717 l 1
614 819 m 1
 614 921 l 1
 717 921 l 1
 717 819 l 1
 614 819 l 1
717 922 m 1
 717 1023 l 1
 819 1023 l 1
 819 922 l 1
 717 922 l 1
102 1024 m 1
 102 1125 l 1
 819 1125 l 1
 819 1024 l 1
 102 1024 l 1
EndSplineSet
EndChar

StartChar: uni0038
Encoding: 56 56 56
Width: 819
VWidth: 0
Flags: HW
LayerCount: 2
Fore
SplineSet
205 0 m 1
 205 101 l 1
 614 101 l 1
 614 0 l 1
 205 0 l 1
102 102 m 1
 102 204 l 1
 205 204 l 1
 205 102 l 1
 102 102 l 1
614 102 m 1
 614 204 l 1
 717 204 l 1
 717 102 l 1
 614 102 l 1
102 205 m 1
 102 306 l 1
 205 306 l 1
 205 205 l 1
 102 205 l 1
614 205 m 1
 614 306 l 1
 717 306 l 1
 717 205 l 1
 614 205 l 1
102 307 m 1
 102 409 l 1
 205 409 l 1
 205 307 l 1
 102 307 l 1
614 307 m 1
 614 409 l 1
 717 409 l 1
 717 307 l 1
 614 307 l 1
102 410 m 1
 102 511 l 1
 205 511 l 1
 205 410 l 1
 102 410 l 1
614 410 m 1
 614 511 l 1
 717 511 l 1
 717 410 l 1
 614 410 l 1
205 512 m 1
 205 613 l 1
 614 613 l 1
 614 512 l 1
 205 512 l 1
102 614 m 1
 102 716 l 1
 205 716 l 1
 205 614 l 1
 102 614 l 1
614 614 m 1
 614 716 l 1
 717 716 l 1
 717 614 l 1
 614 614 l 1
102 717 m 1
 102 818 l 1
 205 818 l 1
 205 717 l 1
 102 717 l 1
614 717 m 1
 614 818 l 1
 717 818 l 1
 717 717 l 1
 614 717 l 1
102 819 m 1
 102 921 l 1
 205 921 l 1
 205 819 l 1
 102 819 l 1
614 819 m 1
 614 921 l 1
 717 921 l 1
 717 819 l 1
 614 819 l 1
102 922 m 1
 102 1023 l 1
 205 1023 l 1
 205 922 l 1
 102 922 l 1
614 922 m 1
 614 1023 l 1
 717 1023 l 1
 717 922 l 1
 614 922 l 1
205 1024 m 1
 205 1125 l 1
 614 1125 l 1
 614 1024 l 1
 205 1024 l 1
EndSplineSet
EndChar

StartChar: uni0039
Encoding: 57 57 57
Width: 819
VWidth: 0
Flags: HW
LayerCount: 2
Fore
SplineSet
205 0 m 1
 205 101 l 1
 614 101 l 1
 614 0 l 1
 205 0 l 1
614 102 m 1
 614 204 l 1
 717 204 l 1
 717 102 l 1
 614 102 l 1
717 205 m 1
 717 306 l 1
 819 306 l 1
 819 205 l 1
 717 205 l 1
717 307 m 1
 717 409 l 1
 819 409 l 1
 819 307 l 1
 717 307 l 1
717 410 m 1
 717 511 l 1
 819 511 l 1
 819 410 l 1
 717 410 l 1
205 512 m 1
 205 613 l 1
 819 613 l 1
 819 512 l 1
 205 512 l 1
102 614 m 1
 102 716 l 1
 205 716 l 1
 205 614 l 1
 102 614 l 1
717 614 m 1
 717 716 l 1
 819 716 l 1
 819 614 l 1
 717 614 l 1
102 717 m 1
 102 818 l 1
 205 818 l 1
 205 717 l 1
 102 717 l 1
717 717 m 1
 717 818 l 1
 819 818 l 1
 819 717 l 1
 717 717 l 1
102 819 m 1
 102 921 l 1
 205 921 l 1
 205 819 l 1
 102 819 l 1
717 819 m 1
 717 921 l 1
 819 921 l 1
 819 819 l 1
 717 819 l 1
102 922 m 1
 102 1023 l 1
 205 1023 l 1
 205 922 l 1
 102 922 l 1
717 922 m 1
 717 1023 l 1
 819 1023 l 1
 819 922 l 1
 717 922 l 1
205 1024 m 1
 205 1125 l 1
 717 1125 l 1
 717 1024 l 1
 205 1024 l 1
EndSplineSet
EndChar

StartChar: uni003A
Encoding: 58 58 58
Width: 819
VWidth: 0
Flags: HW
LayerCount: 2
Fore
SplineSet
307 102 m 1
 307 204 l 1
 512 204 l 1
 512 102 l 1
 307 102 l 1
307 205 m 1
 307 306 l 1
 512 306 l 1
 512 205 l 1
 307 205 l 1
307 614 m 1
 307 716 l 1
 512 716 l 1
 512 614 l 1
 307 614 l 1
307 717 m 1
 307 818 l 1
 512 818 l 1
 512 717 l 1
 307 717 l 1
EndSplineSet
EndChar

StartChar: uni003B
Encoding: 59 59 59
Width: 819
VWidth: 0
Flags: HW
LayerCount: 2
Fore
SplineSet
205 -204 m 1
 205 -102 l 1
 307 -102 l 1
 307 -204 l 1
 205 -204 l 1
307 -101 m 1
 307 -1 l 1
 410 -1 l 1
 410 -101 l 1
 307 -101 l 1
307 0 m 1
 307 101 l 1
 512 101 l 1
 512 0 l 1
 307 0 l 1
307 102 m 1
 307 204 l 1
 512 204 l 1
 512 102 l 1
 307 102 l 1
307 512 m 1
 307 613 l 1
 512 613 l 1
 512 512 l 1
 307 512 l 1
307 614 m 1
 307 716 l 1
 512 716 l 1
 512 614 l 1
 307 614 l 1
EndSplineSet
EndChar

StartChar: uni003C
Encoding: 60 60 60
Width: 819
VWidth: 0
Flags: HW
LayerCount: 2
Fore
SplineSet
614 0 m 1
 614 101 l 1
 717 101 l 1
 717 0 l 1
 614 0 l 1
512 102 m 1
 512 204 l 1
 614 204 l 1
 614 102 l 1
 512 102 l 1
410 205 m 1
 410 306 l 1
 512 306 l 1
 512 205 l 1
 410 205 l 1
307 307 m 1
 307 409 l 1
 410 409 l 1
 410 307 l 1
 307 307 l 1
205 410 m 1
 205 511 l 1
 307 511 l 1
 307 410 l 1
 205 410 l 1
102 512 m 1
 102 613 l 1
 205 613 l 1
 205 512 l 1
 102 512 l 1
205 614 m 1
 205 716 l 1
 307 716 l 1
 307 614 l 1
 205 614 l 1
307 717 m 1
 307 818 l 1
 410 818 l 1
 410 717 l 1
 307 717 l 1
410 819 m 1
 410 921 l 1
 512 921 l 1
 512 819 l 1
 410 819 l 1
512 922 m 1
 512 1023 l 1
 614 1023 l 1
 614 922 l 1
 512 922 l 1
614 1024 m 1
 614 1125 l 1
 717 1125 l 1
 717 1024 l 1
 614 1024 l 1
EndSplineSet
EndChar

StartChar: uni003D
Encoding: 61 61 61
Width: 819
VWidth: 0
Flags: HW
LayerCount: 2
Fore
SplineSet
205 410 m 1
 205 511 l 1
 717 511 l 1
 717 410 l 1
 205 410 l 1
205 614 m 1
 205 716 l 1
 717 716 l 1
 717 614 l 1
 205 614 l 1
EndSplineSet
EndChar

StartChar: uni003E
Encoding: 62 62 62
Width: 819
VWidth: 0
Flags: HW
LayerCount: 2
Fore
SplineSet
205 0 m 1
 205 101 l 1
 307 101 l 1
 307 0 l 1
 205 0 l 1
307 102 m 1
 307 204 l 1
 410 204 l 1
 410 102 l 1
 307 102 l 1
410 205 m 1
 410 306 l 1
 512 306 l 1
 512 205 l 1
 410 205 l 1
512 307 m 1
 512 409 l 1
 614 409 l 1
 614 307 l 1
 512 307 l 1
614 410 m 1
 614 511 l 1
 717 511 l 1
 717 410 l 1
 614 410 l 1
717 512 m 1
 717 613 l 1
 819 613 l 1
 819 512 l 1
 717 512 l 1
614 614 m 1
 614 716 l 1
 717 716 l 1
 717 614 l 1
 614 614 l 1
512 717 m 1
 512 818 l 1
 614 818 l 1
 614 717 l 1
 512 717 l 1
410 819 m 1
 410 921 l 1
 512 921 l 1
 512 819 l 1
 410 819 l 1
307 922 m 1
 307 1023 l 1
 410 1023 l 1
 410 922 l 1
 307 922 l 1
205 1024 m 1
 205 1125 l 1
 307 1125 l 1
 307 1024 l 1
 205 1024 l 1
EndSplineSet
EndChar

StartChar: uni003F
Encoding: 63 63 63
Width: 819
VWidth: 0
Flags: HW
LayerCount: 2
Fore
SplineSet
410 0 m 1
 410 101 l 1
 512 101 l 1
 512 0 l 1
 410 0 l 1
410 205 m 1
 410 306 l 1
 512 306 l 1
 512 205 l 1
 410 205 l 1
410 307 m 1
 410 409 l 1
 512 409 l 1
 512 307 l 1
 410 307 l 1
410 410 m 1
 410 511 l 1
 512 511 l 1
 512 410 l 1
 410 410 l 1
512 512 m 1
 512 613 l 1
 717 613 l 1
 717 512 l 1
 512 512 l 1
717 614 m 1
 717 716 l 1
 819 716 l 1
 819 614 l 1
 717 614 l 1
717 717 m 1
 717 818 l 1
 819 818 l 1
 819 717 l 1
 717 717 l 1
717 819 m 1
 717 921 l 1
 819 921 l 1
 819 819 l 1
 717 819 l 1
205 922 m 1
 205 1023 l 1
 307 1023 l 1
 307 922 l 1
 205 922 l 1
717 922 m 1
 717 1023 l 1
 819 1023 l 1
 819 922 l 1
 717 922 l 1
307 1024 m 1
 307 1125 l 1
 717 1125 l 1
 717 1024 l 1
 307 1024 l 1
EndSplineSet
EndChar

StartChar: uni0040
Encoding: 64 64 64
Width: 819
VWidth: 0
Flags: HW
LayerCount: 2
Fore
SplineSet
307 0 m 1
 307 101 l 1
 717 101 l 1
 717 0 l 1
 307 0 l 1
205 102 m 1
 205 204 l 1
 307 204 l 1
 307 102 l 1
 205 102 l 1
102 205 m 1
 102 306 l 1
 205 306 l 1
 205 205 l 1
 102 205 l 1
102 307 m 1
 102 409 l 1
 205 409 l 1
 205 307 l 1
 102 307 l 1
410 307 m 1
 410 409 l 1
 819 409 l 1
 819 307 l 1
 410 307 l 1
102 410 m 1
 102 511 l 1
 205 511 l 1
 205 410 l 1
 102 410 l 1
307 410 m 1
 307 511 l 1
 410 511 l 1
 410 410 l 1
 307 410 l 1
512 410 m 1
 512 511 l 1
 614 511 l 1
 614 410 l 1
 512 410 l 1
717 410 m 1
 717 511 l 1
 819 511 l 1
 819 410 l 1
 717 410 l 1
102 512 m 1
 102 613 l 1
 205 613 l 1
 205 512 l 1
 102 512 l 1
307 512 m 1
 307 613 l 1
 410 613 l 1
 410 512 l 1
 307 512 l 1
512 512 m 1
 512 613 l 1
 614 613 l 1
 614 512 l 1
 512 512 l 1
717 512 m 1
 717 613 l 1
 819 613 l 1
 819 512 l 1
 717 512 l 1
102 614 m 1
 102 716 l 1
 205 716 l 1
 205 614 l 1
 102 614 l 1
307 614 m 1
 307 716 l 1
 410 716 l 1
 410 614 l 1
 307 614 l 1
512 614 m 1
 512 716 l 1
 614 716 l 1
 614 614 l 1
 512 614 l 1
717 614 m 1
 717 716 l 1
 819 716 l 1
 819 614 l 1
 717 614 l 1
102 717 m 1
 102 818 l 1
 205 818 l 1
 205 717 l 1
 102 717 l 1
410 717 m 1
 410 818 l 1
 614 818 l 1
 614 717 l 1
 410 717 l 1
717 717 m 1
 717 818 l 1
 819 818 l 1
 819 717 l 1
 717 717 l 1
102 819 m 1
 102 921 l 1
 205 921 l 1
 205 819 l 1
 102 819 l 1
717 819 m 1
 717 921 l 1
 819 921 l 1
 819 819 l 1
 717 819 l 1
205 922 m 1
 205 1023 l 1
 307 1023 l 1
 307 922 l 1
 205 922 l 1
717 922 m 1
 717 1023 l 1
 819 1023 l 1
 819 922 l 1
 717 922 l 1
307 1024 m 1
 307 1125 l 1
 717 1125 l 1
 717 1024 l 1
 307 1024 l 1
EndSplineSet
EndChar

StartChar: uni0041
Encoding: 65 65 65
Width: 819
VWidth: 0
Flags: HW
LayerCount: 2
Fore
SplineSet
102 0 m 1
 102 101 l 1
 205 101 l 1
 205 0 l 1
 102 0 l 1
717 0 m 1
 717 101 l 1
 819 101 l 1
 819 0 l 1
 717 0 l 1
102 102 m 1
 102 204 l 1
 205 204 l 1
 205 102 l 1
 102 102 l 1
717 102 m 1
 717 204 l 1
 819 204 l 1
 819 102 l 1
 717 102 l 1
102 205 m 1
 102 306 l 1
 205 306 l 1
 205 205 l 1
 102 205 l 1
717 205 m 1
 717 306 l 1
 819 306 l 1
 819 205 l 1
 717 205 l 1
102 307 m 1
 102 409 l 1
 205 409 l 1
 205 307 l 1
 102 307 l 1
717 307 m 1
 717 409 l 1
 819 409 l 1
 819 307 l 1
 717 307 l 1
102 410 m 1
 102 511 l 1
 819 511 l 1
 819 410 l 1
 102 410 l 1
102 512 m 1
 102 613 l 1
 205 613 l 1
 205 512 l 1
 102 512 l 1
717 512 m 1
 717 613 l 1
 819 613 l 1
 819 512 l 1
 717 512 l 1
102 614 m 1
 102 716 l 1
 205 716 l 1
 205 614 l 1
 102 614 l 1
717 614 m 1
 717 716 l 1
 819 716 l 1
 819 614 l 1
 717 614 l 1
102 717 m 1
 102 818 l 1
 205 818 l 1
 205 717 l 1
 102 717 l 1
717 717 m 1
 717 818 l 1
 819 818 l 1
 819 717 l 1
 717 717 l 1
102 819 m 1
 102 921 l 1
 205 921 l 1
 205 819 l 1
 102 819 l 1
717 819 m 1
 717 921 l 1
 819 921 l 1
 819 819 l 1
 717 819 l 1
205 922 m 1
 205 1023 l 1
 307 1023 l 1
 307 922 l 1
 205 922 l 1
614 922 m 1
 614 1023 l 1
 717 1023 l 1
 717 922 l 1
 614 922 l 1
307 1024 m 1
 307 1125 l 1
 614 1125 l 1
 614 1024 l 1
 307 1024 l 1
EndSplineSet
EndChar

StartChar: uni0042
Encoding: 66 66 66
Width: 819
VWidth: 0
Flags: HW
LayerCount: 2
Fore
SplineSet
102 0 m 1
 102 101 l 1
 717 101 l 1
 717 0 l 1
 102 0 l 1
102 102 m 1
 102 204 l 1
 205 204 l 1
 205 102 l 1
 102 102 l 1
717 102 m 1
 717 204 l 1
 819 204 l 1
 819 102 l 1
 717 102 l 1
102 205 m 1
 102 306 l 1
 205 306 l 1
 205 205 l 1
 102 205 l 1
717 205 m 1
 717 306 l 1
 819 306 l 1
 819 205 l 1
 717 205 l 1
102 307 m 1
 102 409 l 1
 205 409 l 1
 205 307 l 1
 102 307 l 1
717 307 m 1
 717 409 l 1
 819 409 l 1
 819 307 l 1
 717 307 l 1
102 410 m 1
 102 511 l 1
 205 511 l 1
 205 410 l 1
 102 410 l 1
717 410 m 1
 717 511 l 1
 819 511 l 1
 819 410 l 1
 717 410 l 1
102 512 m 1
 102 613 l 1
 717 613 l 1
 717 512 l 1
 102 512 l 1
102 614 m 1
 102 716 l 1
 205 716 l 1
 205 614 l 1
 102 614 l 1
717 614 m 1
 717 716 l 1
 819 716 l 1
 819 614 l 1
 717 614 l 1
102 717 m 1
 102 818 l 1
 205 818 l 1
 205 717 l 1
 102 717 l 1
717 717 m 1
 717 818 l 1
 819 818 l 1
 819 717 l 1
 717 717 l 1
102 819 m 1
 102 921 l 1
 205 921 l 1
 205 819 l 1
 102 819 l 1
717 819 m 1
 717 921 l 1
 819 921 l 1
 819 819 l 1
 717 819 l 1
102 922 m 1
 102 1023 l 1
 205 1023 l 1
 205 922 l 1
 102 922 l 1
717 922 m 1
 717 1023 l 1
 819 1023 l 1
 819 922 l 1
 717 922 l 1
102 1024 m 1
 102 1125 l 1
 717 1125 l 1
 717 1024 l 1
 102 1024 l 1
EndSplineSet
EndChar

StartChar: uni0043
Encoding: 67 67 67
Width: 819
VWidth: 0
Flags: HW
LayerCount: 2
Fore
SplineSet
307 0 m 1
 307 101 l 1
 717 101 l 1
 717 0 l 1
 307 0 l 1
205 102 m 1
 205 204 l 1
 307 204 l 1
 307 102 l 1
 205 102 l 1
717 102 m 1
 717 204 l 1
 819 204 l 1
 819 102 l 1
 717 102 l 1
102 205 m 1
 102 306 l 1
 205 306 l 1
 205 205 l 1
 102 205 l 1
102 307 m 1
 102 409 l 1
 205 409 l 1
 205 307 l 1
 102 307 l 1
102 410 m 1
 102 511 l 1
 205 511 l 1
 205 410 l 1
 102 410 l 1
102 512 m 1
 102 613 l 1
 205 613 l 1
 205 512 l 1
 102 512 l 1
102 614 m 1
 102 716 l 1
 205 716 l 1
 205 614 l 1
 102 614 l 1
102 717 m 1
 102 818 l 1
 205 818 l 1
 205 717 l 1
 102 717 l 1
102 819 m 1
 102 921 l 1
 205 921 l 1
 205 819 l 1
 102 819 l 1
205 922 m 1
 205 1023 l 1
 307 1023 l 1
 307 922 l 1
 205 922 l 1
717 922 m 1
 717 1023 l 1
 819 1023 l 1
 819 922 l 1
 717 922 l 1
307 1024 m 1
 307 1125 l 1
 717 1125 l 1
 717 1024 l 1
 307 1024 l 1
EndSplineSet
EndChar

StartChar: uni0044
Encoding: 68 68 68
Width: 819
VWidth: 0
Flags: HW
LayerCount: 2
Fore
SplineSet
102 0 m 1
 102 101 l 1
 614 101 l 1
 614 0 l 1
 102 0 l 1
102 102 m 1
 102 204 l 1
 205 204 l 1
 205 102 l 1
 102 102 l 1
614 102 m 1
 614 204 l 1
 717 204 l 1
 717 102 l 1
 614 102 l 1
102 205 m 1
 102 306 l 1
 205 306 l 1
 205 205 l 1
 102 205 l 1
717 205 m 1
 717 306 l 1
 819 306 l 1
 819 205 l 1
 717 205 l 1
102 307 m 1
 102 409 l 1
 205 409 l 1
 205 307 l 1
 102 307 l 1
717 307 m 1
 717 409 l 1
 819 409 l 1
 819 307 l 1
 717 307 l 1
102 410 m 1
 102 511 l 1
 205 511 l 1
 205 410 l 1
 102 410 l 1
717 410 m 1
 717 511 l 1
 819 511 l 1
 819 410 l 1
 717 410 l 1
102 512 m 1
 102 613 l 1
 205 613 l 1
 205 512 l 1
 102 512 l 1
717 512 m 1
 717 613 l 1
 819 613 l 1
 819 512 l 1
 717 512 l 1
102 614 m 1
 102 716 l 1
 205 716 l 1
 205 614 l 1
 102 614 l 1
717 614 m 1
 717 716 l 1
 819 716 l 1
 819 614 l 1
 717 614 l 1
102 717 m 1
 102 818 l 1
 205 818 l 1
 205 717 l 1
 102 717 l 1
717 717 m 1
 717 818 l 1
 819 818 l 1
 819 717 l 1
 717 717 l 1
102 819 m 1
 102 921 l 1
 205 921 l 1
 205 819 l 1
 102 819 l 1
717 819 m 1
 717 921 l 1
 819 921 l 1
 819 819 l 1
 717 819 l 1
102 922 m 1
 102 1023 l 1
 205 1023 l 1
 205 922 l 1
 102 922 l 1
614 922 m 1
 614 1023 l 1
 717 1023 l 1
 717 922 l 1
 614 922 l 1
102 1024 m 1
 102 1125 l 1
 614 1125 l 1
 614 1024 l 1
 102 1024 l 1
EndSplineSet
EndChar

StartChar: uni0045
Encoding: 69 69 69
Width: 819
VWidth: 0
Flags: HW
LayerCount: 2
Fore
SplineSet
205 0 m 1
 205 101 l 1
 819 101 l 1
 819 0 l 1
 205 0 l 1
205 102 m 1
 205 204 l 1
 307 204 l 1
 307 102 l 1
 205 102 l 1
205 205 m 1
 205 306 l 1
 307 306 l 1
 307 205 l 1
 205 205 l 1
205 307 m 1
 205 409 l 1
 307 409 l 1
 307 307 l 1
 205 307 l 1
205 410 m 1
 205 511 l 1
 307 511 l 1
 307 410 l 1
 205 410 l 1
205 512 m 1
 205 613 l 1
 614 613 l 1
 614 512 l 1
 205 512 l 1
205 614 m 1
 205 716 l 1
 307 716 l 1
 307 614 l 1
 205 614 l 1
205 717 m 1
 205 818 l 1
 307 818 l 1
 307 717 l 1
 205 717 l 1
205 819 m 1
 205 921 l 1
 307 921 l 1
 307 819 l 1
 205 819 l 1
205 922 m 1
 205 1023 l 1
 307 1023 l 1
 307 922 l 1
 205 922 l 1
205 1024 m 1
 205 1125 l 1
 819 1125 l 1
 819 1024 l 1
 205 1024 l 1
EndSplineSet
EndChar

StartChar: uni0046
Encoding: 70 70 70
Width: 819
VWidth: 0
Flags: HW
LayerCount: 2
Fore
SplineSet
205 0 m 1
 205 101 l 1
 307 101 l 1
 307 0 l 1
 205 0 l 1
205 102 m 1
 205 204 l 1
 307 204 l 1
 307 102 l 1
 205 102 l 1
205 205 m 1
 205 306 l 1
 307 306 l 1
 307 205 l 1
 205 205 l 1
205 307 m 1
 205 409 l 1
 307 409 l 1
 307 307 l 1
 205 307 l 1
205 410 m 1
 205 511 l 1
 307 511 l 1
 307 410 l 1
 205 410 l 1
205 512 m 1
 205 613 l 1
 614 613 l 1
 614 512 l 1
 205 512 l 1
205 614 m 1
 205 716 l 1
 307 716 l 1
 307 614 l 1
 205 614 l 1
205 717 m 1
 205 818 l 1
 307 818 l 1
 307 717 l 1
 205 717 l 1
205 819 m 1
 205 921 l 1
 307 921 l 1
 307 819 l 1
 205 819 l 1
205 922 m 1
 205 1023 l 1
 307 1023 l 1
 307 922 l 1
 205 922 l 1
205 1024 m 1
 205 1125 l 1
 819 1125 l 1
 819 1024 l 1
 205 1024 l 1
EndSplineSet
EndChar

StartChar: uni0047
Encoding: 71 71 71
Width: 819
VWidth: 0
Flags: HW
LayerCount: 2
Fore
SplineSet
307 0 m 1
 307 101 l 1
 717 101 l 1
 717 0 l 1
 307 0 l 1
205 102 m 1
 205 204 l 1
 307 204 l 1
 307 102 l 1
 205 102 l 1
717 102 m 1
 717 204 l 1
 819 204 l 1
 819 102 l 1
 717 102 l 1
102 205 m 1
 102 306 l 1
 205 306 l 1
 205 205 l 1
 102 205 l 1
717 205 m 1
 717 306 l 1
 819 306 l 1
 819 205 l 1
 717 205 l 1
102 307 m 1
 102 409 l 1
 205 409 l 1
 205 307 l 1
 102 307 l 1
717 307 m 1
 717 409 l 1
 819 409 l 1
 819 307 l 1
 717 307 l 1
102 410 m 1
 102 511 l 1
 205 511 l 1
 205 410 l 1
 102 410 l 1
102 512 m 1
 102 613 l 1
 205 613 l 1
 205 512 l 1
 102 512 l 1
410 512 m 1
 410 613 l 1
 819 613 l 1
 819 512 l 1
 410 512 l 1
102 614 m 1
 102 716 l 1
 205 716 l 1
 205 614 l 1
 102 614 l 1
102 717 m 1
 102 818 l 1
 205 818 l 1
 205 717 l 1
 102 717 l 1
102 819 m 1
 102 921 l 1
 205 921 l 1
 205 819 l 1
 102 819 l 1
205 922 m 1
 205 1023 l 1
 307 1023 l 1
 307 922 l 1
 205 922 l 1
717 922 m 1
 717 1023 l 1
 819 1023 l 1
 819 922 l 1
 717 922 l 1
307 1024 m 1
 307 1125 l 1
 717 1125 l 1
 717 1024 l 1
 307 1024 l 1
EndSplineSet
EndChar

StartChar: uni0048
Encoding: 72 72 72
Width: 819
VWidth: 0
Flags: HW
LayerCount: 2
Fore
SplineSet
102 0 m 1
 102 101 l 1
 205 101 l 1
 205 0 l 1
 102 0 l 1
614 0 m 1
 614 101 l 1
 717 101 l 1
 717 0 l 1
 614 0 l 1
102 102 m 1
 102 204 l 1
 205 204 l 1
 205 102 l 1
 102 102 l 1
614 102 m 1
 614 204 l 1
 717 204 l 1
 717 102 l 1
 614 102 l 1
102 205 m 1
 102 306 l 1
 205 306 l 1
 205 205 l 1
 102 205 l 1
614 205 m 1
 614 306 l 1
 717 306 l 1
 717 205 l 1
 614 205 l 1
102 307 m 1
 102 409 l 1
 205 409 l 1
 205 307 l 1
 102 307 l 1
614 307 m 1
 614 409 l 1
 717 409 l 1
 717 307 l 1
 614 307 l 1
102 410 m 1
 102 511 l 1
 205 511 l 1
 205 410 l 1
 102 410 l 1
614 410 m 1
 614 511 l 1
 717 511 l 1
 717 410 l 1
 614 410 l 1
102 512 m 1
 102 613 l 1
 717 613 l 1
 717 512 l 1
 102 512 l 1
102 614 m 1
 102 716 l 1
 205 716 l 1
 205 614 l 1
 102 614 l 1
614 614 m 1
 614 716 l 1
 717 716 l 1
 717 614 l 1
 614 614 l 1
102 717 m 1
 102 818 l 1
 205 818 l 1
 205 717 l 1
 102 717 l 1
614 717 m 1
 614 818 l 1
 717 818 l 1
 717 717 l 1
 614 717 l 1
102 819 m 1
 102 921 l 1
 205 921 l 1
 205 819 l 1
 102 819 l 1
614 819 m 1
 614 921 l 1
 717 921 l 1
 717 819 l 1
 614 819 l 1
102 922 m 1
 102 1023 l 1
 205 1023 l 1
 205 922 l 1
 102 922 l 1
614 922 m 1
 614 1023 l 1
 717 1023 l 1
 717 922 l 1
 614 922 l 1
102 1024 m 1
 102 1125 l 1
 205 1125 l 1
 205 1024 l 1
 102 1024 l 1
614 1024 m 1
 614 1125 l 1
 717 1125 l 1
 717 1024 l 1
 614 1024 l 1
EndSplineSet
EndChar

StartChar: uni0049
Encoding: 73 73 73
Width: 819
VWidth: 0
Flags: HW
LayerCount: 2
Fore
SplineSet
307 0 m 1
 307 101 l 1
 614 101 l 1
 614 0 l 1
 307 0 l 1
410 102 m 1
 410 204 l 1
 512 204 l 1
 512 102 l 1
 410 102 l 1
410 205 m 1
 410 306 l 1
 512 306 l 1
 512 205 l 1
 410 205 l 1
410 307 m 1
 410 409 l 1
 512 409 l 1
 512 307 l 1
 410 307 l 1
410 410 m 1
 410 511 l 1
 512 511 l 1
 512 410 l 1
 410 410 l 1
410 512 m 1
 410 613 l 1
 512 613 l 1
 512 512 l 1
 410 512 l 1
410 614 m 1
 410 716 l 1
 512 716 l 1
 512 614 l 1
 410 614 l 1
410 717 m 1
 410 818 l 1
 512 818 l 1
 512 717 l 1
 410 717 l 1
410 819 m 1
 410 921 l 1
 512 921 l 1
 512 819 l 1
 410 819 l 1
410 922 m 1
 410 1023 l 1
 512 1023 l 1
 512 922 l 1
 410 922 l 1
307 1024 m 1
 307 1125 l 1
 614 1125 l 1
 614 1024 l 1
 307 1024 l 1
EndSplineSet
EndChar

StartChar: uni004A
Encoding: 74 74 74
Width: 819
VWidth: 0
Flags: HW
LayerCount: 2
Fore
SplineSet
205 0 m 1
 205 101 l 1
 512 101 l 1
 512 0 l 1
 205 0 l 1
102 102 m 1
 102 204 l 1
 205 204 l 1
 205 102 l 1
 102 102 l 1
512 102 m 1
 512 204 l 1
 614 204 l 1
 614 102 l 1
 512 102 l 1
512 205 m 1
 512 306 l 1
 614 306 l 1
 614 205 l 1
 512 205 l 1
512 307 m 1
 512 409 l 1
 614 409 l 1
 614 307 l 1
 512 307 l 1
512 410 m 1
 512 511 l 1
 614 511 l 1
 614 410 l 1
 512 410 l 1
512 512 m 1
 512 613 l 1
 614 613 l 1
 614 512 l 1
 512 512 l 1
512 614 m 1
 512 716 l 1
 614 716 l 1
 614 614 l 1
 512 614 l 1
512 717 m 1
 512 818 l 1
 614 818 l 1
 614 717 l 1
 512 717 l 1
512 819 m 1
 512 921 l 1
 614 921 l 1
 614 819 l 1
 512 819 l 1
512 922 m 1
 512 1023 l 1
 614 1023 l 1
 614 922 l 1
 512 922 l 1
512 1024 m 1
 512 1125 l 1
 614 1125 l 1
 614 1024 l 1
 512 1024 l 1
EndSplineSet
EndChar

StartChar: uni004B
Encoding: 75 75 75
Width: 819
VWidth: 0
Flags: HW
LayerCount: 2
Fore
SplineSet
205 0 m 1
 205 101 l 1
 307 101 l 1
 307 0 l 1
 205 0 l 1
717 0 m 1
 717 101 l 1
 819 101 l 1
 819 0 l 1
 717 0 l 1
205 102 m 1
 205 204 l 1
 307 204 l 1
 307 102 l 1
 205 102 l 1
614 102 m 1
 614 204 l 1
 717 204 l 1
 717 102 l 1
 614 102 l 1
205 205 m 1
 205 306 l 1
 307 306 l 1
 307 205 l 1
 205 205 l 1
512 205 m 1
 512 306 l 1
 614 306 l 1
 614 205 l 1
 512 205 l 1
205 307 m 1
 205 409 l 1
 307 409 l 1
 307 307 l 1
 205 307 l 1
410 307 m 1
 410 409 l 1
 512 409 l 1
 512 307 l 1
 410 307 l 1
205 410 m 1
 205 511 l 1
 410 511 l 1
 410 410 l 1
 205 410 l 1
205 512 m 1
 205 613 l 1
 307 613 l 1
 307 512 l 1
 205 512 l 1
205 614 m 1
 205 716 l 1
 410 716 l 1
 410 614 l 1
 205 614 l 1
205 717 m 1
 205 818 l 1
 307 818 l 1
 307 717 l 1
 205 717 l 1
410 717 m 1
 410 818 l 1
 512 818 l 1
 512 717 l 1
 410 717 l 1
205 819 m 1
 205 921 l 1
 307 921 l 1
 307 819 l 1
 205 819 l 1
512 819 m 1
 512 921 l 1
 614 921 l 1
 614 819 l 1
 512 819 l 1
205 922 m 1
 205 1023 l 1
 307 1023 l 1
 307 922 l 1
 205 922 l 1
614 922 m 1
 614 1023 l 1
 717 1023 l 1
 717 922 l 1
 614 922 l 1
205 1024 m 1
 205 1125 l 1
 307 1125 l 1
 307 1024 l 1
 205 1024 l 1
717 1024 m 1
 717 1125 l 1
 819 1125 l 1
 819 1024 l 1
 717 1024 l 1
EndSplineSet
EndChar

StartChar: uni004C
Encoding: 76 76 76
Width: 819
VWidth: 0
Flags: HW
LayerCount: 2
Fore
SplineSet
205 0 m 1
 205 101 l 1
 717 101 l 1
 717 0 l 1
 205 0 l 1
205 102 m 1
 205 204 l 1
 307 204 l 1
 307 102 l 1
 205 102 l 1
205 205 m 1
 205 306 l 1
 307 306 l 1
 307 205 l 1
 205 205 l 1
205 307 m 1
 205 409 l 1
 307 409 l 1
 307 307 l 1
 205 307 l 1
205 410 m 1
 205 511 l 1
 307 511 l 1
 307 410 l 1
 205 410 l 1
205 512 m 1
 205 613 l 1
 307 613 l 1
 307 512 l 1
 205 512 l 1
205 614 m 1
 205 716 l 1
 307 716 l 1
 307 614 l 1
 205 614 l 1
205 717 m 1
 205 818 l 1
 307 818 l 1
 307 717 l 1
 205 717 l 1
205 819 m 1
 205 921 l 1
 307 921 l 1
 307 819 l 1
 205 819 l 1
205 922 m 1
 205 1023 l 1
 307 1023 l 1
 307 922 l 1
 205 922 l 1
205 1024 m 1
 205 1125 l 1
 307 1125 l 1
 307 1024 l 1
 205 1024 l 1
EndSplineSet
EndChar

StartChar: uni004D
Encoding: 77 77 77
Width: 819
VWidth: 0
Flags: HW
LayerCount: 2
Fore
SplineSet
102 0 m 1
 102 101 l 1
 205 101 l 1
 205 0 l 1
 102 0 l 1
717 0 m 1
 717 101 l 1
 819 101 l 1
 819 0 l 1
 717 0 l 1
102 102 m 1
 102 204 l 1
 205 204 l 1
 205 102 l 1
 102 102 l 1
717 102 m 1
 717 204 l 1
 819 204 l 1
 819 102 l 1
 717 102 l 1
102 205 m 1
 102 306 l 1
 205 306 l 1
 205 205 l 1
 102 205 l 1
717 205 m 1
 717 306 l 1
 819 306 l 1
 819 205 l 1
 717 205 l 1
102 307 m 1
 102 409 l 1
 205 409 l 1
 205 307 l 1
 102 307 l 1
717 307 m 1
 717 409 l 1
 819 409 l 1
 819 307 l 1
 717 307 l 1
102 410 m 1
 102 511 l 1
 205 511 l 1
 205 410 l 1
 102 410 l 1
717 410 m 1
 717 511 l 1
 819 511 l 1
 819 410 l 1
 717 410 l 1
102 512 m 1
 102 613 l 1
 205 613 l 1
 205 512 l 1
 102 512 l 1
410 512 m 1
 410 613 l 1
 512 613 l 1
 512 512 l 1
 410 512 l 1
717 512 m 1
 717 613 l 1
 819 613 l 1
 819 512 l 1
 717 512 l 1
102 614 m 1
 102 716 l 1
 205 716 l 1
 205 614 l 1
 102 614 l 1
410 614 m 1
 410 716 l 1
 512 716 l 1
 512 614 l 1
 410 614 l 1
717 614 m 1
 717 716 l 1
 819 716 l 1
 819 614 l 1
 717 614 l 1
102 717 m 1
 102 818 l 1
 205 818 l 1
 205 717 l 1
 102 717 l 1
307 717 m 1
 307 818 l 1
 410 818 l 1
 410 717 l 1
 307 717 l 1
512 717 m 1
 512 818 l 1
 614 818 l 1
 614 717 l 1
 512 717 l 1
717 717 m 1
 717 818 l 1
 819 818 l 1
 819 717 l 1
 717 717 l 1
102 819 m 1
 102 921 l 1
 307 921 l 1
 307 819 l 1
 102 819 l 1
614 819 m 1
 614 921 l 1
 819 921 l 1
 819 819 l 1
 614 819 l 1
102 922 m 1
 102 1023 l 1
 205 1023 l 1
 205 922 l 1
 102 922 l 1
717 922 m 1
 717 1023 l 1
 819 1023 l 1
 819 922 l 1
 717 922 l 1
102 1024 m 1
 102 1125 l 1
 205 1125 l 1
 205 1024 l 1
 102 1024 l 1
717 1024 m 1
 717 1125 l 1
 819 1125 l 1
 819 1024 l 1
 717 1024 l 1
EndSplineSet
EndChar

StartChar: uni004E
Encoding: 78 78 78
Width: 819
VWidth: 0
Flags: HW
LayerCount: 2
Fore
SplineSet
102 0 m 1
 102 101 l 1
 205 101 l 1
 205 0 l 1
 102 0 l 1
614 0 m 1
 614 101 l 1
 717 101 l 1
 717 0 l 1
 614 0 l 1
102 102 m 1
 102 204 l 1
 205 204 l 1
 205 102 l 1
 102 102 l 1
614 102 m 1
 614 204 l 1
 717 204 l 1
 717 102 l 1
 614 102 l 1
102 205 m 1
 102 306 l 1
 205 306 l 1
 205 205 l 1
 102 205 l 1
614 205 m 1
 614 306 l 1
 717 306 l 1
 717 205 l 1
 614 205 l 1
102 307 m 1
 102 409 l 1
 205 409 l 1
 205 307 l 1
 102 307 l 1
614 307 m 1
 614 409 l 1
 717 409 l 1
 717 307 l 1
 614 307 l 1
102 410 m 1
 102 511 l 1
 205 511 l 1
 205 410 l 1
 102 410 l 1
512 410 m 1
 512 511 l 1
 717 511 l 1
 717 410 l 1
 512 410 l 1
102 512 m 1
 102 613 l 1
 205 613 l 1
 205 512 l 1
 102 512 l 1
410 512 m 1
 410 613 l 1
 512 613 l 1
 512 512 l 1
 410 512 l 1
614 512 m 1
 614 613 l 1
 717 613 l 1
 717 512 l 1
 614 512 l 1
102 614 m 1
 102 716 l 1
 205 716 l 1
 205 614 l 1
 102 614 l 1
307 614 m 1
 307 716 l 1
 410 716 l 1
 410 614 l 1
 307 614 l 1
614 614 m 1
 614 716 l 1
 717 716 l 1
 717 614 l 1
 614 614 l 1
102 717 m 1
 102 818 l 1
 307 818 l 1
 307 717 l 1
 102 717 l 1
614 717 m 1
 614 818 l 1
 717 818 l 1
 717 717 l 1
 614 717 l 1
102 819 m 1
 102 921 l 1
 205 921 l 1
 205 819 l 1
 102 819 l 1
614 819 m 1
 614 921 l 1
 717 921 l 1
 717 819 l 1
 614 819 l 1
102 922 m 1
 102 1023 l 1
 205 1023 l 1
 205 922 l 1
 102 922 l 1
614 922 m 1
 614 1023 l 1
 717 1023 l 1
 717 922 l 1
 614 922 l 1
102 1024 m 1
 102 1125 l 1
 205 1125 l 1
 205 1024 l 1
 102 1024 l 1
614 1024 m 1
 614 1125 l 1
 717 1125 l 1
 717 1024 l 1
 614 1024 l 1
EndSplineSet
EndChar

StartChar: uni004F
Encoding: 79 79 79
Width: 819
VWidth: 0
Flags: HW
LayerCount: 2
Fore
SplineSet
307 0 m 1
 307 101 l 1
 614 101 l 1
 614 0 l 1
 307 0 l 1
205 102 m 1
 205 204 l 1
 307 204 l 1
 307 102 l 1
 205 102 l 1
614 102 m 1
 614 204 l 1
 717 204 l 1
 717 102 l 1
 614 102 l 1
102 205 m 1
 102 306 l 1
 205 306 l 1
 205 205 l 1
 102 205 l 1
717 205 m 1
 717 306 l 1
 819 306 l 1
 819 205 l 1
 717 205 l 1
102 307 m 1
 102 409 l 1
 205 409 l 1
 205 307 l 1
 102 307 l 1
717 307 m 1
 717 409 l 1
 819 409 l 1
 819 307 l 1
 717 307 l 1
102 410 m 1
 102 511 l 1
 205 511 l 1
 205 410 l 1
 102 410 l 1
717 410 m 1
 717 511 l 1
 819 511 l 1
 819 410 l 1
 717 410 l 1
102 512 m 1
 102 613 l 1
 205 613 l 1
 205 512 l 1
 102 512 l 1
717 512 m 1
 717 613 l 1
 819 613 l 1
 819 512 l 1
 717 512 l 1
102 614 m 1
 102 716 l 1
 205 716 l 1
 205 614 l 1
 102 614 l 1
717 614 m 1
 717 716 l 1
 819 716 l 1
 819 614 l 1
 717 614 l 1
102 717 m 1
 102 818 l 1
 205 818 l 1
 205 717 l 1
 102 717 l 1
717 717 m 1
 717 818 l 1
 819 818 l 1
 819 717 l 1
 717 717 l 1
102 819 m 1
 102 921 l 1
 205 921 l 1
 205 819 l 1
 102 819 l 1
717 819 m 1
 717 921 l 1
 819 921 l 1
 819 819 l 1
 717 819 l 1
205 922 m 1
 205 1023 l 1
 307 1023 l 1
 307 922 l 1
 205 922 l 1
614 922 m 1
 614 1023 l 1
 717 1023 l 1
 717 922 l 1
 614 922 l 1
307 1024 m 1
 307 1125 l 1
 614 1125 l 1
 614 1024 l 1
 307 1024 l 1
EndSplineSet
EndChar

StartChar: uni0050
Encoding: 80 80 80
Width: 819
VWidth: 0
Flags: HW
LayerCount: 2
Fore
SplineSet
102 0 m 1
 102 101 l 1
 205 101 l 1
 205 0 l 1
 102 0 l 1
102 102 m 1
 102 204 l 1
 205 204 l 1
 205 102 l 1
 102 102 l 1
102 205 m 1
 102 306 l 1
 205 306 l 1
 205 205 l 1
 102 205 l 1
102 307 m 1
 102 409 l 1
 205 409 l 1
 205 307 l 1
 102 307 l 1
102 410 m 1
 102 511 l 1
 205 511 l 1
 205 410 l 1
 102 410 l 1
102 512 m 1
 102 613 l 1
 717 613 l 1
 717 512 l 1
 102 512 l 1
102 614 m 1
 102 716 l 1
 205 716 l 1
 205 614 l 1
 102 614 l 1
717 614 m 1
 717 716 l 1
 819 716 l 1
 819 614 l 1
 717 614 l 1
102 717 m 1
 102 818 l 1
 205 818 l 1
 205 717 l 1
 102 717 l 1
717 717 m 1
 717 818 l 1
 819 818 l 1
 819 717 l 1
 717 717 l 1
102 819 m 1
 102 921 l 1
 205 921 l 1
 205 819 l 1
 102 819 l 1
717 819 m 1
 717 921 l 1
 819 921 l 1
 819 819 l 1
 717 819 l 1
102 922 m 1
 102 1023 l 1
 205 1023 l 1
 205 922 l 1
 102 922 l 1
717 922 m 1
 717 1023 l 1
 819 1023 l 1
 819 922 l 1
 717 922 l 1
102 1024 m 1
 102 1125 l 1
 717 1125 l 1
 717 1024 l 1
 102 1024 l 1
EndSplineSet
EndChar

StartChar: uni0051
Encoding: 81 81 81
Width: 819
VWidth: 0
Flags: HW
LayerCount: 2
Fore
SplineSet
307 0 m 1
 307 101 l 1
 614 101 l 1
 614 0 l 1
 307 0 l 1
717 0 m 1
 717 101 l 1
 819 101 l 1
 819 0 l 1
 717 0 l 1
205 102 m 1
 205 204 l 1
 307 204 l 1
 307 102 l 1
 205 102 l 1
614 102 m 1
 614 204 l 1
 717 204 l 1
 717 102 l 1
 614 102 l 1
102 205 m 1
 102 306 l 1
 205 306 l 1
 205 205 l 1
 102 205 l 1
512 205 m 1
 512 306 l 1
 614 306 l 1
 614 205 l 1
 512 205 l 1
717 205 m 1
 717 306 l 1
 819 306 l 1
 819 205 l 1
 717 205 l 1
102 307 m 1
 102 409 l 1
 205 409 l 1
 205 307 l 1
 102 307 l 1
410 307 m 1
 410 409 l 1
 512 409 l 1
 512 307 l 1
 410 307 l 1
717 307 m 1
 717 409 l 1
 819 409 l 1
 819 307 l 1
 717 307 l 1
102 410 m 1
 102 511 l 1
 205 511 l 1
 205 410 l 1
 102 410 l 1
717 410 m 1
 717 511 l 1
 819 511 l 1
 819 410 l 1
 717 410 l 1
102 512 m 1
 102 613 l 1
 205 613 l 1
 205 512 l 1
 102 512 l 1
717 512 m 1
 717 613 l 1
 819 613 l 1
 819 512 l 1
 717 512 l 1
102 614 m 1
 102 716 l 1
 205 716 l 1
 205 614 l 1
 102 614 l 1
717 614 m 1
 717 716 l 1
 819 716 l 1
 819 614 l 1
 717 614 l 1
102 717 m 1
 102 818 l 1
 205 818 l 1
 205 717 l 1
 102 717 l 1
717 717 m 1
 717 818 l 1
 819 818 l 1
 819 717 l 1
 717 717 l 1
102 819 m 1
 102 921 l 1
 205 921 l 1
 205 819 l 1
 102 819 l 1
717 819 m 1
 717 921 l 1
 819 921 l 1
 819 819 l 1
 717 819 l 1
205 922 m 1
 205 1023 l 1
 307 1023 l 1
 307 922 l 1
 205 922 l 1
614 922 m 1
 614 1023 l 1
 717 1023 l 1
 717 922 l 1
 614 922 l 1
307 1024 m 1
 307 1125 l 1
 614 1125 l 1
 614 1024 l 1
 307 1024 l 1
EndSplineSet
EndChar

StartChar: uni0052
Encoding: 82 82 82
Width: 819
VWidth: 0
Flags: HW
LayerCount: 2
Fore
SplineSet
102 0 m 1
 102 101 l 1
 205 101 l 1
 205 0 l 1
 102 0 l 1
717 0 m 1
 717 101 l 1
 819 101 l 1
 819 0 l 1
 717 0 l 1
102 102 m 1
 102 204 l 1
 205 204 l 1
 205 102 l 1
 102 102 l 1
614 102 m 1
 614 204 l 1
 717 204 l 1
 717 102 l 1
 614 102 l 1
102 205 m 1
 102 306 l 1
 205 306 l 1
 205 205 l 1
 102 205 l 1
512 205 m 1
 512 306 l 1
 614 306 l 1
 614 205 l 1
 512 205 l 1
102 307 m 1
 102 409 l 1
 205 409 l 1
 205 307 l 1
 102 307 l 1
410 307 m 1
 410 409 l 1
 512 409 l 1
 512 307 l 1
 410 307 l 1
102 410 m 1
 102 511 l 1
 205 511 l 1
 205 410 l 1
 102 410 l 1
307 410 m 1
 307 511 l 1
 410 511 l 1
 410 410 l 1
 307 410 l 1
102 512 m 1
 102 613 l 1
 717 613 l 1
 717 512 l 1
 102 512 l 1
102 614 m 1
 102 716 l 1
 205 716 l 1
 205 614 l 1
 102 614 l 1
717 614 m 1
 717 716 l 1
 819 716 l 1
 819 614 l 1
 717 614 l 1
102 717 m 1
 102 818 l 1
 205 818 l 1
 205 717 l 1
 102 717 l 1
717 717 m 1
 717 818 l 1
 819 818 l 1
 819 717 l 1
 717 717 l 1
102 819 m 1
 102 921 l 1
 205 921 l 1
 205 819 l 1
 102 819 l 1
717 819 m 1
 717 921 l 1
 819 921 l 1
 819 819 l 1
 717 819 l 1
102 922 m 1
 102 1023 l 1
 205 1023 l 1
 205 922 l 1
 102 922 l 1
717 922 m 1
 717 1023 l 1
 819 1023 l 1
 819 922 l 1
 717 922 l 1
102 1024 m 1
 102 1125 l 1
 717 1125 l 1
 717 1024 l 1
 102 1024 l 1
EndSplineSet
EndChar

StartChar: uni0053
Encoding: 83 83 83
Width: 819
VWidth: 0
Flags: HW
LayerCount: 2
Fore
SplineSet
205 0 m 1
 205 101 l 1
 717 101 l 1
 717 0 l 1
 205 0 l 1
102 102 m 1
 102 204 l 1
 205 204 l 1
 205 102 l 1
 102 102 l 1
717 102 m 1
 717 204 l 1
 819 204 l 1
 819 102 l 1
 717 102 l 1
717 205 m 1
 717 306 l 1
 819 306 l 1
 819 205 l 1
 717 205 l 1
717 307 m 1
 717 409 l 1
 819 409 l 1
 819 307 l 1
 717 307 l 1
717 410 m 1
 717 511 l 1
 819 511 l 1
 819 410 l 1
 717 410 l 1
205 512 m 1
 205 613 l 1
 717 613 l 1
 717 512 l 1
 205 512 l 1
102 614 m 1
 102 716 l 1
 205 716 l 1
 205 614 l 1
 102 614 l 1
102 717 m 1
 102 818 l 1
 205 818 l 1
 205 717 l 1
 102 717 l 1
102 819 m 1
 102 921 l 1
 205 921 l 1
 205 819 l 1
 102 819 l 1
102 922 m 1
 102 1023 l 1
 205 1023 l 1
 205 922 l 1
 102 922 l 1
717 922 m 1
 717 1023 l 1
 819 1023 l 1
 819 922 l 1
 717 922 l 1
205 1024 m 1
 205 1125 l 1
 717 1125 l 1
 717 1024 l 1
 205 1024 l 1
EndSplineSet
EndChar

StartChar: uni0054
Encoding: 84 84 84
Width: 819
VWidth: 0
Flags: HW
LayerCount: 2
Fore
SplineSet
410 0 m 1
 410 101 l 1
 512 101 l 1
 512 0 l 1
 410 0 l 1
410 102 m 1
 410 204 l 1
 512 204 l 1
 512 102 l 1
 410 102 l 1
410 205 m 1
 410 306 l 1
 512 306 l 1
 512 205 l 1
 410 205 l 1
410 307 m 1
 410 409 l 1
 512 409 l 1
 512 307 l 1
 410 307 l 1
410 410 m 1
 410 511 l 1
 512 511 l 1
 512 410 l 1
 410 410 l 1
410 512 m 1
 410 613 l 1
 512 613 l 1
 512 512 l 1
 410 512 l 1
410 614 m 1
 410 716 l 1
 512 716 l 1
 512 614 l 1
 410 614 l 1
410 717 m 1
 410 818 l 1
 512 818 l 1
 512 717 l 1
 410 717 l 1
410 819 m 1
 410 921 l 1
 512 921 l 1
 512 819 l 1
 410 819 l 1
410 922 m 1
 410 1023 l 1
 512 1023 l 1
 512 922 l 1
 410 922 l 1
102 1024 m 1
 102 1125 l 1
 819 1125 l 1
 819 1024 l 1
 102 1024 l 1
EndSplineSet
EndChar

StartChar: uni0055
Encoding: 85 85 85
Width: 819
VWidth: 0
Flags: HW
LayerCount: 2
Fore
SplineSet
205 0 m 1
 205 101 l 1
 717 101 l 1
 717 0 l 1
 205 0 l 1
102 102 m 1
 102 204 l 1
 205 204 l 1
 205 102 l 1
 102 102 l 1
717 102 m 1
 717 204 l 1
 819 204 l 1
 819 102 l 1
 717 102 l 1
102 205 m 1
 102 306 l 1
 205 306 l 1
 205 205 l 1
 102 205 l 1
717 205 m 1
 717 306 l 1
 819 306 l 1
 819 205 l 1
 717 205 l 1
102 307 m 1
 102 409 l 1
 205 409 l 1
 205 307 l 1
 102 307 l 1
717 307 m 1
 717 409 l 1
 819 409 l 1
 819 307 l 1
 717 307 l 1
102 410 m 1
 102 511 l 1
 205 511 l 1
 205 410 l 1
 102 410 l 1
717 410 m 1
 717 511 l 1
 819 511 l 1
 819 410 l 1
 717 410 l 1
102 512 m 1
 102 613 l 1
 205 613 l 1
 205 512 l 1
 102 512 l 1
717 512 m 1
 717 613 l 1
 819 613 l 1
 819 512 l 1
 717 512 l 1
102 614 m 1
 102 716 l 1
 205 716 l 1
 205 614 l 1
 102 614 l 1
717 614 m 1
 717 716 l 1
 819 716 l 1
 819 614 l 1
 717 614 l 1
102 717 m 1
 102 818 l 1
 205 818 l 1
 205 717 l 1
 102 717 l 1
717 717 m 1
 717 818 l 1
 819 818 l 1
 819 717 l 1
 717 717 l 1
102 819 m 1
 102 921 l 1
 205 921 l 1
 205 819 l 1
 102 819 l 1
717 819 m 1
 717 921 l 1
 819 921 l 1
 819 819 l 1
 717 819 l 1
102 922 m 1
 102 1023 l 1
 205 1023 l 1
 205 922 l 1
 102 922 l 1
717 922 m 1
 717 1023 l 1
 819 1023 l 1
 819 922 l 1
 717 922 l 1
102 1024 m 1
 102 1125 l 1
 205 1125 l 1
 205 1024 l 1
 102 1024 l 1
717 1024 m 1
 717 1125 l 1
 819 1125 l 1
 819 1024 l 1
 717 1024 l 1
EndSplineSet
EndChar

StartChar: uni0056
Encoding: 86 86 86
Width: 819
VWidth: 0
Flags: HW
LayerCount: 2
Fore
SplineSet
410 0 m 1
 410 101 l 1
 512 101 l 1
 512 0 l 1
 410 0 l 1
410 102 m 1
 410 204 l 1
 512 204 l 1
 512 102 l 1
 410 102 l 1
307 205 m 1
 307 306 l 1
 410 306 l 1
 410 205 l 1
 307 205 l 1
512 205 m 1
 512 306 l 1
 614 306 l 1
 614 205 l 1
 512 205 l 1
307 307 m 1
 307 409 l 1
 410 409 l 1
 410 307 l 1
 307 307 l 1
512 307 m 1
 512 409 l 1
 614 409 l 1
 614 307 l 1
 512 307 l 1
205 410 m 1
 205 511 l 1
 307 511 l 1
 307 410 l 1
 205 410 l 1
614 410 m 1
 614 511 l 1
 717 511 l 1
 717 410 l 1
 614 410 l 1
205 512 m 1
 205 613 l 1
 307 613 l 1
 307 512 l 1
 205 512 l 1
614 512 m 1
 614 613 l 1
 717 613 l 1
 717 512 l 1
 614 512 l 1
102 614 m 1
 102 716 l 1
 205 716 l 1
 205 614 l 1
 102 614 l 1
717 614 m 1
 717 716 l 1
 819 716 l 1
 819 614 l 1
 717 614 l 1
102 717 m 1
 102 818 l 1
 205 818 l 1
 205 717 l 1
 102 717 l 1
717 717 m 1
 717 818 l 1
 819 818 l 1
 819 717 l 1
 717 717 l 1
102 819 m 1
 102 921 l 1
 205 921 l 1
 205 819 l 1
 102 819 l 1
717 819 m 1
 717 921 l 1
 819 921 l 1
 819 819 l 1
 717 819 l 1
102 922 m 1
 102 1023 l 1
 205 1023 l 1
 205 922 l 1
 102 922 l 1
717 922 m 1
 717 1023 l 1
 819 1023 l 1
 819 922 l 1
 717 922 l 1
102 1024 m 1
 102 1125 l 1
 205 1125 l 1
 205 1024 l 1
 102 1024 l 1
717 1024 m 1
 717 1125 l 1
 819 1125 l 1
 819 1024 l 1
 717 1024 l 1
EndSplineSet
EndChar

StartChar: uni0057
Encoding: 87 87 87
Width: 819
VWidth: 0
Flags: HW
LayerCount: 2
Fore
SplineSet
102 0 m 1
 102 101 l 1
 205 101 l 1
 205 0 l 1
 102 0 l 1
717 0 m 1
 717 101 l 1
 819 101 l 1
 819 0 l 1
 717 0 l 1
102 102 m 1
 102 204 l 1
 307 204 l 1
 307 102 l 1
 102 102 l 1
614 102 m 1
 614 204 l 1
 819 204 l 1
 819 102 l 1
 614 102 l 1
102 205 m 1
 102 306 l 1
 205 306 l 1
 205 205 l 1
 102 205 l 1
307 205 m 1
 307 306 l 1
 410 306 l 1
 410 205 l 1
 307 205 l 1
512 205 m 1
 512 306 l 1
 614 306 l 1
 614 205 l 1
 512 205 l 1
717 205 m 1
 717 306 l 1
 819 306 l 1
 819 205 l 1
 717 205 l 1
102 307 m 1
 102 409 l 1
 205 409 l 1
 205 307 l 1
 102 307 l 1
410 307 m 1
 410 409 l 1
 512 409 l 1
 512 307 l 1
 410 307 l 1
717 307 m 1
 717 409 l 1
 819 409 l 1
 819 307 l 1
 717 307 l 1
102 410 m 1
 102 511 l 1
 205 511 l 1
 205 410 l 1
 102 410 l 1
410 410 m 1
 410 511 l 1
 512 511 l 1
 512 410 l 1
 410 410 l 1
717 410 m 1
 717 511 l 1
 819 511 l 1
 819 410 l 1
 717 410 l 1
102 512 m 1
 102 613 l 1
 205 613 l 1
 205 512 l 1
 102 512 l 1
717 512 m 1
 717 613 l 1
 819 613 l 1
 819 512 l 1
 717 512 l 1
102 614 m 1
 102 716 l 1
 205 716 l 1
 205 614 l 1
 102 614 l 1
717 614 m 1
 717 716 l 1
 819 716 l 1
 819 614 l 1
 717 614 l 1
102 717 m 1
 102 818 l 1
 205 818 l 1
 205 717 l 1
 102 717 l 1
717 717 m 1
 717 818 l 1
 819 818 l 1
 819 717 l 1
 717 717 l 1
102 819 m 1
 102 921 l 1
 205 921 l 1
 205 819 l 1
 102 819 l 1
717 819 m 1
 717 921 l 1
 819 921 l 1
 819 819 l 1
 717 819 l 1
102 922 m 1
 102 1023 l 1
 205 1023 l 1
 205 922 l 1
 102 922 l 1
717 922 m 1
 717 1023 l 1
 819 1023 l 1
 819 922 l 1
 717 922 l 1
102 1024 m 1
 102 1125 l 1
 205 1125 l 1
 205 1024 l 1
 102 1024 l 1
717 1024 m 1
 717 1125 l 1
 819 1125 l 1
 819 1024 l 1
 717 1024 l 1
EndSplineSet
EndChar

StartChar: uni0058
Encoding: 88 88 88
Width: 819
VWidth: 0
Flags: HW
LayerCount: 2
Fore
SplineSet
102 0 m 1
 102 101 l 1
 205 101 l 1
 205 0 l 1
 102 0 l 1
717 0 m 1
 717 101 l 1
 819 101 l 1
 819 0 l 1
 717 0 l 1
102 102 m 1
 102 204 l 1
 205 204 l 1
 205 102 l 1
 102 102 l 1
717 102 m 1
 717 204 l 1
 819 204 l 1
 819 102 l 1
 717 102 l 1
205 205 m 1
 205 306 l 1
 307 306 l 1
 307 205 l 1
 205 205 l 1
614 205 m 1
 614 306 l 1
 717 306 l 1
 717 205 l 1
 614 205 l 1
205 307 m 1
 205 409 l 1
 307 409 l 1
 307 307 l 1
 205 307 l 1
614 307 m 1
 614 409 l 1
 717 409 l 1
 717 307 l 1
 614 307 l 1
307 410 m 1
 307 511 l 1
 410 511 l 1
 410 410 l 1
 307 410 l 1
512 410 m 1
 512 511 l 1
 614 511 l 1
 614 410 l 1
 512 410 l 1
410 512 m 1
 410 613 l 1
 512 613 l 1
 512 512 l 1
 410 512 l 1
307 614 m 1
 307 716 l 1
 410 716 l 1
 410 614 l 1
 307 614 l 1
512 614 m 1
 512 716 l 1
 614 716 l 1
 614 614 l 1
 512 614 l 1
205 717 m 1
 205 818 l 1
 307 818 l 1
 307 717 l 1
 205 717 l 1
614 717 m 1
 614 818 l 1
 717 818 l 1
 717 717 l 1
 614 717 l 1
205 819 m 1
 205 921 l 1
 307 921 l 1
 307 819 l 1
 205 819 l 1
614 819 m 1
 614 921 l 1
 717 921 l 1
 717 819 l 1
 614 819 l 1
102 922 m 1
 102 1023 l 1
 205 1023 l 1
 205 922 l 1
 102 922 l 1
717 922 m 1
 717 1023 l 1
 819 1023 l 1
 819 922 l 1
 717 922 l 1
102 1024 m 1
 102 1125 l 1
 205 1125 l 1
 205 1024 l 1
 102 1024 l 1
717 1024 m 1
 717 1125 l 1
 819 1125 l 1
 819 1024 l 1
 717 1024 l 1
EndSplineSet
EndChar

StartChar: uni0059
Encoding: 89 89 89
Width: 819
VWidth: 0
Flags: HW
LayerCount: 2
Fore
SplineSet
410 0 m 1
 410 101 l 1
 512 101 l 1
 512 0 l 1
 410 0 l 1
410 102 m 1
 410 204 l 1
 512 204 l 1
 512 102 l 1
 410 102 l 1
410 205 m 1
 410 306 l 1
 512 306 l 1
 512 205 l 1
 410 205 l 1
410 307 m 1
 410 409 l 1
 512 409 l 1
 512 307 l 1
 410 307 l 1
410 410 m 1
 410 511 l 1
 512 511 l 1
 512 410 l 1
 410 410 l 1
307 512 m 1
 307 613 l 1
 410 613 l 1
 410 512 l 1
 307 512 l 1
512 512 m 1
 512 613 l 1
 614 613 l 1
 614 512 l 1
 512 512 l 1
307 614 m 1
 307 716 l 1
 410 716 l 1
 410 614 l 1
 307 614 l 1
512 614 m 1
 512 716 l 1
 614 716 l 1
 614 614 l 1
 512 614 l 1
205 717 m 1
 205 818 l 1
 307 818 l 1
 307 717 l 1
 205 717 l 1
614 717 m 1
 614 818 l 1
 717 818 l 1
 717 717 l 1
 614 717 l 1
205 819 m 1
 205 921 l 1
 307 921 l 1
 307 819 l 1
 205 819 l 1
614 819 m 1
 614 921 l 1
 717 921 l 1
 717 819 l 1
 614 819 l 1
102 922 m 1
 102 1023 l 1
 205 1023 l 1
 205 922 l 1
 102 922 l 1
717 922 m 1
 717 1023 l 1
 819 1023 l 1
 819 922 l 1
 717 922 l 1
102 1024 m 1
 102 1125 l 1
 205 1125 l 1
 205 1024 l 1
 102 1024 l 1
717 1024 m 1
 717 1125 l 1
 819 1125 l 1
 819 1024 l 1
 717 1024 l 1
EndSplineSet
EndChar

StartChar: uni005A
Encoding: 90 90 90
Width: 819
VWidth: 0
Flags: HW
LayerCount: 2
Fore
SplineSet
102 0 m 1
 102 101 l 1
 819 101 l 1
 819 0 l 1
 102 0 l 1
102 102 m 1
 102 204 l 1
 205 204 l 1
 205 102 l 1
 102 102 l 1
102 205 m 1
 102 306 l 1
 205 306 l 1
 205 205 l 1
 102 205 l 1
205 307 m 1
 205 409 l 1
 307 409 l 1
 307 307 l 1
 205 307 l 1
307 410 m 1
 307 511 l 1
 410 511 l 1
 410 410 l 1
 307 410 l 1
410 512 m 1
 410 613 l 1
 512 613 l 1
 512 512 l 1
 410 512 l 1
512 614 m 1
 512 716 l 1
 614 716 l 1
 614 614 l 1
 512 614 l 1
614 717 m 1
 614 818 l 1
 717 818 l 1
 717 717 l 1
 614 717 l 1
717 819 m 1
 717 921 l 1
 819 921 l 1
 819 819 l 1
 717 819 l 1
717 922 m 1
 717 1023 l 1
 819 1023 l 1
 819 922 l 1
 717 922 l 1
102 1024 m 1
 102 1125 l 1
 819 1125 l 1
 819 1024 l 1
 102 1024 l 1
EndSplineSet
EndChar

StartChar: uni005B
Encoding: 91 91 91
Width: 819
VWidth: 0
Flags: HW
LayerCount: 2
Fore
SplineSet
205 0 m 1
 205 101 l 1
 614 101 l 1
 614 0 l 1
 205 0 l 1
205 102 m 1
 205 204 l 1
 307 204 l 1
 307 102 l 1
 205 102 l 1
205 205 m 1
 205 306 l 1
 307 306 l 1
 307 205 l 1
 205 205 l 1
205 307 m 1
 205 409 l 1
 307 409 l 1
 307 307 l 1
 205 307 l 1
205 410 m 1
 205 511 l 1
 307 511 l 1
 307 410 l 1
 205 410 l 1
205 512 m 1
 205 613 l 1
 307 613 l 1
 307 512 l 1
 205 512 l 1
205 614 m 1
 205 716 l 1
 307 716 l 1
 307 614 l 1
 205 614 l 1
205 717 m 1
 205 818 l 1
 307 818 l 1
 307 717 l 1
 205 717 l 1
205 819 m 1
 205 921 l 1
 307 921 l 1
 307 819 l 1
 205 819 l 1
205 922 m 1
 205 1023 l 1
 307 1023 l 1
 307 922 l 1
 205 922 l 1
205 1024 m 1
 205 1125 l 1
 614 1125 l 1
 614 1024 l 1
 205 1024 l 1
EndSplineSet
EndChar

StartChar: uni005C
Encoding: 92 92 92
Width: 819
VWidth: 0
Flags: HW
LayerCount: 2
Fore
SplineSet
717 205 m 1
 717 306 l 1
 819 306 l 1
 819 205 l 1
 717 205 l 1
614 307 m 1
 614 409 l 1
 717 409 l 1
 717 307 l 1
 614 307 l 1
512 410 m 1
 512 511 l 1
 614 511 l 1
 614 410 l 1
 512 410 l 1
410 512 m 1
 410 613 l 1
 512 613 l 1
 512 512 l 1
 410 512 l 1
307 614 m 1
 307 716 l 1
 410 716 l 1
 410 614 l 1
 307 614 l 1
205 717 m 1
 205 818 l 1
 307 818 l 1
 307 717 l 1
 205 717 l 1
102 819 m 1
 102 921 l 1
 205 921 l 1
 205 819 l 1
 102 819 l 1
EndSplineSet
EndChar

StartChar: uni005D
Encoding: 93 93 93
Width: 819
VWidth: 0
Flags: HW
LayerCount: 2
Fore
SplineSet
307 0 m 1
 307 101 l 1
 717 101 l 1
 717 0 l 1
 307 0 l 1
614 102 m 1
 614 204 l 1
 717 204 l 1
 717 102 l 1
 614 102 l 1
614 205 m 1
 614 306 l 1
 717 306 l 1
 717 205 l 1
 614 205 l 1
614 307 m 1
 614 409 l 1
 717 409 l 1
 717 307 l 1
 614 307 l 1
614 410 m 1
 614 511 l 1
 717 511 l 1
 717 410 l 1
 614 410 l 1
614 512 m 1
 614 613 l 1
 717 613 l 1
 717 512 l 1
 614 512 l 1
614 614 m 1
 614 716 l 1
 717 716 l 1
 717 614 l 1
 614 614 l 1
614 717 m 1
 614 818 l 1
 717 818 l 1
 717 717 l 1
 614 717 l 1
614 819 m 1
 614 921 l 1
 717 921 l 1
 717 819 l 1
 614 819 l 1
614 922 m 1
 614 1023 l 1
 717 1023 l 1
 717 922 l 1
 614 922 l 1
307 1024 m 1
 307 1125 l 1
 717 1125 l 1
 717 1024 l 1
 307 1024 l 1
EndSplineSet
EndChar

StartChar: uni005E
Encoding: 94 94 94
Width: 819
VWidth: 0
Flags: HW
LayerCount: 2
Fore
SplineSet
102 717 m 1
 102 818 l 1
 205 818 l 1
 205 717 l 1
 102 717 l 1
717 717 m 1
 717 818 l 1
 819 818 l 1
 819 717 l 1
 717 717 l 1
205 819 m 1
 205 921 l 1
 307 921 l 1
 307 819 l 1
 205 819 l 1
614 819 m 1
 614 921 l 1
 717 921 l 1
 717 819 l 1
 614 819 l 1
307 922 m 1
 307 1023 l 1
 410 1023 l 1
 410 922 l 1
 307 922 l 1
512 922 m 1
 512 1023 l 1
 614 1023 l 1
 614 922 l 1
 512 922 l 1
410 1024 m 1
 410 1125 l 1
 512 1125 l 1
 512 1024 l 1
 410 1024 l 1
EndSplineSet
EndChar

StartChar: uni005F
Encoding: 95 95 95
Width: 819
VWidth: 0
Flags: HW
LayerCount: 2
Fore
SplineSet
102 -204 m 1
 102 -102 l 1
 819 -102 l 1
 819 -204 l 1
 102 -204 l 1
EndSplineSet
EndChar

StartChar: uni0060
Encoding: 96 96 96
Width: 819
VWidth: 0
Flags: HW
LayerCount: 2
Fore
SplineSet
512 717 m 1
 512 818 l 1
 614 818 l 1
 614 717 l 1
 512 717 l 1
410 819 m 1
 410 921 l 1
 512 921 l 1
 512 819 l 1
 410 819 l 1
307 922 m 1
 307 1023 l 1
 512 1023 l 1
 512 922 l 1
 307 922 l 1
307 1024 m 1
 307 1125 l 1
 512 1125 l 1
 512 1024 l 1
 307 1024 l 1
EndSplineSet
EndChar

StartChar: uni0061
Encoding: 97 97 97
Width: 819
VWidth: 0
Flags: HW
LayerCount: 2
Fore
SplineSet
205 0 m 1
 205 101 l 1
 614 101 l 1
 614 0 l 1
 205 0 l 1
717 0 m 1
 717 101 l 1
 819 101 l 1
 819 0 l 1
 717 0 l 1
102 102 m 1
 102 204 l 1
 205 204 l 1
 205 102 l 1
 102 102 l 1
614 102 m 1
 614 204 l 1
 717 204 l 1
 717 102 l 1
 614 102 l 1
102 205 m 1
 102 306 l 1
 205 306 l 1
 205 205 l 1
 102 205 l 1
614 205 m 1
 614 306 l 1
 717 306 l 1
 717 205 l 1
 614 205 l 1
102 307 m 1
 102 409 l 1
 205 409 l 1
 205 307 l 1
 102 307 l 1
614 307 m 1
 614 409 l 1
 717 409 l 1
 717 307 l 1
 614 307 l 1
205 410 m 1
 205 511 l 1
 717 511 l 1
 717 410 l 1
 205 410 l 1
614 512 m 1
 614 613 l 1
 717 613 l 1
 717 512 l 1
 614 512 l 1
205 614 m 1
 205 716 l 1
 614 716 l 1
 614 614 l 1
 205 614 l 1
EndSplineSet
EndChar

StartChar: uni0062
Encoding: 98 98 98
Width: 819
VWidth: 0
Flags: HW
LayerCount: 2
Fore
SplineSet
102 0 m 1
 102 101 l 1
 614 101 l 1
 614 0 l 1
 102 0 l 1
102 102 m 1
 102 204 l 1
 205 204 l 1
 205 102 l 1
 102 102 l 1
614 102 m 1
 614 204 l 1
 717 204 l 1
 717 102 l 1
 614 102 l 1
102 205 m 1
 102 306 l 1
 205 306 l 1
 205 205 l 1
 102 205 l 1
614 205 m 1
 614 306 l 1
 717 306 l 1
 717 205 l 1
 614 205 l 1
102 307 m 1
 102 409 l 1
 205 409 l 1
 205 307 l 1
 102 307 l 1
614 307 m 1
 614 409 l 1
 717 409 l 1
 717 307 l 1
 614 307 l 1
102 410 m 1
 102 511 l 1
 205 511 l 1
 205 410 l 1
 102 410 l 1
614 410 m 1
 614 511 l 1
 717 511 l 1
 717 410 l 1
 614 410 l 1
102 512 m 1
 102 613 l 1
 205 613 l 1
 205 512 l 1
 102 512 l 1
614 512 m 1
 614 613 l 1
 717 613 l 1
 717 512 l 1
 614 512 l 1
102 614 m 1
 102 716 l 1
 614 716 l 1
 614 614 l 1
 102 614 l 1
102 717 m 1
 102 818 l 1
 205 818 l 1
 205 717 l 1
 102 717 l 1
102 819 m 1
 102 921 l 1
 205 921 l 1
 205 819 l 1
 102 819 l 1
102 922 m 1
 102 1023 l 1
 205 1023 l 1
 205 922 l 1
 102 922 l 1
102 1024 m 1
 102 1125 l 1
 205 1125 l 1
 205 1024 l 1
 102 1024 l 1
EndSplineSet
EndChar

StartChar: uni0063
Encoding: 99 99 99
Width: 819
VWidth: 0
Flags: HW
LayerCount: 2
Fore
SplineSet
205 0 m 1
 205 101 l 1
 614 101 l 1
 614 0 l 1
 205 0 l 1
102 102 m 1
 102 204 l 1
 205 204 l 1
 205 102 l 1
 102 102 l 1
614 102 m 1
 614 204 l 1
 717 204 l 1
 717 102 l 1
 614 102 l 1
102 205 m 1
 102 306 l 1
 205 306 l 1
 205 205 l 1
 102 205 l 1
102 307 m 1
 102 409 l 1
 205 409 l 1
 205 307 l 1
 102 307 l 1
102 410 m 1
 102 511 l 1
 205 511 l 1
 205 410 l 1
 102 410 l 1
102 512 m 1
 102 613 l 1
 205 613 l 1
 205 512 l 1
 102 512 l 1
614 512 m 1
 614 613 l 1
 717 613 l 1
 717 512 l 1
 614 512 l 1
205 614 m 1
 205 716 l 1
 614 716 l 1
 614 614 l 1
 205 614 l 1
EndSplineSet
EndChar

StartChar: uni0064
Encoding: 100 100 100
Width: 819
VWidth: 0
Flags: HW
LayerCount: 2
Fore
SplineSet
205 0 m 1
 205 101 l 1
 717 101 l 1
 717 0 l 1
 205 0 l 1
102 102 m 1
 102 204 l 1
 205 204 l 1
 205 102 l 1
 102 102 l 1
614 102 m 1
 614 204 l 1
 717 204 l 1
 717 102 l 1
 614 102 l 1
102 205 m 1
 102 306 l 1
 205 306 l 1
 205 205 l 1
 102 205 l 1
614 205 m 1
 614 306 l 1
 717 306 l 1
 717 205 l 1
 614 205 l 1
102 307 m 1
 102 409 l 1
 205 409 l 1
 205 307 l 1
 102 307 l 1
614 307 m 1
 614 409 l 1
 717 409 l 1
 717 307 l 1
 614 307 l 1
102 410 m 1
 102 511 l 1
 205 511 l 1
 205 410 l 1
 102 410 l 1
614 410 m 1
 614 511 l 1
 717 511 l 1
 717 410 l 1
 614 410 l 1
102 512 m 1
 102 613 l 1
 205 613 l 1
 205 512 l 1
 102 512 l 1
614 512 m 1
 614 613 l 1
 717 613 l 1
 717 512 l 1
 614 512 l 1
205 614 m 1
 205 716 l 1
 717 716 l 1
 717 614 l 1
 205 614 l 1
614 717 m 1
 614 818 l 1
 717 818 l 1
 717 717 l 1
 614 717 l 1
614 819 m 1
 614 921 l 1
 717 921 l 1
 717 819 l 1
 614 819 l 1
614 922 m 1
 614 1023 l 1
 717 1023 l 1
 717 922 l 1
 614 922 l 1
614 1024 m 1
 614 1125 l 1
 717 1125 l 1
 717 1024 l 1
 614 1024 l 1
EndSplineSet
EndChar

StartChar: uni0065
Encoding: 101 101 101
Width: 819
VWidth: 0
Flags: HW
LayerCount: 2
Fore
SplineSet
205 0 m 1
 205 101 l 1
 614 101 l 1
 614 0 l 1
 205 0 l 1
102 102 m 1
 102 204 l 1
 205 204 l 1
 205 102 l 1
 102 102 l 1
102 205 m 1
 102 306 l 1
 205 306 l 1
 205 205 l 1
 102 205 l 1
102 307 m 1
 102 409 l 1
 717 409 l 1
 717 307 l 1
 102 307 l 1
102 410 m 1
 102 511 l 1
 205 511 l 1
 205 410 l 1
 102 410 l 1
614 410 m 1
 614 511 l 1
 717 511 l 1
 717 410 l 1
 614 410 l 1
102 512 m 1
 102 613 l 1
 205 613 l 1
 205 512 l 1
 102 512 l 1
614 512 m 1
 614 613 l 1
 717 613 l 1
 717 512 l 1
 614 512 l 1
205 614 m 1
 205 716 l 1
 614 716 l 1
 614 614 l 1
 205 614 l 1
EndSplineSet
EndChar

StartChar: uni0066
Encoding: 102 102 102
Width: 819
VWidth: 0
Flags: HW
LayerCount: 2
Fore
SplineSet
307 0 m 1
 307 101 l 1
 410 101 l 1
 410 0 l 1
 307 0 l 1
307 102 m 1
 307 204 l 1
 410 204 l 1
 410 102 l 1
 307 102 l 1
307 205 m 1
 307 306 l 1
 410 306 l 1
 410 205 l 1
 307 205 l 1
307 307 m 1
 307 409 l 1
 410 409 l 1
 410 307 l 1
 307 307 l 1
307 410 m 1
 307 511 l 1
 410 511 l 1
 410 410 l 1
 307 410 l 1
102 512 m 1
 102 613 l 1
 614 613 l 1
 614 512 l 1
 102 512 l 1
307 614 m 1
 307 716 l 1
 410 716 l 1
 410 614 l 1
 307 614 l 1
307 717 m 1
 307 818 l 1
 410 818 l 1
 410 717 l 1
 307 717 l 1
307 819 m 1
 307 921 l 1
 410 921 l 1
 410 819 l 1
 307 819 l 1
307 922 m 1
 307 1023 l 1
 410 1023 l 1
 410 922 l 1
 307 922 l 1
614 922 m 1
 614 1023 l 1
 717 1023 l 1
 717 922 l 1
 614 922 l 1
410 1024 m 1
 410 1125 l 1
 614 1125 l 1
 614 1024 l 1
 410 1024 l 1
EndSplineSet
EndChar

StartChar: uni0067
Encoding: 103 103 103
Width: 819
VWidth: 0
Flags: HW
LayerCount: 2
Fore
SplineSet
205 -306 m 1
 205 -205 l 1
 614 -205 l 1
 614 -306 l 1
 205 -306 l 1
614 -204 m 1
 614 -102 l 1
 717 -102 l 1
 717 -204 l 1
 614 -204 l 1
614 -101 m 1
 614 -1 l 1
 717 -1 l 1
 717 -101 l 1
 614 -101 l 1
205 0 m 1
 205 101 l 1
 717 101 l 1
 717 0 l 1
 205 0 l 1
102 102 m 1
 102 204 l 1
 205 204 l 1
 205 102 l 1
 102 102 l 1
614 102 m 1
 614 204 l 1
 717 204 l 1
 717 102 l 1
 614 102 l 1
102 205 m 1
 102 306 l 1
 205 306 l 1
 205 205 l 1
 102 205 l 1
614 205 m 1
 614 306 l 1
 717 306 l 1
 717 205 l 1
 614 205 l 1
102 307 m 1
 102 409 l 1
 205 409 l 1
 205 307 l 1
 102 307 l 1
614 307 m 1
 614 409 l 1
 717 409 l 1
 717 307 l 1
 614 307 l 1
102 410 m 1
 102 511 l 1
 205 511 l 1
 205 410 l 1
 102 410 l 1
614 410 m 1
 614 511 l 1
 717 511 l 1
 717 410 l 1
 614 410 l 1
102 512 m 1
 102 613 l 1
 205 613 l 1
 205 512 l 1
 102 512 l 1
614 512 m 1
 614 613 l 1
 717 613 l 1
 717 512 l 1
 614 512 l 1
205 614 m 1
 205 716 l 1
 614 716 l 1
 614 614 l 1
 205 614 l 1
EndSplineSet
EndChar

StartChar: uni0068
Encoding: 104 104 104
Width: 819
VWidth: 0
Flags: HW
LayerCount: 2
Fore
SplineSet
102 0 m 1
 102 101 l 1
 205 101 l 1
 205 0 l 1
 102 0 l 1
614 0 m 1
 614 101 l 1
 717 101 l 1
 717 0 l 1
 614 0 l 1
102 102 m 1
 102 204 l 1
 205 204 l 1
 205 102 l 1
 102 102 l 1
614 102 m 1
 614 204 l 1
 717 204 l 1
 717 102 l 1
 614 102 l 1
102 205 m 1
 102 306 l 1
 205 306 l 1
 205 205 l 1
 102 205 l 1
614 205 m 1
 614 306 l 1
 717 306 l 1
 717 205 l 1
 614 205 l 1
102 307 m 1
 102 409 l 1
 205 409 l 1
 205 307 l 1
 102 307 l 1
614 307 m 1
 614 409 l 1
 717 409 l 1
 717 307 l 1
 614 307 l 1
102 410 m 1
 102 511 l 1
 205 511 l 1
 205 410 l 1
 102 410 l 1
614 410 m 1
 614 511 l 1
 717 511 l 1
 717 410 l 1
 614 410 l 1
102 512 m 1
 102 613 l 1
 307 613 l 1
 307 512 l 1
 102 512 l 1
614 512 m 1
 614 613 l 1
 717 613 l 1
 717 512 l 1
 614 512 l 1
102 614 m 1
 102 716 l 1
 205 716 l 1
 205 614 l 1
 102 614 l 1
307 614 m 1
 307 716 l 1
 614 716 l 1
 614 614 l 1
 307 614 l 1
102 717 m 1
 102 818 l 1
 205 818 l 1
 205 717 l 1
 102 717 l 1
102 819 m 1
 102 921 l 1
 205 921 l 1
 205 819 l 1
 102 819 l 1
102 922 m 1
 102 1023 l 1
 205 1023 l 1
 205 922 l 1
 102 922 l 1
102 1024 m 1
 102 1125 l 1
 205 1125 l 1
 205 1024 l 1
 102 1024 l 1
EndSplineSet
EndChar

StartChar: uni0069
Encoding: 105 105 105
Width: 819
VWidth: 0
Flags: HW
LayerCount: 2
Fore
SplineSet
410 0 m 1
 410 101 l 1
 512 101 l 1
 512 0 l 1
 410 0 l 1
410 102 m 1
 410 204 l 1
 512 204 l 1
 512 102 l 1
 410 102 l 1
410 205 m 1
 410 306 l 1
 512 306 l 1
 512 205 l 1
 410 205 l 1
410 307 m 1
 410 409 l 1
 512 409 l 1
 512 307 l 1
 410 307 l 1
410 410 m 1
 410 511 l 1
 512 511 l 1
 512 410 l 1
 410 410 l 1
410 512 m 1
 410 613 l 1
 512 613 l 1
 512 512 l 1
 410 512 l 1
410 614 m 1
 410 716 l 1
 512 716 l 1
 512 614 l 1
 410 614 l 1
410 922 m 1
 410 1023 l 1
 512 1023 l 1
 512 922 l 1
 410 922 l 1
EndSplineSet
EndChar

StartChar: uni006A
Encoding: 106 106 106
Width: 819
VWidth: 0
Flags: HW
LayerCount: 2
Fore
SplineSet
307 -306 m 1
 307 -205 l 1
 614 -205 l 1
 614 -306 l 1
 307 -306 l 1
205 -204 m 1
 205 -102 l 1
 307 -102 l 1
 307 -204 l 1
 205 -204 l 1
614 -204 m 1
 614 -102 l 1
 717 -102 l 1
 717 -204 l 1
 614 -204 l 1
614 -101 m 1
 614 -1 l 1
 717 -1 l 1
 717 -101 l 1
 614 -101 l 1
614 0 m 1
 614 101 l 1
 717 101 l 1
 717 0 l 1
 614 0 l 1
614 102 m 1
 614 204 l 1
 717 204 l 1
 717 102 l 1
 614 102 l 1
614 205 m 1
 614 306 l 1
 717 306 l 1
 717 205 l 1
 614 205 l 1
614 307 m 1
 614 409 l 1
 717 409 l 1
 717 307 l 1
 614 307 l 1
614 410 m 1
 614 511 l 1
 717 511 l 1
 717 410 l 1
 614 410 l 1
614 512 m 1
 614 613 l 1
 717 613 l 1
 717 512 l 1
 614 512 l 1
614 614 m 1
 614 716 l 1
 717 716 l 1
 717 614 l 1
 614 614 l 1
614 922 m 1
 614 1023 l 1
 717 1023 l 1
 717 922 l 1
 614 922 l 1
EndSplineSet
EndChar

StartChar: uni006B
Encoding: 107 107 107
Width: 819
VWidth: 0
Flags: HW
LayerCount: 2
Fore
SplineSet
205 0 m 1
 205 101 l 1
 307 101 l 1
 307 0 l 1
 205 0 l 1
614 0 m 1
 614 101 l 1
 717 101 l 1
 717 0 l 1
 614 0 l 1
205 102 m 1
 205 204 l 1
 307 204 l 1
 307 102 l 1
 205 102 l 1
512 102 m 1
 512 204 l 1
 614 204 l 1
 614 102 l 1
 512 102 l 1
205 205 m 1
 205 306 l 1
 307 306 l 1
 307 205 l 1
 205 205 l 1
410 205 m 1
 410 306 l 1
 512 306 l 1
 512 205 l 1
 410 205 l 1
205 307 m 1
 205 409 l 1
 410 409 l 1
 410 307 l 1
 205 307 l 1
205 410 m 1
 205 511 l 1
 307 511 l 1
 307 410 l 1
 205 410 l 1
410 410 m 1
 410 511 l 1
 512 511 l 1
 512 410 l 1
 410 410 l 1
205 512 m 1
 205 613 l 1
 307 613 l 1
 307 512 l 1
 205 512 l 1
512 512 m 1
 512 613 l 1
 614 613 l 1
 614 512 l 1
 512 512 l 1
205 614 m 1
 205 716 l 1
 307 716 l 1
 307 614 l 1
 205 614 l 1
205 717 m 1
 205 818 l 1
 307 818 l 1
 307 717 l 1
 205 717 l 1
205 819 m 1
 205 921 l 1
 307 921 l 1
 307 819 l 1
 205 819 l 1
205 922 m 1
 205 1023 l 1
 307 1023 l 1
 307 922 l 1
 205 922 l 1
205 1024 m 1
 205 1125 l 1
 307 1125 l 1
 307 1024 l 1
 205 1024 l 1
EndSplineSet
EndChar

StartChar: uni006C
Encoding: 108 108 108
Width: 819
VWidth: 0
Flags: HW
LayerCount: 2
Fore
SplineSet
410 0 m 1
 410 101 l 1
 512 101 l 1
 512 0 l 1
 410 0 l 1
410 102 m 1
 410 204 l 1
 512 204 l 1
 512 102 l 1
 410 102 l 1
410 205 m 1
 410 306 l 1
 512 306 l 1
 512 205 l 1
 410 205 l 1
410 307 m 1
 410 409 l 1
 512 409 l 1
 512 307 l 1
 410 307 l 1
410 410 m 1
 410 511 l 1
 512 511 l 1
 512 410 l 1
 410 410 l 1
410 512 m 1
 410 613 l 1
 512 613 l 1
 512 512 l 1
 410 512 l 1
410 614 m 1
 410 716 l 1
 512 716 l 1
 512 614 l 1
 410 614 l 1
410 717 m 1
 410 818 l 1
 512 818 l 1
 512 717 l 1
 410 717 l 1
410 819 m 1
 410 921 l 1
 512 921 l 1
 512 819 l 1
 410 819 l 1
410 922 m 1
 410 1023 l 1
 512 1023 l 1
 512 922 l 1
 410 922 l 1
410 1024 m 1
 410 1125 l 1
 512 1125 l 1
 512 1024 l 1
 410 1024 l 1
EndSplineSet
EndChar

StartChar: uni006D
Encoding: 109 109 109
Width: 819
VWidth: 0
Flags: HW
LayerCount: 2
Fore
SplineSet
102 0 m 1
 102 101 l 1
 205 101 l 1
 205 0 l 1
 102 0 l 1
410 0 m 1
 410 101 l 1
 512 101 l 1
 512 0 l 1
 410 0 l 1
717 0 m 1
 717 101 l 1
 819 101 l 1
 819 0 l 1
 717 0 l 1
102 102 m 1
 102 204 l 1
 205 204 l 1
 205 102 l 1
 102 102 l 1
410 102 m 1
 410 204 l 1
 512 204 l 1
 512 102 l 1
 410 102 l 1
717 102 m 1
 717 204 l 1
 819 204 l 1
 819 102 l 1
 717 102 l 1
102 205 m 1
 102 306 l 1
 205 306 l 1
 205 205 l 1
 102 205 l 1
410 205 m 1
 410 306 l 1
 512 306 l 1
 512 205 l 1
 410 205 l 1
717 205 m 1
 717 306 l 1
 819 306 l 1
 819 205 l 1
 717 205 l 1
102 307 m 1
 102 409 l 1
 205 409 l 1
 205 307 l 1
 102 307 l 1
410 307 m 1
 410 409 l 1
 512 409 l 1
 512 307 l 1
 410 307 l 1
717 307 m 1
 717 409 l 1
 819 409 l 1
 819 307 l 1
 717 307 l 1
102 410 m 1
 102 511 l 1
 205 511 l 1
 205 410 l 1
 102 410 l 1
410 410 m 1
 410 511 l 1
 512 511 l 1
 512 410 l 1
 410 410 l 1
717 410 m 1
 717 511 l 1
 819 511 l 1
 819 410 l 1
 717 410 l 1
102 512 m 1
 102 613 l 1
 205 613 l 1
 205 512 l 1
 102 512 l 1
410 512 m 1
 410 613 l 1
 512 613 l 1
 512 512 l 1
 410 512 l 1
717 512 m 1
 717 613 l 1
 819 613 l 1
 819 512 l 1
 717 512 l 1
102 614 m 1
 102 716 l 1
 410 716 l 1
 410 614 l 1
 102 614 l 1
512 614 m 1
 512 716 l 1
 717 716 l 1
 717 614 l 1
 512 614 l 1
EndSplineSet
EndChar

StartChar: uni006E
Encoding: 110 110 110
Width: 819
VWidth: 0
Flags: HW
LayerCount: 2
Fore
SplineSet
102 0 m 1
 102 101 l 1
 205 101 l 1
 205 0 l 1
 102 0 l 1
614 0 m 1
 614 101 l 1
 717 101 l 1
 717 0 l 1
 614 0 l 1
102 102 m 1
 102 204 l 1
 205 204 l 1
 205 102 l 1
 102 102 l 1
614 102 m 1
 614 204 l 1
 717 204 l 1
 717 102 l 1
 614 102 l 1
102 205 m 1
 102 306 l 1
 205 306 l 1
 205 205 l 1
 102 205 l 1
614 205 m 1
 614 306 l 1
 717 306 l 1
 717 205 l 1
 614 205 l 1
102 307 m 1
 102 409 l 1
 205 409 l 1
 205 307 l 1
 102 307 l 1
614 307 m 1
 614 409 l 1
 717 409 l 1
 717 307 l 1
 614 307 l 1
102 410 m 1
 102 511 l 1
 205 511 l 1
 205 410 l 1
 102 410 l 1
614 410 m 1
 614 511 l 1
 717 511 l 1
 717 410 l 1
 614 410 l 1
102 512 m 1
 102 613 l 1
 205 613 l 1
 205 512 l 1
 102 512 l 1
614 512 m 1
 614 613 l 1
 717 613 l 1
 717 512 l 1
 614 512 l 1
102 614 m 1
 102 716 l 1
 614 716 l 1
 614 614 l 1
 102 614 l 1
EndSplineSet
EndChar

StartChar: uni006F
Encoding: 111 111 111
Width: 819
VWidth: 0
Flags: HW
LayerCount: 2
Fore
SplineSet
205 0 m 1
 205 101 l 1
 614 101 l 1
 614 0 l 1
 205 0 l 1
102 102 m 1
 102 204 l 1
 205 204 l 1
 205 102 l 1
 102 102 l 1
614 102 m 1
 614 204 l 1
 717 204 l 1
 717 102 l 1
 614 102 l 1
102 205 m 1
 102 306 l 1
 205 306 l 1
 205 205 l 1
 102 205 l 1
614 205 m 1
 614 306 l 1
 717 306 l 1
 717 205 l 1
 614 205 l 1
102 307 m 1
 102 409 l 1
 205 409 l 1
 205 307 l 1
 102 307 l 1
614 307 m 1
 614 409 l 1
 717 409 l 1
 717 307 l 1
 614 307 l 1
102 410 m 1
 102 511 l 1
 205 511 l 1
 205 410 l 1
 102 410 l 1
614 410 m 1
 614 511 l 1
 717 511 l 1
 717 410 l 1
 614 410 l 1
102 512 m 1
 102 613 l 1
 205 613 l 1
 205 512 l 1
 102 512 l 1
614 512 m 1
 614 613 l 1
 717 613 l 1
 717 512 l 1
 614 512 l 1
205 614 m 1
 205 716 l 1
 614 716 l 1
 614 614 l 1
 205 614 l 1
EndSplineSet
EndChar

StartChar: uni0070
Encoding: 112 112 112
Width: 819
VWidth: 0
Flags: HW
LayerCount: 2
Fore
SplineSet
102 -306 m 1
 102 -205 l 1
 205 -205 l 1
 205 -306 l 1
 102 -306 l 1
102 -204 m 1
 102 -102 l 1
 205 -102 l 1
 205 -204 l 1
 102 -204 l 1
102 -101 m 1
 102 -1 l 1
 205 -1 l 1
 205 -101 l 1
 102 -101 l 1
102 0 m 1
 102 101 l 1
 614 101 l 1
 614 0 l 1
 102 0 l 1
102 102 m 1
 102 204 l 1
 205 204 l 1
 205 102 l 1
 102 102 l 1
614 102 m 1
 614 204 l 1
 717 204 l 1
 717 102 l 1
 614 102 l 1
102 205 m 1
 102 306 l 1
 205 306 l 1
 205 205 l 1
 102 205 l 1
614 205 m 1
 614 306 l 1
 717 306 l 1
 717 205 l 1
 614 205 l 1
102 307 m 1
 102 409 l 1
 205 409 l 1
 205 307 l 1
 102 307 l 1
614 307 m 1
 614 409 l 1
 717 409 l 1
 717 307 l 1
 614 307 l 1
102 410 m 1
 102 511 l 1
 205 511 l 1
 205 410 l 1
 102 410 l 1
614 410 m 1
 614 511 l 1
 717 511 l 1
 717 410 l 1
 614 410 l 1
102 512 m 1
 102 613 l 1
 205 613 l 1
 205 512 l 1
 102 512 l 1
614 512 m 1
 614 613 l 1
 717 613 l 1
 717 512 l 1
 614 512 l 1
102 614 m 1
 102 716 l 1
 614 716 l 1
 614 614 l 1
 102 614 l 1
EndSplineSet
EndChar

StartChar: uni0071
Encoding: 113 113 113
Width: 819
VWidth: 0
Flags: HW
LayerCount: 2
Fore
SplineSet
614 -306 m 1
 614 -205 l 1
 717 -205 l 1
 717 -306 l 1
 614 -306 l 1
614 -204 m 1
 614 -102 l 1
 717 -102 l 1
 717 -204 l 1
 614 -204 l 1
614 -101 m 1
 614 -1 l 1
 717 -1 l 1
 717 -101 l 1
 614 -101 l 1
205 0 m 1
 205 101 l 1
 717 101 l 1
 717 0 l 1
 205 0 l 1
102 102 m 1
 102 204 l 1
 205 204 l 1
 205 102 l 1
 102 102 l 1
614 102 m 1
 614 204 l 1
 717 204 l 1
 717 102 l 1
 614 102 l 1
102 205 m 1
 102 306 l 1
 205 306 l 1
 205 205 l 1
 102 205 l 1
614 205 m 1
 614 306 l 1
 717 306 l 1
 717 205 l 1
 614 205 l 1
102 307 m 1
 102 409 l 1
 205 409 l 1
 205 307 l 1
 102 307 l 1
614 307 m 1
 614 409 l 1
 717 409 l 1
 717 307 l 1
 614 307 l 1
102 410 m 1
 102 511 l 1
 205 511 l 1
 205 410 l 1
 102 410 l 1
614 410 m 1
 614 511 l 1
 717 511 l 1
 717 410 l 1
 614 410 l 1
102 512 m 1
 102 613 l 1
 205 613 l 1
 205 512 l 1
 102 512 l 1
614 512 m 1
 614 613 l 1
 717 613 l 1
 717 512 l 1
 614 512 l 1
205 614 m 1
 205 716 l 1
 717 716 l 1
 717 614 l 1
 205 614 l 1
EndSplineSet
EndChar

StartChar: uni0072
Encoding: 114 114 114
Width: 819
VWidth: 0
Flags: HW
LayerCount: 2
Fore
SplineSet
102 0 m 1
 102 101 l 1
 205 101 l 1
 205 0 l 1
 102 0 l 1
102 102 m 1
 102 204 l 1
 205 204 l 1
 205 102 l 1
 102 102 l 1
102 205 m 1
 102 306 l 1
 205 306 l 1
 205 205 l 1
 102 205 l 1
102 307 m 1
 102 409 l 1
 205 409 l 1
 205 307 l 1
 102 307 l 1
102 410 m 1
 102 511 l 1
 205 511 l 1
 205 410 l 1
 102 410 l 1
102 512 m 1
 102 613 l 1
 307 613 l 1
 307 512 l 1
 102 512 l 1
614 512 m 1
 614 613 l 1
 717 613 l 1
 717 512 l 1
 614 512 l 1
102 614 m 1
 102 716 l 1
 205 716 l 1
 205 614 l 1
 102 614 l 1
307 614 m 1
 307 716 l 1
 614 716 l 1
 614 614 l 1
 307 614 l 1
EndSplineSet
EndChar

StartChar: uni0073
Encoding: 115 115 115
Width: 819
VWidth: 0
Flags: HW
LayerCount: 2
Fore
SplineSet
205 0 m 1
 205 101 l 1
 614 101 l 1
 614 0 l 1
 205 0 l 1
102 102 m 1
 102 204 l 1
 205 204 l 1
 205 102 l 1
 102 102 l 1
614 102 m 1
 614 204 l 1
 717 204 l 1
 717 102 l 1
 614 102 l 1
512 205 m 1
 512 306 l 1
 614 306 l 1
 614 205 l 1
 512 205 l 1
307 307 m 1
 307 409 l 1
 512 409 l 1
 512 307 l 1
 307 307 l 1
205 410 m 1
 205 511 l 1
 307 511 l 1
 307 410 l 1
 205 410 l 1
102 512 m 1
 102 613 l 1
 205 613 l 1
 205 512 l 1
 102 512 l 1
614 512 m 1
 614 613 l 1
 717 613 l 1
 717 512 l 1
 614 512 l 1
205 614 m 1
 205 716 l 1
 614 716 l 1
 614 614 l 1
 205 614 l 1
EndSplineSet
EndChar

StartChar: uni0074
Encoding: 116 116 116
Width: 819
VWidth: 0
Flags: HW
LayerCount: 2
Fore
SplineSet
307 0 m 1
 307 101 l 1
 410 101 l 1
 410 0 l 1
 307 0 l 1
307 102 m 1
 307 204 l 1
 410 204 l 1
 410 102 l 1
 307 102 l 1
307 205 m 1
 307 306 l 1
 410 306 l 1
 410 205 l 1
 307 205 l 1
307 307 m 1
 307 409 l 1
 410 409 l 1
 410 307 l 1
 307 307 l 1
307 410 m 1
 307 511 l 1
 410 511 l 1
 410 410 l 1
 307 410 l 1
307 512 m 1
 307 613 l 1
 410 613 l 1
 410 512 l 1
 307 512 l 1
307 614 m 1
 307 716 l 1
 410 716 l 1
 410 614 l 1
 307 614 l 1
102 717 m 1
 102 818 l 1
 614 818 l 1
 614 717 l 1
 102 717 l 1
307 819 m 1
 307 921 l 1
 410 921 l 1
 410 819 l 1
 307 819 l 1
307 922 m 1
 307 1023 l 1
 410 1023 l 1
 410 922 l 1
 307 922 l 1
307 1024 m 1
 307 1125 l 1
 410 1125 l 1
 410 1024 l 1
 307 1024 l 1
EndSplineSet
EndChar

StartChar: uni0075
Encoding: 117 117 117
Width: 819
VWidth: 0
Flags: HW
LayerCount: 2
Fore
SplineSet
205 0 m 1
 205 101 l 1
 512 101 l 1
 512 0 l 1
 205 0 l 1
614 0 m 1
 614 101 l 1
 717 101 l 1
 717 0 l 1
 614 0 l 1
102 102 m 1
 102 204 l 1
 205 204 l 1
 205 102 l 1
 102 102 l 1
512 102 m 1
 512 204 l 1
 717 204 l 1
 717 102 l 1
 512 102 l 1
102 205 m 1
 102 306 l 1
 205 306 l 1
 205 205 l 1
 102 205 l 1
614 205 m 1
 614 306 l 1
 717 306 l 1
 717 205 l 1
 614 205 l 1
102 307 m 1
 102 409 l 1
 205 409 l 1
 205 307 l 1
 102 307 l 1
614 307 m 1
 614 409 l 1
 717 409 l 1
 717 307 l 1
 614 307 l 1
102 410 m 1
 102 511 l 1
 205 511 l 1
 205 410 l 1
 102 410 l 1
614 410 m 1
 614 511 l 1
 717 511 l 1
 717 410 l 1
 614 410 l 1
102 512 m 1
 102 613 l 1
 205 613 l 1
 205 512 l 1
 102 512 l 1
614 512 m 1
 614 613 l 1
 717 613 l 1
 717 512 l 1
 614 512 l 1
102 614 m 1
 102 716 l 1
 205 716 l 1
 205 614 l 1
 102 614 l 1
614 614 m 1
 614 716 l 1
 717 716 l 1
 717 614 l 1
 614 614 l 1
EndSplineSet
EndChar

StartChar: uni0076
Encoding: 118 118 118
Width: 819
VWidth: 0
Flags: HW
LayerCount: 2
Fore
SplineSet
410 0 m 1
 410 101 l 1
 512 101 l 1
 512 0 l 1
 410 0 l 1
307 102 m 1
 307 204 l 1
 410 204 l 1
 410 102 l 1
 307 102 l 1
512 102 m 1
 512 204 l 1
 614 204 l 1
 614 102 l 1
 512 102 l 1
307 205 m 1
 307 306 l 1
 410 306 l 1
 410 205 l 1
 307 205 l 1
512 205 m 1
 512 306 l 1
 614 306 l 1
 614 205 l 1
 512 205 l 1
205 307 m 1
 205 409 l 1
 307 409 l 1
 307 307 l 1
 205 307 l 1
614 307 m 1
 614 409 l 1
 717 409 l 1
 717 307 l 1
 614 307 l 1
205 410 m 1
 205 511 l 1
 307 511 l 1
 307 410 l 1
 205 410 l 1
614 410 m 1
 614 511 l 1
 717 511 l 1
 717 410 l 1
 614 410 l 1
102 512 m 1
 102 613 l 1
 205 613 l 1
 205 512 l 1
 102 512 l 1
717 512 m 1
 717 613 l 1
 819 613 l 1
 819 512 l 1
 717 512 l 1
102 614 m 1
 102 716 l 1
 205 716 l 1
 205 614 l 1
 102 614 l 1
717 614 m 1
 717 716 l 1
 819 716 l 1
 819 614 l 1
 717 614 l 1
EndSplineSet
EndChar

StartChar: uni0077
Encoding: 119 119 119
Width: 819
VWidth: 0
Flags: HW
LayerCount: 2
Fore
SplineSet
205 0 m 1
 205 101 l 1
 410 101 l 1
 410 0 l 1
 205 0 l 1
512 0 m 1
 512 101 l 1
 717 101 l 1
 717 0 l 1
 512 0 l 1
102 102 m 1
 102 204 l 1
 205 204 l 1
 205 102 l 1
 102 102 l 1
410 102 m 1
 410 204 l 1
 512 204 l 1
 512 102 l 1
 410 102 l 1
717 102 m 1
 717 204 l 1
 819 204 l 1
 819 102 l 1
 717 102 l 1
102 205 m 1
 102 306 l 1
 205 306 l 1
 205 205 l 1
 102 205 l 1
410 205 m 1
 410 306 l 1
 512 306 l 1
 512 205 l 1
 410 205 l 1
717 205 m 1
 717 306 l 1
 819 306 l 1
 819 205 l 1
 717 205 l 1
102 307 m 1
 102 409 l 1
 205 409 l 1
 205 307 l 1
 102 307 l 1
410 307 m 1
 410 409 l 1
 512 409 l 1
 512 307 l 1
 410 307 l 1
717 307 m 1
 717 409 l 1
 819 409 l 1
 819 307 l 1
 717 307 l 1
102 410 m 1
 102 511 l 1
 205 511 l 1
 205 410 l 1
 102 410 l 1
410 410 m 1
 410 511 l 1
 512 511 l 1
 512 410 l 1
 410 410 l 1
717 410 m 1
 717 511 l 1
 819 511 l 1
 819 410 l 1
 717 410 l 1
102 512 m 1
 102 613 l 1
 205 613 l 1
 205 512 l 1
 102 512 l 1
410 512 m 1
 410 613 l 1
 512 613 l 1
 512 512 l 1
 410 512 l 1
717 512 m 1
 717 613 l 1
 819 613 l 1
 819 512 l 1
 717 512 l 1
102 614 m 1
 102 716 l 1
 205 716 l 1
 205 614 l 1
 102 614 l 1
717 614 m 1
 717 716 l 1
 819 716 l 1
 819 614 l 1
 717 614 l 1
EndSplineSet
EndChar

StartChar: uni0078
Encoding: 120 120 120
Width: 819
VWidth: 0
Flags: HW
LayerCount: 2
Fore
SplineSet
102 0 m 1
 102 101 l 1
 205 101 l 1
 205 0 l 1
 102 0 l 1
614 0 m 1
 614 101 l 1
 717 101 l 1
 717 0 l 1
 614 0 l 1
102 102 m 1
 102 204 l 1
 205 204 l 1
 205 102 l 1
 102 102 l 1
614 102 m 1
 614 204 l 1
 717 204 l 1
 717 102 l 1
 614 102 l 1
205 205 m 1
 205 306 l 1
 307 306 l 1
 307 205 l 1
 205 205 l 1
512 205 m 1
 512 306 l 1
 614 306 l 1
 614 205 l 1
 512 205 l 1
307 307 m 1
 307 409 l 1
 512 409 l 1
 512 307 l 1
 307 307 l 1
307 410 m 1
 307 511 l 1
 512 511 l 1
 512 410 l 1
 307 410 l 1
205 512 m 1
 205 613 l 1
 307 613 l 1
 307 512 l 1
 205 512 l 1
512 512 m 1
 512 613 l 1
 614 613 l 1
 614 512 l 1
 512 512 l 1
102 614 m 1
 102 716 l 1
 205 716 l 1
 205 614 l 1
 102 614 l 1
614 614 m 1
 614 716 l 1
 717 716 l 1
 717 614 l 1
 614 614 l 1
EndSplineSet
EndChar

StartChar: uni0079
Encoding: 121 121 121
Width: 819
VWidth: 0
Flags: HW
LayerCount: 2
Fore
SplineSet
205 -306 m 1
 205 -205 l 1
 717 -205 l 1
 717 -306 l 1
 205 -306 l 1
614 -204 m 1
 614 -102 l 1
 717 -102 l 1
 717 -204 l 1
 614 -204 l 1
614 -101 m 1
 614 -1 l 1
 717 -1 l 1
 717 -101 l 1
 614 -101 l 1
205 0 m 1
 205 101 l 1
 614 101 l 1
 614 0 l 1
 205 0 l 1
102 102 m 1
 102 204 l 1
 205 204 l 1
 205 102 l 1
 102 102 l 1
614 102 m 1
 614 204 l 1
 717 204 l 1
 717 102 l 1
 614 102 l 1
102 205 m 1
 102 306 l 1
 205 306 l 1
 205 205 l 1
 102 205 l 1
614 205 m 1
 614 306 l 1
 717 306 l 1
 717 205 l 1
 614 205 l 1
102 307 m 1
 102 409 l 1
 205 409 l 1
 205 307 l 1
 102 307 l 1
614 307 m 1
 614 409 l 1
 717 409 l 1
 717 307 l 1
 614 307 l 1
102 410 m 1
 102 511 l 1
 205 511 l 1
 205 410 l 1
 102 410 l 1
614 410 m 1
 614 511 l 1
 717 511 l 1
 717 410 l 1
 614 410 l 1
102 512 m 1
 102 613 l 1
 205 613 l 1
 205 512 l 1
 102 512 l 1
614 512 m 1
 614 613 l 1
 717 613 l 1
 717 512 l 1
 614 512 l 1
102 614 m 1
 102 716 l 1
 205 716 l 1
 205 614 l 1
 102 614 l 1
614 614 m 1
 614 716 l 1
 717 716 l 1
 717 614 l 1
 614 614 l 1
EndSplineSet
EndChar

StartChar: uni007A
Encoding: 122 122 122
Width: 819
VWidth: 0
Flags: HW
LayerCount: 2
Fore
SplineSet
102 0 m 1
 102 101 l 1
 717 101 l 1
 717 0 l 1
 102 0 l 1
102 102 m 1
 102 204 l 1
 205 204 l 1
 205 102 l 1
 102 102 l 1
205 205 m 1
 205 306 l 1
 307 306 l 1
 307 205 l 1
 205 205 l 1
307 307 m 1
 307 409 l 1
 410 409 l 1
 410 307 l 1
 307 307 l 1
410 410 m 1
 410 511 l 1
 512 511 l 1
 512 410 l 1
 410 410 l 1
512 512 m 1
 512 613 l 1
 614 613 l 1
 614 512 l 1
 512 512 l 1
102 614 m 1
 102 716 l 1
 717 716 l 1
 717 614 l 1
 102 614 l 1
EndSplineSet
EndChar

StartChar: uni007B
Encoding: 123 123 123
Width: 819
VWidth: 0
Flags: HW
LayerCount: 2
Fore
SplineSet
410 0 m 1
 410 101 l 1
 717 101 l 1
 717 0 l 1
 410 0 l 1
307 102 m 1
 307 204 l 1
 410 204 l 1
 410 102 l 1
 307 102 l 1
307 205 m 1
 307 306 l 1
 410 306 l 1
 410 205 l 1
 307 205 l 1
307 307 m 1
 307 409 l 1
 410 409 l 1
 410 307 l 1
 307 307 l 1
307 410 m 1
 307 511 l 1
 410 511 l 1
 410 410 l 1
 307 410 l 1
205 512 m 1
 205 613 l 1
 307 613 l 1
 307 512 l 1
 205 512 l 1
307 614 m 1
 307 716 l 1
 410 716 l 1
 410 614 l 1
 307 614 l 1
307 717 m 1
 307 818 l 1
 410 818 l 1
 410 717 l 1
 307 717 l 1
307 819 m 1
 307 921 l 1
 410 921 l 1
 410 819 l 1
 307 819 l 1
307 922 m 1
 307 1023 l 1
 410 1023 l 1
 410 922 l 1
 307 922 l 1
410 1024 m 1
 410 1125 l 1
 717 1125 l 1
 717 1024 l 1
 410 1024 l 1
EndSplineSet
EndChar

StartChar: uni007C
Encoding: 124 124 124
Width: 819
VWidth: 0
Flags: HW
LayerCount: 2
Fore
SplineSet
410 102 m 1
 410 204 l 1
 512 204 l 1
 512 102 l 1
 410 102 l 1
410 205 m 1
 410 306 l 1
 512 306 l 1
 512 205 l 1
 410 205 l 1
410 307 m 1
 410 409 l 1
 512 409 l 1
 512 307 l 1
 410 307 l 1
410 410 m 1
 410 511 l 1
 512 511 l 1
 512 410 l 1
 410 410 l 1
410 717 m 1
 410 818 l 1
 512 818 l 1
 512 717 l 1
 410 717 l 1
410 819 m 1
 410 921 l 1
 512 921 l 1
 512 819 l 1
 410 819 l 1
410 922 m 1
 410 1023 l 1
 512 1023 l 1
 512 922 l 1
 410 922 l 1
410 1024 m 1
 410 1125 l 1
 512 1125 l 1
 512 1024 l 1
 410 1024 l 1
EndSplineSet
EndChar

StartChar: uni007D
Encoding: 125 125 125
Width: 819
VWidth: 0
Flags: HW
LayerCount: 2
Fore
SplineSet
205 0 m 1
 205 101 l 1
 512 101 l 1
 512 0 l 1
 205 0 l 1
512 102 m 1
 512 204 l 1
 614 204 l 1
 614 102 l 1
 512 102 l 1
512 205 m 1
 512 306 l 1
 614 306 l 1
 614 205 l 1
 512 205 l 1
512 307 m 1
 512 409 l 1
 614 409 l 1
 614 307 l 1
 512 307 l 1
512 410 m 1
 512 511 l 1
 614 511 l 1
 614 410 l 1
 512 410 l 1
614 512 m 1
 614 613 l 1
 717 613 l 1
 717 512 l 1
 614 512 l 1
512 614 m 1
 512 716 l 1
 614 716 l 1
 614 614 l 1
 512 614 l 1
512 717 m 1
 512 818 l 1
 614 818 l 1
 614 717 l 1
 512 717 l 1
512 819 m 1
 512 921 l 1
 614 921 l 1
 614 819 l 1
 512 819 l 1
512 922 m 1
 512 1023 l 1
 614 1023 l 1
 614 922 l 1
 512 922 l 1
205 1024 m 1
 205 1125 l 1
 512 1125 l 1
 512 1024 l 1
 205 1024 l 1
EndSplineSet
EndChar

StartChar: uni007E
Encoding: 126 126 126
Width: 819
VWidth: 0
Flags: HW
LayerCount: 2
Fore
SplineSet
512 819 m 1
 512 921 l 1
 717 921 l 1
 717 819 l 1
 512 819 l 1
102 922 m 1
 102 1023 l 1
 205 1023 l 1
 205 922 l 1
 102 922 l 1
410 922 m 1
 410 1023 l 1
 512 1023 l 1
 512 922 l 1
 410 922 l 1
717 922 m 1
 717 1023 l 1
 819 1023 l 1
 819 922 l 1
 717 922 l 1
205 1024 m 1
 205 1125 l 1
 410 1125 l 1
 410 1024 l 1
 205 1024 l 1
EndSplineSet
EndChar

StartChar: uni007F
Encoding: 127 127 127
Width: 819
VWidth: 0
Flags: HW
LayerCount: 2
Fore
SplineSet
717 -409 m 1
 717 -307 l 1
 819 -307 l 1
 819 -409 l 1
 717 -409 l 1
614 -306 m 1
 614 -205 l 1
 819 -205 l 1
 819 -306 l 1
 614 -306 l 1
512 -204 m 1
 512 -102 l 1
 819 -102 l 1
 819 -204 l 1
 512 -204 l 1
512 -101 m 1
 512 -1 l 1
 819 -1 l 1
 819 -101 l 1
 512 -101 l 1
512 0 m 1
 512 101 l 1
 819 101 l 1
 819 0 l 1
 512 0 l 1
410 102 m 1
 410 204 l 1
 819 204 l 1
 819 102 l 1
 410 102 l 1
410 205 m 1
 410 306 l 1
 819 306 l 1
 819 205 l 1
 410 205 l 1
410 307 m 1
 410 409 l 1
 819 409 l 1
 819 307 l 1
 410 307 l 1
307 410 m 1
 307 511 l 1
 819 511 l 1
 819 410 l 1
 307 410 l 1
307 512 m 1
 307 613 l 1
 819 613 l 1
 819 512 l 1
 307 512 l 1
307 614 m 1
 307 716 l 1
 819 716 l 1
 819 614 l 1
 307 614 l 1
205 717 m 1
 205 818 l 1
 819 818 l 1
 819 717 l 1
 205 717 l 1
205 819 m 1
 205 921 l 1
 819 921 l 1
 819 819 l 1
 205 819 l 1
205 922 m 1
 205 1023 l 1
 819 1023 l 1
 819 922 l 1
 205 922 l 1
102 1024 m 1
 102 1125 l 1
 819 1125 l 1
 819 1024 l 1
 102 1024 l 1
0 1126 m 1
 0 1228 l 1
 819 1228 l 1
 819 1126 l 1
 0 1126 l 1
EndSplineSet
EndChar

StartChar: uni0080
Encoding: 128 128 128
Width: 819
VWidth: 0
Flags: HW
LayerCount: 2
Fore
SplineSet
EndSplineSet
EndChar

StartChar: uni0081
Encoding: 129 129 129
Width: 819
VWidth: 0
Flags: HW
LayerCount: 2
Fore
SplineSet
410 819 m 1
 410 921 l 1
 819 921 l 1
 819 819 l 1
 410 819 l 1
410 922 m 1
 410 1023 l 1
 819 1023 l 1
 819 922 l 1
 410 922 l 1
410 1024 m 1
 410 1125 l 1
 819 1125 l 1
 819 1024 l 1
 410 1024 l 1
410 1126 m 1
 410 1228 l 1
 819 1228 l 1
 819 1126 l 1
 410 1126 l 1
EndSplineSet
EndChar

StartChar: uni0082
Encoding: 130 130 130
Width: 819
VWidth: 0
Flags: HW
LayerCount: 2
Fore
SplineSet
0 819 m 1
 0 921 l 1
 410 921 l 1
 410 819 l 1
 0 819 l 1
0 922 m 1
 0 1023 l 1
 410 1023 l 1
 410 922 l 1
 0 922 l 1
0 1024 m 1
 0 1125 l 1
 410 1125 l 1
 410 1024 l 1
 0 1024 l 1
0 1126 m 1
 0 1228 l 1
 410 1228 l 1
 410 1126 l 1
 0 1126 l 1
EndSplineSet
EndChar

StartChar: uni0083
Encoding: 131 131 131
Width: 819
VWidth: 0
Flags: HW
LayerCount: 2
Fore
SplineSet
0 819 m 1
 0 921 l 1
 819 921 l 1
 819 819 l 1
 0 819 l 1
0 922 m 1
 0 1023 l 1
 819 1023 l 1
 819 922 l 1
 0 922 l 1
0 1024 m 1
 0 1125 l 1
 819 1125 l 1
 819 1024 l 1
 0 1024 l 1
0 1126 m 1
 0 1228 l 1
 819 1228 l 1
 819 1126 l 1
 0 1126 l 1
EndSplineSet
EndChar

StartChar: uni0084
Encoding: 132 132 132
Width: 819
VWidth: 0
Flags: HW
LayerCount: 2
Fore
SplineSet
410 410 m 1
 410 511 l 1
 819 511 l 1
 819 410 l 1
 410 410 l 1
410 512 m 1
 410 613 l 1
 819 613 l 1
 819 512 l 1
 410 512 l 1
410 614 m 1
 410 716 l 1
 819 716 l 1
 819 614 l 1
 410 614 l 1
410 717 m 1
 410 818 l 1
 819 818 l 1
 819 717 l 1
 410 717 l 1
EndSplineSet
EndChar

StartChar: uni0085
Encoding: 133 133 133
Width: 819
VWidth: 0
Flags: HW
LayerCount: 2
Fore
SplineSet
410 410 m 1
 410 511 l 1
 819 511 l 1
 819 410 l 1
 410 410 l 1
410 512 m 1
 410 613 l 1
 819 613 l 1
 819 512 l 1
 410 512 l 1
410 614 m 1
 410 716 l 1
 819 716 l 1
 819 614 l 1
 410 614 l 1
410 717 m 1
 410 818 l 1
 819 818 l 1
 819 717 l 1
 410 717 l 1
410 819 m 1
 410 921 l 1
 819 921 l 1
 819 819 l 1
 410 819 l 1
410 922 m 1
 410 1023 l 1
 819 1023 l 1
 819 922 l 1
 410 922 l 1
410 1024 m 1
 410 1125 l 1
 819 1125 l 1
 819 1024 l 1
 410 1024 l 1
410 1126 m 1
 410 1228 l 1
 819 1228 l 1
 819 1126 l 1
 410 1126 l 1
EndSplineSet
EndChar

StartChar: uni0086
Encoding: 134 134 134
Width: 819
VWidth: 0
Flags: HW
LayerCount: 2
Fore
SplineSet
410 410 m 1
 410 511 l 1
 819 511 l 1
 819 410 l 1
 410 410 l 1
410 512 m 1
 410 613 l 1
 819 613 l 1
 819 512 l 1
 410 512 l 1
410 614 m 1
 410 716 l 1
 819 716 l 1
 819 614 l 1
 410 614 l 1
410 717 m 1
 410 818 l 1
 819 818 l 1
 819 717 l 1
 410 717 l 1
0 819 m 1
 0 921 l 1
 410 921 l 1
 410 819 l 1
 0 819 l 1
0 922 m 1
 0 1023 l 1
 410 1023 l 1
 410 922 l 1
 0 922 l 1
0 1024 m 1
 0 1125 l 1
 410 1125 l 1
 410 1024 l 1
 0 1024 l 1
0 1126 m 1
 0 1228 l 1
 410 1228 l 1
 410 1126 l 1
 0 1126 l 1
EndSplineSet
EndChar

StartChar: uni0087
Encoding: 135 135 135
Width: 819
VWidth: 0
Flags: HW
LayerCount: 2
Fore
SplineSet
410 410 m 1
 410 511 l 1
 819 511 l 1
 819 410 l 1
 410 410 l 1
410 512 m 1
 410 613 l 1
 819 613 l 1
 819 512 l 1
 410 512 l 1
410 614 m 1
 410 716 l 1
 819 716 l 1
 819 614 l 1
 410 614 l 1
410 717 m 1
 410 818 l 1
 819 818 l 1
 819 717 l 1
 410 717 l 1
0 819 m 1
 0 921 l 1
 819 921 l 1
 819 819 l 1
 0 819 l 1
0 922 m 1
 0 1023 l 1
 819 1023 l 1
 819 922 l 1
 0 922 l 1
0 1024 m 1
 0 1125 l 1
 819 1125 l 1
 819 1024 l 1
 0 1024 l 1
0 1126 m 1
 0 1228 l 1
 819 1228 l 1
 819 1126 l 1
 0 1126 l 1
EndSplineSet
EndChar

StartChar: uni0088
Encoding: 136 136 136
Width: 819
VWidth: 0
Flags: HW
LayerCount: 2
Fore
SplineSet
0 410 m 1
 0 511 l 1
 410 511 l 1
 410 410 l 1
 0 410 l 1
0 512 m 1
 0 613 l 1
 410 613 l 1
 410 512 l 1
 0 512 l 1
0 614 m 1
 0 716 l 1
 410 716 l 1
 410 614 l 1
 0 614 l 1
0 717 m 1
 0 818 l 1
 410 818 l 1
 410 717 l 1
 0 717 l 1
EndSplineSet
EndChar

StartChar: uni0089
Encoding: 137 137 137
Width: 819
VWidth: 0
Flags: HW
LayerCount: 2
Fore
SplineSet
0 410 m 1
 0 511 l 1
 410 511 l 1
 410 410 l 1
 0 410 l 1
0 512 m 1
 0 613 l 1
 410 613 l 1
 410 512 l 1
 0 512 l 1
0 614 m 1
 0 716 l 1
 410 716 l 1
 410 614 l 1
 0 614 l 1
0 717 m 1
 0 818 l 1
 410 818 l 1
 410 717 l 1
 0 717 l 1
410 819 m 1
 410 921 l 1
 819 921 l 1
 819 819 l 1
 410 819 l 1
410 922 m 1
 410 1023 l 1
 819 1023 l 1
 819 922 l 1
 410 922 l 1
410 1024 m 1
 410 1125 l 1
 819 1125 l 1
 819 1024 l 1
 410 1024 l 1
410 1126 m 1
 410 1228 l 1
 819 1228 l 1
 819 1126 l 1
 410 1126 l 1
EndSplineSet
EndChar

StartChar: uni008A
Encoding: 138 138 138
Width: 819
VWidth: 0
Flags: HW
LayerCount: 2
Fore
SplineSet
0 410 m 1
 0 511 l 1
 410 511 l 1
 410 410 l 1
 0 410 l 1
0 512 m 1
 0 613 l 1
 410 613 l 1
 410 512 l 1
 0 512 l 1
0 614 m 1
 0 716 l 1
 410 716 l 1
 410 614 l 1
 0 614 l 1
0 717 m 1
 0 818 l 1
 410 818 l 1
 410 717 l 1
 0 717 l 1
0 819 m 1
 0 921 l 1
 410 921 l 1
 410 819 l 1
 0 819 l 1
0 922 m 1
 0 1023 l 1
 410 1023 l 1
 410 922 l 1
 0 922 l 1
0 1024 m 1
 0 1125 l 1
 410 1125 l 1
 410 1024 l 1
 0 1024 l 1
0 1126 m 1
 0 1228 l 1
 410 1228 l 1
 410 1126 l 1
 0 1126 l 1
EndSplineSet
EndChar

StartChar: uni008B
Encoding: 139 139 139
Width: 819
VWidth: 0
Flags: HW
LayerCount: 2
Fore
SplineSet
0 410 m 1
 0 511 l 1
 410 511 l 1
 410 410 l 1
 0 410 l 1
0 512 m 1
 0 613 l 1
 410 613 l 1
 410 512 l 1
 0 512 l 1
0 614 m 1
 0 716 l 1
 410 716 l 1
 410 614 l 1
 0 614 l 1
0 717 m 1
 0 818 l 1
 410 818 l 1
 410 717 l 1
 0 717 l 1
0 819 m 1
 0 921 l 1
 819 921 l 1
 819 819 l 1
 0 819 l 1
0 922 m 1
 0 1023 l 1
 819 1023 l 1
 819 922 l 1
 0 922 l 1
0 1024 m 1
 0 1125 l 1
 819 1125 l 1
 819 1024 l 1
 0 1024 l 1
0 1126 m 1
 0 1228 l 1
 819 1228 l 1
 819 1126 l 1
 0 1126 l 1
EndSplineSet
EndChar

StartChar: uni008C
Encoding: 140 140 140
Width: 819
VWidth: 0
Flags: HW
LayerCount: 2
Fore
SplineSet
0 410 m 1
 0 511 l 1
 819 511 l 1
 819 410 l 1
 0 410 l 1
0 512 m 1
 0 613 l 1
 819 613 l 1
 819 512 l 1
 0 512 l 1
0 614 m 1
 0 716 l 1
 819 716 l 1
 819 614 l 1
 0 614 l 1
0 717 m 1
 0 818 l 1
 819 818 l 1
 819 717 l 1
 0 717 l 1
EndSplineSet
EndChar

StartChar: uni008D
Encoding: 141 141 141
Width: 819
VWidth: 0
Flags: HW
LayerCount: 2
Fore
SplineSet
0 410 m 1
 0 511 l 1
 819 511 l 1
 819 410 l 1
 0 410 l 1
0 512 m 1
 0 613 l 1
 819 613 l 1
 819 512 l 1
 0 512 l 1
0 614 m 1
 0 716 l 1
 819 716 l 1
 819 614 l 1
 0 614 l 1
0 717 m 1
 0 818 l 1
 819 818 l 1
 819 717 l 1
 0 717 l 1
410 819 m 1
 410 921 l 1
 819 921 l 1
 819 819 l 1
 410 819 l 1
410 922 m 1
 410 1023 l 1
 819 1023 l 1
 819 922 l 1
 410 922 l 1
410 1024 m 1
 410 1125 l 1
 819 1125 l 1
 819 1024 l 1
 410 1024 l 1
410 1126 m 1
 410 1228 l 1
 819 1228 l 1
 819 1126 l 1
 410 1126 l 1
EndSplineSet
EndChar

StartChar: uni008E
Encoding: 142 142 142
Width: 819
VWidth: 0
Flags: HW
LayerCount: 2
Fore
SplineSet
0 410 m 1
 0 511 l 1
 819 511 l 1
 819 410 l 1
 0 410 l 1
0 512 m 1
 0 613 l 1
 819 613 l 1
 819 512 l 1
 0 512 l 1
0 614 m 1
 0 716 l 1
 819 716 l 1
 819 614 l 1
 0 614 l 1
0 717 m 1
 0 818 l 1
 819 818 l 1
 819 717 l 1
 0 717 l 1
0 819 m 1
 0 921 l 1
 410 921 l 1
 410 819 l 1
 0 819 l 1
0 922 m 1
 0 1023 l 1
 410 1023 l 1
 410 922 l 1
 0 922 l 1
0 1024 m 1
 0 1125 l 1
 410 1125 l 1
 410 1024 l 1
 0 1024 l 1
0 1126 m 1
 0 1228 l 1
 410 1228 l 1
 410 1126 l 1
 0 1126 l 1
EndSplineSet
EndChar

StartChar: uni008F
Encoding: 143 143 143
Width: 819
VWidth: 0
Flags: HW
LayerCount: 2
Fore
SplineSet
0 410 m 1
 0 511 l 1
 819 511 l 1
 819 410 l 1
 0 410 l 1
0 512 m 1
 0 613 l 1
 819 613 l 1
 819 512 l 1
 0 512 l 1
0 614 m 1
 0 716 l 1
 819 716 l 1
 819 614 l 1
 0 614 l 1
0 717 m 1
 0 818 l 1
 819 818 l 1
 819 717 l 1
 0 717 l 1
0 819 m 1
 0 921 l 1
 819 921 l 1
 819 819 l 1
 0 819 l 1
0 922 m 1
 0 1023 l 1
 819 1023 l 1
 819 922 l 1
 0 922 l 1
0 1024 m 1
 0 1125 l 1
 819 1125 l 1
 819 1024 l 1
 0 1024 l 1
0 1126 m 1
 0 1228 l 1
 819 1228 l 1
 819 1126 l 1
 0 1126 l 1
EndSplineSet
EndChar

StartChar: uni0090
Encoding: 144 144 144
Width: 819
VWidth: 0
Flags: HW
LayerCount: 2
Fore
SplineSet
410 0 m 1
 410 101 l 1
 819 101 l 1
 819 0 l 1
 410 0 l 1
410 102 m 1
 410 204 l 1
 819 204 l 1
 819 102 l 1
 410 102 l 1
410 205 m 1
 410 306 l 1
 819 306 l 1
 819 205 l 1
 410 205 l 1
410 307 m 1
 410 409 l 1
 819 409 l 1
 819 307 l 1
 410 307 l 1
EndSplineSet
EndChar

StartChar: uni0091
Encoding: 145 145 145
Width: 819
VWidth: 0
Flags: HW
LayerCount: 2
Fore
SplineSet
410 0 m 1
 410 101 l 1
 819 101 l 1
 819 0 l 1
 410 0 l 1
410 102 m 1
 410 204 l 1
 819 204 l 1
 819 102 l 1
 410 102 l 1
410 205 m 1
 410 306 l 1
 819 306 l 1
 819 205 l 1
 410 205 l 1
410 307 m 1
 410 409 l 1
 819 409 l 1
 819 307 l 1
 410 307 l 1
410 819 m 1
 410 921 l 1
 819 921 l 1
 819 819 l 1
 410 819 l 1
410 922 m 1
 410 1023 l 1
 819 1023 l 1
 819 922 l 1
 410 922 l 1
410 1024 m 1
 410 1125 l 1
 819 1125 l 1
 819 1024 l 1
 410 1024 l 1
410 1126 m 1
 410 1228 l 1
 819 1228 l 1
 819 1126 l 1
 410 1126 l 1
EndSplineSet
EndChar

StartChar: uni0092
Encoding: 146 146 146
Width: 819
VWidth: 0
Flags: HW
LayerCount: 2
Fore
SplineSet
410 0 m 1
 410 101 l 1
 819 101 l 1
 819 0 l 1
 410 0 l 1
410 102 m 1
 410 204 l 1
 819 204 l 1
 819 102 l 1
 410 102 l 1
410 205 m 1
 410 306 l 1
 819 306 l 1
 819 205 l 1
 410 205 l 1
410 307 m 1
 410 409 l 1
 819 409 l 1
 819 307 l 1
 410 307 l 1
0 819 m 1
 0 921 l 1
 410 921 l 1
 410 819 l 1
 0 819 l 1
0 922 m 1
 0 1023 l 1
 410 1023 l 1
 410 922 l 1
 0 922 l 1
0 1024 m 1
 0 1125 l 1
 410 1125 l 1
 410 1024 l 1
 0 1024 l 1
0 1126 m 1
 0 1228 l 1
 410 1228 l 1
 410 1126 l 1
 0 1126 l 1
EndSplineSet
EndChar

StartChar: uni0093
Encoding: 147 147 147
Width: 819
VWidth: 0
Flags: HW
LayerCount: 2
Fore
SplineSet
410 0 m 1
 410 101 l 1
 819 101 l 1
 819 0 l 1
 410 0 l 1
410 102 m 1
 410 204 l 1
 819 204 l 1
 819 102 l 1
 410 102 l 1
410 205 m 1
 410 306 l 1
 819 306 l 1
 819 205 l 1
 410 205 l 1
410 307 m 1
 410 409 l 1
 819 409 l 1
 819 307 l 1
 410 307 l 1
0 819 m 1
 0 921 l 1
 819 921 l 1
 819 819 l 1
 0 819 l 1
0 922 m 1
 0 1023 l 1
 819 1023 l 1
 819 922 l 1
 0 922 l 1
0 1024 m 1
 0 1125 l 1
 819 1125 l 1
 819 1024 l 1
 0 1024 l 1
0 1126 m 1
 0 1228 l 1
 819 1228 l 1
 819 1126 l 1
 0 1126 l 1
EndSplineSet
EndChar

StartChar: uni0094
Encoding: 148 148 148
Width: 819
VWidth: 0
Flags: HW
LayerCount: 2
Fore
SplineSet
410 0 m 1
 410 101 l 1
 819 101 l 1
 819 0 l 1
 410 0 l 1
410 102 m 1
 410 204 l 1
 819 204 l 1
 819 102 l 1
 410 102 l 1
410 205 m 1
 410 306 l 1
 819 306 l 1
 819 205 l 1
 410 205 l 1
410 307 m 1
 410 409 l 1
 819 409 l 1
 819 307 l 1
 410 307 l 1
410 410 m 1
 410 511 l 1
 819 511 l 1
 819 410 l 1
 410 410 l 1
410 512 m 1
 410 613 l 1
 819 613 l 1
 819 512 l 1
 410 512 l 1
410 614 m 1
 410 716 l 1
 819 716 l 1
 819 614 l 1
 410 614 l 1
410 717 m 1
 410 818 l 1
 819 818 l 1
 819 717 l 1
 410 717 l 1
EndSplineSet
EndChar

StartChar: uni0095
Encoding: 149 149 149
Width: 819
VWidth: 0
Flags: HW
LayerCount: 2
Fore
SplineSet
410 0 m 1
 410 101 l 1
 819 101 l 1
 819 0 l 1
 410 0 l 1
410 102 m 1
 410 204 l 1
 819 204 l 1
 819 102 l 1
 410 102 l 1
410 205 m 1
 410 306 l 1
 819 306 l 1
 819 205 l 1
 410 205 l 1
410 307 m 1
 410 409 l 1
 819 409 l 1
 819 307 l 1
 410 307 l 1
410 410 m 1
 410 511 l 1
 819 511 l 1
 819 410 l 1
 410 410 l 1
410 512 m 1
 410 613 l 1
 819 613 l 1
 819 512 l 1
 410 512 l 1
410 614 m 1
 410 716 l 1
 819 716 l 1
 819 614 l 1
 410 614 l 1
410 717 m 1
 410 818 l 1
 819 818 l 1
 819 717 l 1
 410 717 l 1
410 819 m 1
 410 921 l 1
 819 921 l 1
 819 819 l 1
 410 819 l 1
410 922 m 1
 410 1023 l 1
 819 1023 l 1
 819 922 l 1
 410 922 l 1
410 1024 m 1
 410 1125 l 1
 819 1125 l 1
 819 1024 l 1
 410 1024 l 1
410 1126 m 1
 410 1228 l 1
 819 1228 l 1
 819 1126 l 1
 410 1126 l 1
EndSplineSet
EndChar

StartChar: uni0096
Encoding: 150 150 150
Width: 819
VWidth: 0
Flags: HW
LayerCount: 2
Fore
SplineSet
410 0 m 1
 410 101 l 1
 819 101 l 1
 819 0 l 1
 410 0 l 1
410 102 m 1
 410 204 l 1
 819 204 l 1
 819 102 l 1
 410 102 l 1
410 205 m 1
 410 306 l 1
 819 306 l 1
 819 205 l 1
 410 205 l 1
410 307 m 1
 410 409 l 1
 819 409 l 1
 819 307 l 1
 410 307 l 1
410 410 m 1
 410 511 l 1
 819 511 l 1
 819 410 l 1
 410 410 l 1
410 512 m 1
 410 613 l 1
 819 613 l 1
 819 512 l 1
 410 512 l 1
410 614 m 1
 410 716 l 1
 819 716 l 1
 819 614 l 1
 410 614 l 1
410 717 m 1
 410 818 l 1
 819 818 l 1
 819 717 l 1
 410 717 l 1
0 819 m 1
 0 921 l 1
 410 921 l 1
 410 819 l 1
 0 819 l 1
0 922 m 1
 0 1023 l 1
 410 1023 l 1
 410 922 l 1
 0 922 l 1
0 1024 m 1
 0 1125 l 1
 410 1125 l 1
 410 1024 l 1
 0 1024 l 1
0 1126 m 1
 0 1228 l 1
 410 1228 l 1
 410 1126 l 1
 0 1126 l 1
EndSplineSet
EndChar

StartChar: uni0097
Encoding: 151 151 151
Width: 819
VWidth: 0
Flags: HW
LayerCount: 2
Fore
SplineSet
410 0 m 1
 410 101 l 1
 819 101 l 1
 819 0 l 1
 410 0 l 1
410 102 m 1
 410 204 l 1
 819 204 l 1
 819 102 l 1
 410 102 l 1
410 205 m 1
 410 306 l 1
 819 306 l 1
 819 205 l 1
 410 205 l 1
410 307 m 1
 410 409 l 1
 819 409 l 1
 819 307 l 1
 410 307 l 1
410 410 m 1
 410 511 l 1
 819 511 l 1
 819 410 l 1
 410 410 l 1
410 512 m 1
 410 613 l 1
 819 613 l 1
 819 512 l 1
 410 512 l 1
410 614 m 1
 410 716 l 1
 819 716 l 1
 819 614 l 1
 410 614 l 1
410 717 m 1
 410 818 l 1
 819 818 l 1
 819 717 l 1
 410 717 l 1
0 819 m 1
 0 921 l 1
 819 921 l 1
 819 819 l 1
 0 819 l 1
0 922 m 1
 0 1023 l 1
 819 1023 l 1
 819 922 l 1
 0 922 l 1
0 1024 m 1
 0 1125 l 1
 819 1125 l 1
 819 1024 l 1
 0 1024 l 1
0 1126 m 1
 0 1228 l 1
 819 1228 l 1
 819 1126 l 1
 0 1126 l 1
EndSplineSet
EndChar

StartChar: uni0098
Encoding: 152 152 152
Width: 819
VWidth: 0
Flags: HW
LayerCount: 2
Fore
SplineSet
410 0 m 1
 410 101 l 1
 819 101 l 1
 819 0 l 1
 410 0 l 1
410 102 m 1
 410 204 l 1
 819 204 l 1
 819 102 l 1
 410 102 l 1
410 205 m 1
 410 306 l 1
 819 306 l 1
 819 205 l 1
 410 205 l 1
410 307 m 1
 410 409 l 1
 819 409 l 1
 819 307 l 1
 410 307 l 1
0 410 m 1
 0 511 l 1
 410 511 l 1
 410 410 l 1
 0 410 l 1
0 512 m 1
 0 613 l 1
 410 613 l 1
 410 512 l 1
 0 512 l 1
0 614 m 1
 0 716 l 1
 410 716 l 1
 410 614 l 1
 0 614 l 1
0 717 m 1
 0 818 l 1
 410 818 l 1
 410 717 l 1
 0 717 l 1
EndSplineSet
EndChar

StartChar: uni0099
Encoding: 153 153 153
Width: 819
VWidth: 0
Flags: HW
LayerCount: 2
Fore
SplineSet
410 0 m 1
 410 101 l 1
 819 101 l 1
 819 0 l 1
 410 0 l 1
410 102 m 1
 410 204 l 1
 819 204 l 1
 819 102 l 1
 410 102 l 1
410 205 m 1
 410 306 l 1
 819 306 l 1
 819 205 l 1
 410 205 l 1
410 307 m 1
 410 409 l 1
 819 409 l 1
 819 307 l 1
 410 307 l 1
0 410 m 1
 0 511 l 1
 410 511 l 1
 410 410 l 1
 0 410 l 1
0 512 m 1
 0 613 l 1
 410 613 l 1
 410 512 l 1
 0 512 l 1
0 614 m 1
 0 716 l 1
 410 716 l 1
 410 614 l 1
 0 614 l 1
0 717 m 1
 0 818 l 1
 410 818 l 1
 410 717 l 1
 0 717 l 1
410 819 m 1
 410 921 l 1
 819 921 l 1
 819 819 l 1
 410 819 l 1
410 922 m 1
 410 1023 l 1
 819 1023 l 1
 819 922 l 1
 410 922 l 1
410 1024 m 1
 410 1125 l 1
 819 1125 l 1
 819 1024 l 1
 410 1024 l 1
410 1126 m 1
 410 1228 l 1
 819 1228 l 1
 819 1126 l 1
 410 1126 l 1
EndSplineSet
EndChar

StartChar: uni009A
Encoding: 154 154 154
Width: 819
VWidth: 0
Flags: HW
LayerCount: 2
Fore
SplineSet
410 0 m 1
 410 101 l 1
 819 101 l 1
 819 0 l 1
 410 0 l 1
410 102 m 1
 410 204 l 1
 819 204 l 1
 819 102 l 1
 410 102 l 1
410 205 m 1
 410 306 l 1
 819 306 l 1
 819 205 l 1
 410 205 l 1
410 307 m 1
 410 409 l 1
 819 409 l 1
 819 307 l 1
 410 307 l 1
0 410 m 1
 0 511 l 1
 410 511 l 1
 410 410 l 1
 0 410 l 1
0 512 m 1
 0 613 l 1
 410 613 l 1
 410 512 l 1
 0 512 l 1
0 614 m 1
 0 716 l 1
 410 716 l 1
 410 614 l 1
 0 614 l 1
0 717 m 1
 0 818 l 1
 410 818 l 1
 410 717 l 1
 0 717 l 1
0 819 m 1
 0 921 l 1
 410 921 l 1
 410 819 l 1
 0 819 l 1
0 922 m 1
 0 1023 l 1
 410 1023 l 1
 410 922 l 1
 0 922 l 1
0 1024 m 1
 0 1125 l 1
 410 1125 l 1
 410 1024 l 1
 0 1024 l 1
0 1126 m 1
 0 1228 l 1
 410 1228 l 1
 410 1126 l 1
 0 1126 l 1
EndSplineSet
EndChar

StartChar: uni009B
Encoding: 155 155 155
Width: 819
VWidth: 0
Flags: HW
LayerCount: 2
Fore
SplineSet
410 0 m 1
 410 101 l 1
 819 101 l 1
 819 0 l 1
 410 0 l 1
410 102 m 1
 410 204 l 1
 819 204 l 1
 819 102 l 1
 410 102 l 1
410 205 m 1
 410 306 l 1
 819 306 l 1
 819 205 l 1
 410 205 l 1
410 307 m 1
 410 409 l 1
 819 409 l 1
 819 307 l 1
 410 307 l 1
0 410 m 1
 0 511 l 1
 410 511 l 1
 410 410 l 1
 0 410 l 1
0 512 m 1
 0 613 l 1
 410 613 l 1
 410 512 l 1
 0 512 l 1
0 614 m 1
 0 716 l 1
 410 716 l 1
 410 614 l 1
 0 614 l 1
0 717 m 1
 0 818 l 1
 410 818 l 1
 410 717 l 1
 0 717 l 1
0 819 m 1
 0 921 l 1
 819 921 l 1
 819 819 l 1
 0 819 l 1
0 922 m 1
 0 1023 l 1
 819 1023 l 1
 819 922 l 1
 0 922 l 1
0 1024 m 1
 0 1125 l 1
 819 1125 l 1
 819 1024 l 1
 0 1024 l 1
0 1126 m 1
 0 1228 l 1
 819 1228 l 1
 819 1126 l 1
 0 1126 l 1
EndSplineSet
EndChar

StartChar: uni009C
Encoding: 156 156 156
Width: 819
VWidth: 0
Flags: HW
LayerCount: 2
Fore
SplineSet
410 0 m 1
 410 101 l 1
 819 101 l 1
 819 0 l 1
 410 0 l 1
410 102 m 1
 410 204 l 1
 819 204 l 1
 819 102 l 1
 410 102 l 1
410 205 m 1
 410 306 l 1
 819 306 l 1
 819 205 l 1
 410 205 l 1
410 307 m 1
 410 409 l 1
 819 409 l 1
 819 307 l 1
 410 307 l 1
0 410 m 1
 0 511 l 1
 819 511 l 1
 819 410 l 1
 0 410 l 1
0 512 m 1
 0 613 l 1
 819 613 l 1
 819 512 l 1
 0 512 l 1
0 614 m 1
 0 716 l 1
 819 716 l 1
 819 614 l 1
 0 614 l 1
0 717 m 1
 0 818 l 1
 819 818 l 1
 819 717 l 1
 0 717 l 1
EndSplineSet
EndChar

StartChar: uni009D
Encoding: 157 157 157
Width: 819
VWidth: 0
Flags: HW
LayerCount: 2
Fore
SplineSet
410 0 m 1
 410 101 l 1
 819 101 l 1
 819 0 l 1
 410 0 l 1
410 102 m 1
 410 204 l 1
 819 204 l 1
 819 102 l 1
 410 102 l 1
410 205 m 1
 410 306 l 1
 819 306 l 1
 819 205 l 1
 410 205 l 1
410 307 m 1
 410 409 l 1
 819 409 l 1
 819 307 l 1
 410 307 l 1
0 410 m 1
 0 511 l 1
 819 511 l 1
 819 410 l 1
 0 410 l 1
0 512 m 1
 0 613 l 1
 819 613 l 1
 819 512 l 1
 0 512 l 1
0 614 m 1
 0 716 l 1
 819 716 l 1
 819 614 l 1
 0 614 l 1
0 717 m 1
 0 818 l 1
 819 818 l 1
 819 717 l 1
 0 717 l 1
410 819 m 1
 410 921 l 1
 819 921 l 1
 819 819 l 1
 410 819 l 1
410 922 m 1
 410 1023 l 1
 819 1023 l 1
 819 922 l 1
 410 922 l 1
410 1024 m 1
 410 1125 l 1
 819 1125 l 1
 819 1024 l 1
 410 1024 l 1
410 1126 m 1
 410 1228 l 1
 819 1228 l 1
 819 1126 l 1
 410 1126 l 1
EndSplineSet
EndChar

StartChar: uni009E
Encoding: 158 158 158
Width: 819
VWidth: 0
Flags: HW
LayerCount: 2
Fore
SplineSet
410 0 m 1
 410 101 l 1
 819 101 l 1
 819 0 l 1
 410 0 l 1
410 102 m 1
 410 204 l 1
 819 204 l 1
 819 102 l 1
 410 102 l 1
410 205 m 1
 410 306 l 1
 819 306 l 1
 819 205 l 1
 410 205 l 1
410 307 m 1
 410 409 l 1
 819 409 l 1
 819 307 l 1
 410 307 l 1
0 410 m 1
 0 511 l 1
 819 511 l 1
 819 410 l 1
 0 410 l 1
0 512 m 1
 0 613 l 1
 819 613 l 1
 819 512 l 1
 0 512 l 1
0 614 m 1
 0 716 l 1
 819 716 l 1
 819 614 l 1
 0 614 l 1
0 717 m 1
 0 818 l 1
 819 818 l 1
 819 717 l 1
 0 717 l 1
0 819 m 1
 0 921 l 1
 410 921 l 1
 410 819 l 1
 0 819 l 1
0 922 m 1
 0 1023 l 1
 410 1023 l 1
 410 922 l 1
 0 922 l 1
0 1024 m 1
 0 1125 l 1
 410 1125 l 1
 410 1024 l 1
 0 1024 l 1
0 1126 m 1
 0 1228 l 1
 410 1228 l 1
 410 1126 l 1
 0 1126 l 1
EndSplineSet
EndChar

StartChar: uni009F
Encoding: 159 159 159
Width: 819
VWidth: 0
Flags: HW
LayerCount: 2
Fore
SplineSet
410 0 m 1
 410 101 l 1
 819 101 l 1
 819 0 l 1
 410 0 l 1
410 102 m 1
 410 204 l 1
 819 204 l 1
 819 102 l 1
 410 102 l 1
410 205 m 1
 410 306 l 1
 819 306 l 1
 819 205 l 1
 410 205 l 1
410 307 m 1
 410 409 l 1
 819 409 l 1
 819 307 l 1
 410 307 l 1
0 410 m 1
 0 511 l 1
 819 511 l 1
 819 410 l 1
 0 410 l 1
0 512 m 1
 0 613 l 1
 819 613 l 1
 819 512 l 1
 0 512 l 1
0 614 m 1
 0 716 l 1
 819 716 l 1
 819 614 l 1
 0 614 l 1
0 717 m 1
 0 818 l 1
 819 818 l 1
 819 717 l 1
 0 717 l 1
0 819 m 1
 0 921 l 1
 819 921 l 1
 819 819 l 1
 0 819 l 1
0 922 m 1
 0 1023 l 1
 819 1023 l 1
 819 922 l 1
 0 922 l 1
0 1024 m 1
 0 1125 l 1
 819 1125 l 1
 819 1024 l 1
 0 1024 l 1
0 1126 m 1
 0 1228 l 1
 819 1228 l 1
 819 1126 l 1
 0 1126 l 1
EndSplineSet
EndChar

StartChar: uni00A0
Encoding: 160 160 160
Width: 819
VWidth: 0
Flags: HW
LayerCount: 2
Fore
SplineSet
0 0 m 1
 0 101 l 1
 410 101 l 1
 410 0 l 1
 0 0 l 1
0 102 m 1
 0 204 l 1
 410 204 l 1
 410 102 l 1
 0 102 l 1
0 205 m 1
 0 306 l 1
 410 306 l 1
 410 205 l 1
 0 205 l 1
0 307 m 1
 0 409 l 1
 410 409 l 1
 410 307 l 1
 0 307 l 1
EndSplineSet
EndChar

StartChar: uni00A1
Encoding: 161 161 161
Width: 819
VWidth: 0
Flags: HW
LayerCount: 2
Fore
SplineSet
0 0 m 1
 0 101 l 1
 410 101 l 1
 410 0 l 1
 0 0 l 1
0 102 m 1
 0 204 l 1
 410 204 l 1
 410 102 l 1
 0 102 l 1
0 205 m 1
 0 306 l 1
 410 306 l 1
 410 205 l 1
 0 205 l 1
0 307 m 1
 0 409 l 1
 410 409 l 1
 410 307 l 1
 0 307 l 1
410 819 m 1
 410 921 l 1
 819 921 l 1
 819 819 l 1
 410 819 l 1
410 922 m 1
 410 1023 l 1
 819 1023 l 1
 819 922 l 1
 410 922 l 1
410 1024 m 1
 410 1125 l 1
 819 1125 l 1
 819 1024 l 1
 410 1024 l 1
410 1126 m 1
 410 1228 l 1
 819 1228 l 1
 819 1126 l 1
 410 1126 l 1
EndSplineSet
EndChar

StartChar: uni00A2
Encoding: 162 162 162
Width: 819
VWidth: 0
Flags: HW
LayerCount: 2
Fore
SplineSet
0 0 m 1
 0 101 l 1
 410 101 l 1
 410 0 l 1
 0 0 l 1
0 102 m 1
 0 204 l 1
 410 204 l 1
 410 102 l 1
 0 102 l 1
0 205 m 1
 0 306 l 1
 410 306 l 1
 410 205 l 1
 0 205 l 1
0 307 m 1
 0 409 l 1
 410 409 l 1
 410 307 l 1
 0 307 l 1
0 819 m 1
 0 921 l 1
 410 921 l 1
 410 819 l 1
 0 819 l 1
0 922 m 1
 0 1023 l 1
 410 1023 l 1
 410 922 l 1
 0 922 l 1
0 1024 m 1
 0 1125 l 1
 410 1125 l 1
 410 1024 l 1
 0 1024 l 1
0 1126 m 1
 0 1228 l 1
 410 1228 l 1
 410 1126 l 1
 0 1126 l 1
EndSplineSet
EndChar

StartChar: uni00A3
Encoding: 163 163 163
Width: 819
VWidth: 0
Flags: HW
LayerCount: 2
Fore
SplineSet
0 0 m 1
 0 101 l 1
 410 101 l 1
 410 0 l 1
 0 0 l 1
0 102 m 1
 0 204 l 1
 410 204 l 1
 410 102 l 1
 0 102 l 1
0 205 m 1
 0 306 l 1
 410 306 l 1
 410 205 l 1
 0 205 l 1
0 307 m 1
 0 409 l 1
 410 409 l 1
 410 307 l 1
 0 307 l 1
0 819 m 1
 0 921 l 1
 819 921 l 1
 819 819 l 1
 0 819 l 1
0 922 m 1
 0 1023 l 1
 819 1023 l 1
 819 922 l 1
 0 922 l 1
0 1024 m 1
 0 1125 l 1
 819 1125 l 1
 819 1024 l 1
 0 1024 l 1
0 1126 m 1
 0 1228 l 1
 819 1228 l 1
 819 1126 l 1
 0 1126 l 1
EndSplineSet
EndChar

StartChar: uni00A4
Encoding: 164 164 164
Width: 819
VWidth: 0
Flags: HW
LayerCount: 2
Fore
SplineSet
0 0 m 1
 0 101 l 1
 410 101 l 1
 410 0 l 1
 0 0 l 1
0 102 m 1
 0 204 l 1
 410 204 l 1
 410 102 l 1
 0 102 l 1
0 205 m 1
 0 306 l 1
 410 306 l 1
 410 205 l 1
 0 205 l 1
0 307 m 1
 0 409 l 1
 410 409 l 1
 410 307 l 1
 0 307 l 1
410 410 m 1
 410 511 l 1
 819 511 l 1
 819 410 l 1
 410 410 l 1
410 512 m 1
 410 613 l 1
 819 613 l 1
 819 512 l 1
 410 512 l 1
410 614 m 1
 410 716 l 1
 819 716 l 1
 819 614 l 1
 410 614 l 1
410 717 m 1
 410 818 l 1
 819 818 l 1
 819 717 l 1
 410 717 l 1
EndSplineSet
EndChar

StartChar: uni00A5
Encoding: 165 165 165
Width: 819
VWidth: 0
Flags: HW
LayerCount: 2
Fore
SplineSet
0 0 m 1
 0 101 l 1
 410 101 l 1
 410 0 l 1
 0 0 l 1
0 102 m 1
 0 204 l 1
 410 204 l 1
 410 102 l 1
 0 102 l 1
0 205 m 1
 0 306 l 1
 410 306 l 1
 410 205 l 1
 0 205 l 1
0 307 m 1
 0 409 l 1
 410 409 l 1
 410 307 l 1
 0 307 l 1
410 410 m 1
 410 511 l 1
 819 511 l 1
 819 410 l 1
 410 410 l 1
410 512 m 1
 410 613 l 1
 819 613 l 1
 819 512 l 1
 410 512 l 1
410 614 m 1
 410 716 l 1
 819 716 l 1
 819 614 l 1
 410 614 l 1
410 717 m 1
 410 818 l 1
 819 818 l 1
 819 717 l 1
 410 717 l 1
410 819 m 1
 410 921 l 1
 819 921 l 1
 819 819 l 1
 410 819 l 1
410 922 m 1
 410 1023 l 1
 819 1023 l 1
 819 922 l 1
 410 922 l 1
410 1024 m 1
 410 1125 l 1
 819 1125 l 1
 819 1024 l 1
 410 1024 l 1
410 1126 m 1
 410 1228 l 1
 819 1228 l 1
 819 1126 l 1
 410 1126 l 1
EndSplineSet
EndChar

StartChar: uni00A6
Encoding: 166 166 166
Width: 819
VWidth: 0
Flags: HW
LayerCount: 2
Fore
SplineSet
0 0 m 1
 0 101 l 1
 410 101 l 1
 410 0 l 1
 0 0 l 1
0 102 m 1
 0 204 l 1
 410 204 l 1
 410 102 l 1
 0 102 l 1
0 205 m 1
 0 306 l 1
 410 306 l 1
 410 205 l 1
 0 205 l 1
0 307 m 1
 0 409 l 1
 410 409 l 1
 410 307 l 1
 0 307 l 1
410 410 m 1
 410 511 l 1
 819 511 l 1
 819 410 l 1
 410 410 l 1
410 512 m 1
 410 613 l 1
 819 613 l 1
 819 512 l 1
 410 512 l 1
410 614 m 1
 410 716 l 1
 819 716 l 1
 819 614 l 1
 410 614 l 1
410 717 m 1
 410 818 l 1
 819 818 l 1
 819 717 l 1
 410 717 l 1
0 819 m 1
 0 921 l 1
 410 921 l 1
 410 819 l 1
 0 819 l 1
0 922 m 1
 0 1023 l 1
 410 1023 l 1
 410 922 l 1
 0 922 l 1
0 1024 m 1
 0 1125 l 1
 410 1125 l 1
 410 1024 l 1
 0 1024 l 1
0 1126 m 1
 0 1228 l 1
 410 1228 l 1
 410 1126 l 1
 0 1126 l 1
EndSplineSet
EndChar

StartChar: uni00A7
Encoding: 167 167 167
Width: 819
VWidth: 0
Flags: HW
LayerCount: 2
Fore
SplineSet
0 0 m 1
 0 101 l 1
 410 101 l 1
 410 0 l 1
 0 0 l 1
0 102 m 1
 0 204 l 1
 410 204 l 1
 410 102 l 1
 0 102 l 1
0 205 m 1
 0 306 l 1
 410 306 l 1
 410 205 l 1
 0 205 l 1
0 307 m 1
 0 409 l 1
 410 409 l 1
 410 307 l 1
 0 307 l 1
410 410 m 1
 410 511 l 1
 819 511 l 1
 819 410 l 1
 410 410 l 1
410 512 m 1
 410 613 l 1
 819 613 l 1
 819 512 l 1
 410 512 l 1
410 614 m 1
 410 716 l 1
 819 716 l 1
 819 614 l 1
 410 614 l 1
410 717 m 1
 410 818 l 1
 819 818 l 1
 819 717 l 1
 410 717 l 1
0 819 m 1
 0 921 l 1
 819 921 l 1
 819 819 l 1
 0 819 l 1
0 922 m 1
 0 1023 l 1
 819 1023 l 1
 819 922 l 1
 0 922 l 1
0 1024 m 1
 0 1125 l 1
 819 1125 l 1
 819 1024 l 1
 0 1024 l 1
0 1126 m 1
 0 1228 l 1
 819 1228 l 1
 819 1126 l 1
 0 1126 l 1
EndSplineSet
EndChar

StartChar: uni00A8
Encoding: 168 168 168
Width: 819
VWidth: 0
Flags: HW
LayerCount: 2
Fore
SplineSet
0 0 m 1
 0 101 l 1
 410 101 l 1
 410 0 l 1
 0 0 l 1
0 102 m 1
 0 204 l 1
 410 204 l 1
 410 102 l 1
 0 102 l 1
0 205 m 1
 0 306 l 1
 410 306 l 1
 410 205 l 1
 0 205 l 1
0 307 m 1
 0 409 l 1
 410 409 l 1
 410 307 l 1
 0 307 l 1
0 410 m 1
 0 511 l 1
 410 511 l 1
 410 410 l 1
 0 410 l 1
0 512 m 1
 0 613 l 1
 410 613 l 1
 410 512 l 1
 0 512 l 1
0 614 m 1
 0 716 l 1
 410 716 l 1
 410 614 l 1
 0 614 l 1
0 717 m 1
 0 818 l 1
 410 818 l 1
 410 717 l 1
 0 717 l 1
EndSplineSet
EndChar

StartChar: uni00A9
Encoding: 169 169 169
Width: 819
VWidth: 0
Flags: HW
LayerCount: 2
Fore
SplineSet
0 0 m 1
 0 101 l 1
 410 101 l 1
 410 0 l 1
 0 0 l 1
0 102 m 1
 0 204 l 1
 410 204 l 1
 410 102 l 1
 0 102 l 1
0 205 m 1
 0 306 l 1
 410 306 l 1
 410 205 l 1
 0 205 l 1
0 307 m 1
 0 409 l 1
 410 409 l 1
 410 307 l 1
 0 307 l 1
0 410 m 1
 0 511 l 1
 410 511 l 1
 410 410 l 1
 0 410 l 1
0 512 m 1
 0 613 l 1
 410 613 l 1
 410 512 l 1
 0 512 l 1
0 614 m 1
 0 716 l 1
 410 716 l 1
 410 614 l 1
 0 614 l 1
0 717 m 1
 0 818 l 1
 410 818 l 1
 410 717 l 1
 0 717 l 1
410 819 m 1
 410 921 l 1
 819 921 l 1
 819 819 l 1
 410 819 l 1
410 922 m 1
 410 1023 l 1
 819 1023 l 1
 819 922 l 1
 410 922 l 1
410 1024 m 1
 410 1125 l 1
 819 1125 l 1
 819 1024 l 1
 410 1024 l 1
410 1126 m 1
 410 1228 l 1
 819 1228 l 1
 819 1126 l 1
 410 1126 l 1
EndSplineSet
EndChar

StartChar: uni00AA
Encoding: 170 170 170
Width: 819
VWidth: 0
Flags: HW
LayerCount: 2
Fore
SplineSet
0 0 m 1
 0 101 l 1
 410 101 l 1
 410 0 l 1
 0 0 l 1
0 102 m 1
 0 204 l 1
 410 204 l 1
 410 102 l 1
 0 102 l 1
0 205 m 1
 0 306 l 1
 410 306 l 1
 410 205 l 1
 0 205 l 1
0 307 m 1
 0 409 l 1
 410 409 l 1
 410 307 l 1
 0 307 l 1
0 410 m 1
 0 511 l 1
 410 511 l 1
 410 410 l 1
 0 410 l 1
0 512 m 1
 0 613 l 1
 410 613 l 1
 410 512 l 1
 0 512 l 1
0 614 m 1
 0 716 l 1
 410 716 l 1
 410 614 l 1
 0 614 l 1
0 717 m 1
 0 818 l 1
 410 818 l 1
 410 717 l 1
 0 717 l 1
0 819 m 1
 0 921 l 1
 410 921 l 1
 410 819 l 1
 0 819 l 1
0 922 m 1
 0 1023 l 1
 410 1023 l 1
 410 922 l 1
 0 922 l 1
0 1024 m 1
 0 1125 l 1
 410 1125 l 1
 410 1024 l 1
 0 1024 l 1
0 1126 m 1
 0 1228 l 1
 410 1228 l 1
 410 1126 l 1
 0 1126 l 1
EndSplineSet
EndChar

StartChar: uni00AB
Encoding: 171 171 171
Width: 819
VWidth: 0
Flags: HW
LayerCount: 2
Fore
SplineSet
0 0 m 1
 0 101 l 1
 410 101 l 1
 410 0 l 1
 0 0 l 1
0 102 m 1
 0 204 l 1
 410 204 l 1
 410 102 l 1
 0 102 l 1
0 205 m 1
 0 306 l 1
 410 306 l 1
 410 205 l 1
 0 205 l 1
0 307 m 1
 0 409 l 1
 410 409 l 1
 410 307 l 1
 0 307 l 1
0 410 m 1
 0 511 l 1
 410 511 l 1
 410 410 l 1
 0 410 l 1
0 512 m 1
 0 613 l 1
 410 613 l 1
 410 512 l 1
 0 512 l 1
0 614 m 1
 0 716 l 1
 410 716 l 1
 410 614 l 1
 0 614 l 1
0 717 m 1
 0 818 l 1
 410 818 l 1
 410 717 l 1
 0 717 l 1
0 819 m 1
 0 921 l 1
 819 921 l 1
 819 819 l 1
 0 819 l 1
0 922 m 1
 0 1023 l 1
 819 1023 l 1
 819 922 l 1
 0 922 l 1
0 1024 m 1
 0 1125 l 1
 819 1125 l 1
 819 1024 l 1
 0 1024 l 1
0 1126 m 1
 0 1228 l 1
 819 1228 l 1
 819 1126 l 1
 0 1126 l 1
EndSplineSet
EndChar

StartChar: uni00AC
Encoding: 172 172 172
Width: 819
VWidth: 0
Flags: HW
LayerCount: 2
Fore
SplineSet
0 0 m 1
 0 101 l 1
 410 101 l 1
 410 0 l 1
 0 0 l 1
0 102 m 1
 0 204 l 1
 410 204 l 1
 410 102 l 1
 0 102 l 1
0 205 m 1
 0 306 l 1
 410 306 l 1
 410 205 l 1
 0 205 l 1
0 307 m 1
 0 409 l 1
 410 409 l 1
 410 307 l 1
 0 307 l 1
0 410 m 1
 0 511 l 1
 819 511 l 1
 819 410 l 1
 0 410 l 1
0 512 m 1
 0 613 l 1
 819 613 l 1
 819 512 l 1
 0 512 l 1
0 614 m 1
 0 716 l 1
 819 716 l 1
 819 614 l 1
 0 614 l 1
0 717 m 1
 0 818 l 1
 819 818 l 1
 819 717 l 1
 0 717 l 1
EndSplineSet
EndChar

StartChar: uni00AD
Encoding: 173 173 173
Width: 819
VWidth: 0
Flags: HW
LayerCount: 2
Fore
SplineSet
0 0 m 1
 0 101 l 1
 410 101 l 1
 410 0 l 1
 0 0 l 1
0 102 m 1
 0 204 l 1
 410 204 l 1
 410 102 l 1
 0 102 l 1
0 205 m 1
 0 306 l 1
 410 306 l 1
 410 205 l 1
 0 205 l 1
0 307 m 1
 0 409 l 1
 410 409 l 1
 410 307 l 1
 0 307 l 1
0 410 m 1
 0 511 l 1
 819 511 l 1
 819 410 l 1
 0 410 l 1
0 512 m 1
 0 613 l 1
 819 613 l 1
 819 512 l 1
 0 512 l 1
0 614 m 1
 0 716 l 1
 819 716 l 1
 819 614 l 1
 0 614 l 1
0 717 m 1
 0 818 l 1
 819 818 l 1
 819 717 l 1
 0 717 l 1
410 819 m 1
 410 921 l 1
 819 921 l 1
 819 819 l 1
 410 819 l 1
410 922 m 1
 410 1023 l 1
 819 1023 l 1
 819 922 l 1
 410 922 l 1
410 1024 m 1
 410 1125 l 1
 819 1125 l 1
 819 1024 l 1
 410 1024 l 1
410 1126 m 1
 410 1228 l 1
 819 1228 l 1
 819 1126 l 1
 410 1126 l 1
EndSplineSet
EndChar

StartChar: uni00AE
Encoding: 174 174 174
Width: 819
VWidth: 0
Flags: HW
LayerCount: 2
Fore
SplineSet
0 0 m 1
 0 101 l 1
 410 101 l 1
 410 0 l 1
 0 0 l 1
0 102 m 1
 0 204 l 1
 410 204 l 1
 410 102 l 1
 0 102 l 1
0 205 m 1
 0 306 l 1
 410 306 l 1
 410 205 l 1
 0 205 l 1
0 307 m 1
 0 409 l 1
 410 409 l 1
 410 307 l 1
 0 307 l 1
0 410 m 1
 0 511 l 1
 819 511 l 1
 819 410 l 1
 0 410 l 1
0 512 m 1
 0 613 l 1
 819 613 l 1
 819 512 l 1
 0 512 l 1
0 614 m 1
 0 716 l 1
 819 716 l 1
 819 614 l 1
 0 614 l 1
0 717 m 1
 0 818 l 1
 819 818 l 1
 819 717 l 1
 0 717 l 1
0 819 m 1
 0 921 l 1
 410 921 l 1
 410 819 l 1
 0 819 l 1
0 922 m 1
 0 1023 l 1
 410 1023 l 1
 410 922 l 1
 0 922 l 1
0 1024 m 1
 0 1125 l 1
 410 1125 l 1
 410 1024 l 1
 0 1024 l 1
0 1126 m 1
 0 1228 l 1
 410 1228 l 1
 410 1126 l 1
 0 1126 l 1
EndSplineSet
EndChar

StartChar: uni00AF
Encoding: 175 175 175
Width: 819
VWidth: 0
Flags: HW
LayerCount: 2
Fore
SplineSet
0 0 m 1
 0 101 l 1
 410 101 l 1
 410 0 l 1
 0 0 l 1
0 102 m 1
 0 204 l 1
 410 204 l 1
 410 102 l 1
 0 102 l 1
0 205 m 1
 0 306 l 1
 410 306 l 1
 410 205 l 1
 0 205 l 1
0 307 m 1
 0 409 l 1
 410 409 l 1
 410 307 l 1
 0 307 l 1
0 410 m 1
 0 511 l 1
 819 511 l 1
 819 410 l 1
 0 410 l 1
0 512 m 1
 0 613 l 1
 819 613 l 1
 819 512 l 1
 0 512 l 1
0 614 m 1
 0 716 l 1
 819 716 l 1
 819 614 l 1
 0 614 l 1
0 717 m 1
 0 818 l 1
 819 818 l 1
 819 717 l 1
 0 717 l 1
0 819 m 1
 0 921 l 1
 819 921 l 1
 819 819 l 1
 0 819 l 1
0 922 m 1
 0 1023 l 1
 819 1023 l 1
 819 922 l 1
 0 922 l 1
0 1024 m 1
 0 1125 l 1
 819 1125 l 1
 819 1024 l 1
 0 1024 l 1
0 1126 m 1
 0 1228 l 1
 819 1228 l 1
 819 1126 l 1
 0 1126 l 1
EndSplineSet
EndChar

StartChar: uni00B0
Encoding: 176 176 176
Width: 819
VWidth: 0
Flags: HW
LayerCount: 2
Fore
SplineSet
0 0 m 1
 0 101 l 1
 819 101 l 1
 819 0 l 1
 0 0 l 1
0 102 m 1
 0 204 l 1
 819 204 l 1
 819 102 l 1
 0 102 l 1
0 205 m 1
 0 306 l 1
 819 306 l 1
 819 205 l 1
 0 205 l 1
0 307 m 1
 0 409 l 1
 819 409 l 1
 819 307 l 1
 0 307 l 1
EndSplineSet
EndChar

StartChar: uni00B1
Encoding: 177 177 177
Width: 819
VWidth: 0
Flags: HW
LayerCount: 2
Fore
SplineSet
0 0 m 1
 0 101 l 1
 819 101 l 1
 819 0 l 1
 0 0 l 1
0 102 m 1
 0 204 l 1
 819 204 l 1
 819 102 l 1
 0 102 l 1
0 205 m 1
 0 306 l 1
 819 306 l 1
 819 205 l 1
 0 205 l 1
0 307 m 1
 0 409 l 1
 819 409 l 1
 819 307 l 1
 0 307 l 1
410 819 m 1
 410 921 l 1
 819 921 l 1
 819 819 l 1
 410 819 l 1
410 922 m 1
 410 1023 l 1
 819 1023 l 1
 819 922 l 1
 410 922 l 1
410 1024 m 1
 410 1125 l 1
 819 1125 l 1
 819 1024 l 1
 410 1024 l 1
410 1126 m 1
 410 1228 l 1
 819 1228 l 1
 819 1126 l 1
 410 1126 l 1
EndSplineSet
EndChar

StartChar: uni00B2
Encoding: 178 178 178
Width: 819
VWidth: 0
Flags: HW
LayerCount: 2
Fore
SplineSet
0 0 m 1
 0 101 l 1
 819 101 l 1
 819 0 l 1
 0 0 l 1
0 102 m 1
 0 204 l 1
 819 204 l 1
 819 102 l 1
 0 102 l 1
0 205 m 1
 0 306 l 1
 819 306 l 1
 819 205 l 1
 0 205 l 1
0 307 m 1
 0 409 l 1
 819 409 l 1
 819 307 l 1
 0 307 l 1
0 819 m 1
 0 921 l 1
 410 921 l 1
 410 819 l 1
 0 819 l 1
0 922 m 1
 0 1023 l 1
 410 1023 l 1
 410 922 l 1
 0 922 l 1
0 1024 m 1
 0 1125 l 1
 410 1125 l 1
 410 1024 l 1
 0 1024 l 1
0 1126 m 1
 0 1228 l 1
 410 1228 l 1
 410 1126 l 1
 0 1126 l 1
EndSplineSet
EndChar

StartChar: uni00B3
Encoding: 179 179 179
Width: 819
VWidth: 0
Flags: HW
LayerCount: 2
Fore
SplineSet
0 0 m 1
 0 101 l 1
 819 101 l 1
 819 0 l 1
 0 0 l 1
0 102 m 1
 0 204 l 1
 819 204 l 1
 819 102 l 1
 0 102 l 1
0 205 m 1
 0 306 l 1
 819 306 l 1
 819 205 l 1
 0 205 l 1
0 307 m 1
 0 409 l 1
 819 409 l 1
 819 307 l 1
 0 307 l 1
0 819 m 1
 0 921 l 1
 819 921 l 1
 819 819 l 1
 0 819 l 1
0 922 m 1
 0 1023 l 1
 819 1023 l 1
 819 922 l 1
 0 922 l 1
0 1024 m 1
 0 1125 l 1
 819 1125 l 1
 819 1024 l 1
 0 1024 l 1
0 1126 m 1
 0 1228 l 1
 819 1228 l 1
 819 1126 l 1
 0 1126 l 1
EndSplineSet
EndChar

StartChar: uni00B4
Encoding: 180 180 180
Width: 819
VWidth: 0
Flags: HW
LayerCount: 2
Fore
SplineSet
0 0 m 1
 0 101 l 1
 819 101 l 1
 819 0 l 1
 0 0 l 1
0 102 m 1
 0 204 l 1
 819 204 l 1
 819 102 l 1
 0 102 l 1
0 205 m 1
 0 306 l 1
 819 306 l 1
 819 205 l 1
 0 205 l 1
0 307 m 1
 0 409 l 1
 819 409 l 1
 819 307 l 1
 0 307 l 1
410 410 m 1
 410 511 l 1
 819 511 l 1
 819 410 l 1
 410 410 l 1
410 512 m 1
 410 613 l 1
 819 613 l 1
 819 512 l 1
 410 512 l 1
410 614 m 1
 410 716 l 1
 819 716 l 1
 819 614 l 1
 410 614 l 1
410 717 m 1
 410 818 l 1
 819 818 l 1
 819 717 l 1
 410 717 l 1
EndSplineSet
EndChar

StartChar: uni00B5
Encoding: 181 181 181
Width: 819
VWidth: 0
Flags: HW
LayerCount: 2
Fore
SplineSet
0 0 m 1
 0 101 l 1
 819 101 l 1
 819 0 l 1
 0 0 l 1
0 102 m 1
 0 204 l 1
 819 204 l 1
 819 102 l 1
 0 102 l 1
0 205 m 1
 0 306 l 1
 819 306 l 1
 819 205 l 1
 0 205 l 1
0 307 m 1
 0 409 l 1
 819 409 l 1
 819 307 l 1
 0 307 l 1
410 410 m 1
 410 511 l 1
 819 511 l 1
 819 410 l 1
 410 410 l 1
410 512 m 1
 410 613 l 1
 819 613 l 1
 819 512 l 1
 410 512 l 1
410 614 m 1
 410 716 l 1
 819 716 l 1
 819 614 l 1
 410 614 l 1
410 717 m 1
 410 818 l 1
 819 818 l 1
 819 717 l 1
 410 717 l 1
410 819 m 1
 410 921 l 1
 819 921 l 1
 819 819 l 1
 410 819 l 1
410 922 m 1
 410 1023 l 1
 819 1023 l 1
 819 922 l 1
 410 922 l 1
410 1024 m 1
 410 1125 l 1
 819 1125 l 1
 819 1024 l 1
 410 1024 l 1
410 1126 m 1
 410 1228 l 1
 819 1228 l 1
 819 1126 l 1
 410 1126 l 1
EndSplineSet
EndChar

StartChar: uni00B6
Encoding: 182 182 182
Width: 819
VWidth: 0
Flags: HW
LayerCount: 2
Fore
SplineSet
0 0 m 1
 0 101 l 1
 819 101 l 1
 819 0 l 1
 0 0 l 1
0 102 m 1
 0 204 l 1
 819 204 l 1
 819 102 l 1
 0 102 l 1
0 205 m 1
 0 306 l 1
 819 306 l 1
 819 205 l 1
 0 205 l 1
0 307 m 1
 0 409 l 1
 819 409 l 1
 819 307 l 1
 0 307 l 1
410 410 m 1
 410 511 l 1
 819 511 l 1
 819 410 l 1
 410 410 l 1
410 512 m 1
 410 613 l 1
 819 613 l 1
 819 512 l 1
 410 512 l 1
410 614 m 1
 410 716 l 1
 819 716 l 1
 819 614 l 1
 410 614 l 1
410 717 m 1
 410 818 l 1
 819 818 l 1
 819 717 l 1
 410 717 l 1
0 819 m 1
 0 921 l 1
 410 921 l 1
 410 819 l 1
 0 819 l 1
0 922 m 1
 0 1023 l 1
 410 1023 l 1
 410 922 l 1
 0 922 l 1
0 1024 m 1
 0 1125 l 1
 410 1125 l 1
 410 1024 l 1
 0 1024 l 1
0 1126 m 1
 0 1228 l 1
 410 1228 l 1
 410 1126 l 1
 0 1126 l 1
EndSplineSet
EndChar

StartChar: uni00B7
Encoding: 183 183 183
Width: 819
VWidth: 0
Flags: HW
LayerCount: 2
Fore
SplineSet
0 0 m 1
 0 101 l 1
 819 101 l 1
 819 0 l 1
 0 0 l 1
0 102 m 1
 0 204 l 1
 819 204 l 1
 819 102 l 1
 0 102 l 1
0 205 m 1
 0 306 l 1
 819 306 l 1
 819 205 l 1
 0 205 l 1
0 307 m 1
 0 409 l 1
 819 409 l 1
 819 307 l 1
 0 307 l 1
410 410 m 1
 410 511 l 1
 819 511 l 1
 819 410 l 1
 410 410 l 1
410 512 m 1
 410 613 l 1
 819 613 l 1
 819 512 l 1
 410 512 l 1
410 614 m 1
 410 716 l 1
 819 716 l 1
 819 614 l 1
 410 614 l 1
410 717 m 1
 410 818 l 1
 819 818 l 1
 819 717 l 1
 410 717 l 1
0 819 m 1
 0 921 l 1
 819 921 l 1
 819 819 l 1
 0 819 l 1
0 922 m 1
 0 1023 l 1
 819 1023 l 1
 819 922 l 1
 0 922 l 1
0 1024 m 1
 0 1125 l 1
 819 1125 l 1
 819 1024 l 1
 0 1024 l 1
0 1126 m 1
 0 1228 l 1
 819 1228 l 1
 819 1126 l 1
 0 1126 l 1
EndSplineSet
EndChar

StartChar: uni00B8
Encoding: 184 184 184
Width: 819
VWidth: 0
Flags: HW
LayerCount: 2
Fore
SplineSet
0 0 m 1
 0 101 l 1
 819 101 l 1
 819 0 l 1
 0 0 l 1
0 102 m 1
 0 204 l 1
 819 204 l 1
 819 102 l 1
 0 102 l 1
0 205 m 1
 0 306 l 1
 819 306 l 1
 819 205 l 1
 0 205 l 1
0 307 m 1
 0 409 l 1
 819 409 l 1
 819 307 l 1
 0 307 l 1
0 410 m 1
 0 511 l 1
 410 511 l 1
 410 410 l 1
 0 410 l 1
0 512 m 1
 0 613 l 1
 410 613 l 1
 410 512 l 1
 0 512 l 1
0 614 m 1
 0 716 l 1
 410 716 l 1
 410 614 l 1
 0 614 l 1
0 717 m 1
 0 818 l 1
 410 818 l 1
 410 717 l 1
 0 717 l 1
EndSplineSet
EndChar

StartChar: uni00B9
Encoding: 185 185 185
Width: 819
VWidth: 0
Flags: HW
LayerCount: 2
Fore
SplineSet
0 0 m 1
 0 101 l 1
 819 101 l 1
 819 0 l 1
 0 0 l 1
0 102 m 1
 0 204 l 1
 819 204 l 1
 819 102 l 1
 0 102 l 1
0 205 m 1
 0 306 l 1
 819 306 l 1
 819 205 l 1
 0 205 l 1
0 307 m 1
 0 409 l 1
 819 409 l 1
 819 307 l 1
 0 307 l 1
0 410 m 1
 0 511 l 1
 410 511 l 1
 410 410 l 1
 0 410 l 1
0 512 m 1
 0 613 l 1
 410 613 l 1
 410 512 l 1
 0 512 l 1
0 614 m 1
 0 716 l 1
 410 716 l 1
 410 614 l 1
 0 614 l 1
0 717 m 1
 0 818 l 1
 410 818 l 1
 410 717 l 1
 0 717 l 1
410 819 m 1
 410 921 l 1
 819 921 l 1
 819 819 l 1
 410 819 l 1
410 922 m 1
 410 1023 l 1
 819 1023 l 1
 819 922 l 1
 410 922 l 1
410 1024 m 1
 410 1125 l 1
 819 1125 l 1
 819 1024 l 1
 410 1024 l 1
410 1126 m 1
 410 1228 l 1
 819 1228 l 1
 819 1126 l 1
 410 1126 l 1
EndSplineSet
EndChar

StartChar: uni00BA
Encoding: 186 186 186
Width: 819
VWidth: 0
Flags: HW
LayerCount: 2
Fore
SplineSet
0 0 m 1
 0 101 l 1
 819 101 l 1
 819 0 l 1
 0 0 l 1
0 102 m 1
 0 204 l 1
 819 204 l 1
 819 102 l 1
 0 102 l 1
0 205 m 1
 0 306 l 1
 819 306 l 1
 819 205 l 1
 0 205 l 1
0 307 m 1
 0 409 l 1
 819 409 l 1
 819 307 l 1
 0 307 l 1
0 410 m 1
 0 511 l 1
 410 511 l 1
 410 410 l 1
 0 410 l 1
0 512 m 1
 0 613 l 1
 410 613 l 1
 410 512 l 1
 0 512 l 1
0 614 m 1
 0 716 l 1
 410 716 l 1
 410 614 l 1
 0 614 l 1
0 717 m 1
 0 818 l 1
 410 818 l 1
 410 717 l 1
 0 717 l 1
0 819 m 1
 0 921 l 1
 410 921 l 1
 410 819 l 1
 0 819 l 1
0 922 m 1
 0 1023 l 1
 410 1023 l 1
 410 922 l 1
 0 922 l 1
0 1024 m 1
 0 1125 l 1
 410 1125 l 1
 410 1024 l 1
 0 1024 l 1
0 1126 m 1
 0 1228 l 1
 410 1228 l 1
 410 1126 l 1
 0 1126 l 1
EndSplineSet
EndChar

StartChar: uni00BB
Encoding: 187 187 187
Width: 819
VWidth: 0
Flags: HW
LayerCount: 2
Fore
SplineSet
0 0 m 1
 0 101 l 1
 819 101 l 1
 819 0 l 1
 0 0 l 1
0 102 m 1
 0 204 l 1
 819 204 l 1
 819 102 l 1
 0 102 l 1
0 205 m 1
 0 306 l 1
 819 306 l 1
 819 205 l 1
 0 205 l 1
0 307 m 1
 0 409 l 1
 819 409 l 1
 819 307 l 1
 0 307 l 1
0 410 m 1
 0 511 l 1
 410 511 l 1
 410 410 l 1
 0 410 l 1
0 512 m 1
 0 613 l 1
 410 613 l 1
 410 512 l 1
 0 512 l 1
0 614 m 1
 0 716 l 1
 410 716 l 1
 410 614 l 1
 0 614 l 1
0 717 m 1
 0 818 l 1
 410 818 l 1
 410 717 l 1
 0 717 l 1
0 819 m 1
 0 921 l 1
 819 921 l 1
 819 819 l 1
 0 819 l 1
0 922 m 1
 0 1023 l 1
 819 1023 l 1
 819 922 l 1
 0 922 l 1
0 1024 m 1
 0 1125 l 1
 819 1125 l 1
 819 1024 l 1
 0 1024 l 1
0 1126 m 1
 0 1228 l 1
 819 1228 l 1
 819 1126 l 1
 0 1126 l 1
EndSplineSet
EndChar

StartChar: uni00BC
Encoding: 188 188 188
Width: 819
VWidth: 0
Flags: HW
LayerCount: 2
Fore
SplineSet
0 0 m 1
 0 101 l 1
 819 101 l 1
 819 0 l 1
 0 0 l 1
0 102 m 1
 0 204 l 1
 819 204 l 1
 819 102 l 1
 0 102 l 1
0 205 m 1
 0 306 l 1
 819 306 l 1
 819 205 l 1
 0 205 l 1
0 307 m 1
 0 409 l 1
 819 409 l 1
 819 307 l 1
 0 307 l 1
0 410 m 1
 0 511 l 1
 819 511 l 1
 819 410 l 1
 0 410 l 1
0 512 m 1
 0 613 l 1
 819 613 l 1
 819 512 l 1
 0 512 l 1
0 614 m 1
 0 716 l 1
 819 716 l 1
 819 614 l 1
 0 614 l 1
0 717 m 1
 0 818 l 1
 819 818 l 1
 819 717 l 1
 0 717 l 1
EndSplineSet
EndChar

StartChar: uni00BD
Encoding: 189 189 189
Width: 819
VWidth: 0
Flags: HW
LayerCount: 2
Fore
SplineSet
0 0 m 1
 0 101 l 1
 819 101 l 1
 819 0 l 1
 0 0 l 1
0 102 m 1
 0 204 l 1
 819 204 l 1
 819 102 l 1
 0 102 l 1
0 205 m 1
 0 306 l 1
 819 306 l 1
 819 205 l 1
 0 205 l 1
0 307 m 1
 0 409 l 1
 819 409 l 1
 819 307 l 1
 0 307 l 1
0 410 m 1
 0 511 l 1
 819 511 l 1
 819 410 l 1
 0 410 l 1
0 512 m 1
 0 613 l 1
 819 613 l 1
 819 512 l 1
 0 512 l 1
0 614 m 1
 0 716 l 1
 819 716 l 1
 819 614 l 1
 0 614 l 1
0 717 m 1
 0 818 l 1
 819 818 l 1
 819 717 l 1
 0 717 l 1
410 819 m 1
 410 921 l 1
 819 921 l 1
 819 819 l 1
 410 819 l 1
410 922 m 1
 410 1023 l 1
 819 1023 l 1
 819 922 l 1
 410 922 l 1
410 1024 m 1
 410 1125 l 1
 819 1125 l 1
 819 1024 l 1
 410 1024 l 1
410 1126 m 1
 410 1228 l 1
 819 1228 l 1
 819 1126 l 1
 410 1126 l 1
EndSplineSet
EndChar

StartChar: uni00BE
Encoding: 190 190 190
Width: 819
VWidth: 0
Flags: HW
LayerCount: 2
Fore
SplineSet
0 0 m 1
 0 101 l 1
 819 101 l 1
 819 0 l 1
 0 0 l 1
0 102 m 1
 0 204 l 1
 819 204 l 1
 819 102 l 1
 0 102 l 1
0 205 m 1
 0 306 l 1
 819 306 l 1
 819 205 l 1
 0 205 l 1
0 307 m 1
 0 409 l 1
 819 409 l 1
 819 307 l 1
 0 307 l 1
0 410 m 1
 0 511 l 1
 819 511 l 1
 819 410 l 1
 0 410 l 1
0 512 m 1
 0 613 l 1
 819 613 l 1
 819 512 l 1
 0 512 l 1
0 614 m 1
 0 716 l 1
 819 716 l 1
 819 614 l 1
 0 614 l 1
0 717 m 1
 0 818 l 1
 819 818 l 1
 819 717 l 1
 0 717 l 1
0 819 m 1
 0 921 l 1
 410 921 l 1
 410 819 l 1
 0 819 l 1
0 922 m 1
 0 1023 l 1
 410 1023 l 1
 410 922 l 1
 0 922 l 1
0 1024 m 1
 0 1125 l 1
 410 1125 l 1
 410 1024 l 1
 0 1024 l 1
0 1126 m 1
 0 1228 l 1
 410 1228 l 1
 410 1126 l 1
 0 1126 l 1
EndSplineSet
EndChar

StartChar: uni00BF
Encoding: 191 191 191
Width: 819
VWidth: 0
Flags: HW
LayerCount: 2
Fore
SplineSet
0 0 m 1
 0 101 l 1
 819 101 l 1
 819 0 l 1
 0 0 l 1
0 102 m 1
 0 204 l 1
 819 204 l 1
 819 102 l 1
 0 102 l 1
0 205 m 1
 0 306 l 1
 819 306 l 1
 819 205 l 1
 0 205 l 1
0 307 m 1
 0 409 l 1
 819 409 l 1
 819 307 l 1
 0 307 l 1
0 410 m 1
 0 511 l 1
 819 511 l 1
 819 410 l 1
 0 410 l 1
0 512 m 1
 0 613 l 1
 819 613 l 1
 819 512 l 1
 0 512 l 1
0 614 m 1
 0 716 l 1
 819 716 l 1
 819 614 l 1
 0 614 l 1
0 717 m 1
 0 818 l 1
 819 818 l 1
 819 717 l 1
 0 717 l 1
0 819 m 1
 0 921 l 1
 819 921 l 1
 819 819 l 1
 0 819 l 1
0 922 m 1
 0 1023 l 1
 819 1023 l 1
 819 922 l 1
 0 922 l 1
0 1024 m 1
 0 1125 l 1
 819 1125 l 1
 819 1024 l 1
 0 1024 l 1
0 1126 m 1
 0 1228 l 1
 819 1228 l 1
 819 1126 l 1
 0 1126 l 1
EndSplineSet
EndChar

StartChar: uni00C0
Encoding: 192 192 192
Width: 819
VWidth: 0
Flags: HW
LayerCount: 2
Fore
SplineSet
410 -409 m 1
 410 -307 l 1
 819 -307 l 1
 819 -409 l 1
 410 -409 l 1
410 -306 m 1
 410 -205 l 1
 819 -205 l 1
 819 -306 l 1
 410 -306 l 1
410 -204 m 1
 410 -102 l 1
 819 -102 l 1
 819 -204 l 1
 410 -204 l 1
410 -101 m 1
 410 -1 l 1
 819 -1 l 1
 819 -101 l 1
 410 -101 l 1
EndSplineSet
EndChar

StartChar: uni00C1
Encoding: 193 193 193
Width: 819
VWidth: 0
Flags: HW
LayerCount: 2
Fore
SplineSet
410 -409 m 1
 410 -307 l 1
 819 -307 l 1
 819 -409 l 1
 410 -409 l 1
410 -306 m 1
 410 -205 l 1
 819 -205 l 1
 819 -306 l 1
 410 -306 l 1
410 -204 m 1
 410 -102 l 1
 819 -102 l 1
 819 -204 l 1
 410 -204 l 1
410 -101 m 1
 410 -1 l 1
 819 -1 l 1
 819 -101 l 1
 410 -101 l 1
410 819 m 1
 410 921 l 1
 819 921 l 1
 819 819 l 1
 410 819 l 1
410 922 m 1
 410 1023 l 1
 819 1023 l 1
 819 922 l 1
 410 922 l 1
410 1024 m 1
 410 1125 l 1
 819 1125 l 1
 819 1024 l 1
 410 1024 l 1
410 1126 m 1
 410 1228 l 1
 819 1228 l 1
 819 1126 l 1
 410 1126 l 1
EndSplineSet
EndChar

StartChar: uni00C2
Encoding: 194 194 194
Width: 819
VWidth: 0
Flags: HW
LayerCount: 2
Fore
SplineSet
410 -409 m 1
 410 -307 l 1
 819 -307 l 1
 819 -409 l 1
 410 -409 l 1
410 -306 m 1
 410 -205 l 1
 819 -205 l 1
 819 -306 l 1
 410 -306 l 1
410 -204 m 1
 410 -102 l 1
 819 -102 l 1
 819 -204 l 1
 410 -204 l 1
410 -101 m 1
 410 -1 l 1
 819 -1 l 1
 819 -101 l 1
 410 -101 l 1
0 819 m 1
 0 921 l 1
 410 921 l 1
 410 819 l 1
 0 819 l 1
0 922 m 1
 0 1023 l 1
 410 1023 l 1
 410 922 l 1
 0 922 l 1
0 1024 m 1
 0 1125 l 1
 410 1125 l 1
 410 1024 l 1
 0 1024 l 1
0 1126 m 1
 0 1228 l 1
 410 1228 l 1
 410 1126 l 1
 0 1126 l 1
EndSplineSet
EndChar

StartChar: uni00C3
Encoding: 195 195 195
Width: 819
VWidth: 0
Flags: HW
LayerCount: 2
Fore
SplineSet
410 -409 m 1
 410 -307 l 1
 819 -307 l 1
 819 -409 l 1
 410 -409 l 1
410 -306 m 1
 410 -205 l 1
 819 -205 l 1
 819 -306 l 1
 410 -306 l 1
410 -204 m 1
 410 -102 l 1
 819 -102 l 1
 819 -204 l 1
 410 -204 l 1
410 -101 m 1
 410 -1 l 1
 819 -1 l 1
 819 -101 l 1
 410 -101 l 1
0 819 m 1
 0 921 l 1
 819 921 l 1
 819 819 l 1
 0 819 l 1
0 922 m 1
 0 1023 l 1
 819 1023 l 1
 819 922 l 1
 0 922 l 1
0 1024 m 1
 0 1125 l 1
 819 1125 l 1
 819 1024 l 1
 0 1024 l 1
0 1126 m 1
 0 1228 l 1
 819 1228 l 1
 819 1126 l 1
 0 1126 l 1
EndSplineSet
EndChar

StartChar: uni00C4
Encoding: 196 196 196
Width: 819
VWidth: 0
Flags: HW
LayerCount: 2
Fore
SplineSet
410 -409 m 1
 410 -307 l 1
 819 -307 l 1
 819 -409 l 1
 410 -409 l 1
410 -306 m 1
 410 -205 l 1
 819 -205 l 1
 819 -306 l 1
 410 -306 l 1
410 -204 m 1
 410 -102 l 1
 819 -102 l 1
 819 -204 l 1
 410 -204 l 1
410 -101 m 1
 410 -1 l 1
 819 -1 l 1
 819 -101 l 1
 410 -101 l 1
410 410 m 1
 410 511 l 1
 819 511 l 1
 819 410 l 1
 410 410 l 1
410 512 m 1
 410 613 l 1
 819 613 l 1
 819 512 l 1
 410 512 l 1
410 614 m 1
 410 716 l 1
 819 716 l 1
 819 614 l 1
 410 614 l 1
410 717 m 1
 410 818 l 1
 819 818 l 1
 819 717 l 1
 410 717 l 1
EndSplineSet
EndChar

StartChar: uni00C5
Encoding: 197 197 197
Width: 819
VWidth: 0
Flags: HW
LayerCount: 2
Fore
SplineSet
410 -409 m 1
 410 -307 l 1
 819 -307 l 1
 819 -409 l 1
 410 -409 l 1
410 -306 m 1
 410 -205 l 1
 819 -205 l 1
 819 -306 l 1
 410 -306 l 1
410 -204 m 1
 410 -102 l 1
 819 -102 l 1
 819 -204 l 1
 410 -204 l 1
410 -101 m 1
 410 -1 l 1
 819 -1 l 1
 819 -101 l 1
 410 -101 l 1
410 410 m 1
 410 511 l 1
 819 511 l 1
 819 410 l 1
 410 410 l 1
410 512 m 1
 410 613 l 1
 819 613 l 1
 819 512 l 1
 410 512 l 1
410 614 m 1
 410 716 l 1
 819 716 l 1
 819 614 l 1
 410 614 l 1
410 717 m 1
 410 818 l 1
 819 818 l 1
 819 717 l 1
 410 717 l 1
410 819 m 1
 410 921 l 1
 819 921 l 1
 819 819 l 1
 410 819 l 1
410 922 m 1
 410 1023 l 1
 819 1023 l 1
 819 922 l 1
 410 922 l 1
410 1024 m 1
 410 1125 l 1
 819 1125 l 1
 819 1024 l 1
 410 1024 l 1
410 1126 m 1
 410 1228 l 1
 819 1228 l 1
 819 1126 l 1
 410 1126 l 1
EndSplineSet
EndChar

StartChar: uni00C6
Encoding: 198 198 198
Width: 819
VWidth: 0
Flags: HW
LayerCount: 2
Fore
SplineSet
410 -409 m 1
 410 -307 l 1
 819 -307 l 1
 819 -409 l 1
 410 -409 l 1
410 -306 m 1
 410 -205 l 1
 819 -205 l 1
 819 -306 l 1
 410 -306 l 1
410 -204 m 1
 410 -102 l 1
 819 -102 l 1
 819 -204 l 1
 410 -204 l 1
410 -101 m 1
 410 -1 l 1
 819 -1 l 1
 819 -101 l 1
 410 -101 l 1
410 410 m 1
 410 511 l 1
 819 511 l 1
 819 410 l 1
 410 410 l 1
410 512 m 1
 410 613 l 1
 819 613 l 1
 819 512 l 1
 410 512 l 1
410 614 m 1
 410 716 l 1
 819 716 l 1
 819 614 l 1
 410 614 l 1
410 717 m 1
 410 818 l 1
 819 818 l 1
 819 717 l 1
 410 717 l 1
0 819 m 1
 0 921 l 1
 410 921 l 1
 410 819 l 1
 0 819 l 1
0 922 m 1
 0 1023 l 1
 410 1023 l 1
 410 922 l 1
 0 922 l 1
0 1024 m 1
 0 1125 l 1
 410 1125 l 1
 410 1024 l 1
 0 1024 l 1
0 1126 m 1
 0 1228 l 1
 410 1228 l 1
 410 1126 l 1
 0 1126 l 1
EndSplineSet
EndChar

StartChar: uni00C7
Encoding: 199 199 199
Width: 819
VWidth: 0
Flags: HW
LayerCount: 2
Fore
SplineSet
410 -409 m 1
 410 -307 l 1
 819 -307 l 1
 819 -409 l 1
 410 -409 l 1
410 -306 m 1
 410 -205 l 1
 819 -205 l 1
 819 -306 l 1
 410 -306 l 1
410 -204 m 1
 410 -102 l 1
 819 -102 l 1
 819 -204 l 1
 410 -204 l 1
410 -101 m 1
 410 -1 l 1
 819 -1 l 1
 819 -101 l 1
 410 -101 l 1
410 410 m 1
 410 511 l 1
 819 511 l 1
 819 410 l 1
 410 410 l 1
410 512 m 1
 410 613 l 1
 819 613 l 1
 819 512 l 1
 410 512 l 1
410 614 m 1
 410 716 l 1
 819 716 l 1
 819 614 l 1
 410 614 l 1
410 717 m 1
 410 818 l 1
 819 818 l 1
 819 717 l 1
 410 717 l 1
0 819 m 1
 0 921 l 1
 819 921 l 1
 819 819 l 1
 0 819 l 1
0 922 m 1
 0 1023 l 1
 819 1023 l 1
 819 922 l 1
 0 922 l 1
0 1024 m 1
 0 1125 l 1
 819 1125 l 1
 819 1024 l 1
 0 1024 l 1
0 1126 m 1
 0 1228 l 1
 819 1228 l 1
 819 1126 l 1
 0 1126 l 1
EndSplineSet
EndChar

StartChar: uni00C8
Encoding: 200 200 200
Width: 819
VWidth: 0
Flags: HW
LayerCount: 2
Fore
SplineSet
410 -409 m 1
 410 -307 l 1
 819 -307 l 1
 819 -409 l 1
 410 -409 l 1
410 -306 m 1
 410 -205 l 1
 819 -205 l 1
 819 -306 l 1
 410 -306 l 1
410 -204 m 1
 410 -102 l 1
 819 -102 l 1
 819 -204 l 1
 410 -204 l 1
410 -101 m 1
 410 -1 l 1
 819 -1 l 1
 819 -101 l 1
 410 -101 l 1
0 410 m 1
 0 511 l 1
 410 511 l 1
 410 410 l 1
 0 410 l 1
0 512 m 1
 0 613 l 1
 410 613 l 1
 410 512 l 1
 0 512 l 1
0 614 m 1
 0 716 l 1
 410 716 l 1
 410 614 l 1
 0 614 l 1
0 717 m 1
 0 818 l 1
 410 818 l 1
 410 717 l 1
 0 717 l 1
EndSplineSet
EndChar

StartChar: uni00C9
Encoding: 201 201 201
Width: 819
VWidth: 0
Flags: HW
LayerCount: 2
Fore
SplineSet
410 -409 m 1
 410 -307 l 1
 819 -307 l 1
 819 -409 l 1
 410 -409 l 1
410 -306 m 1
 410 -205 l 1
 819 -205 l 1
 819 -306 l 1
 410 -306 l 1
410 -204 m 1
 410 -102 l 1
 819 -102 l 1
 819 -204 l 1
 410 -204 l 1
410 -101 m 1
 410 -1 l 1
 819 -1 l 1
 819 -101 l 1
 410 -101 l 1
0 410 m 1
 0 511 l 1
 410 511 l 1
 410 410 l 1
 0 410 l 1
0 512 m 1
 0 613 l 1
 410 613 l 1
 410 512 l 1
 0 512 l 1
0 614 m 1
 0 716 l 1
 410 716 l 1
 410 614 l 1
 0 614 l 1
0 717 m 1
 0 818 l 1
 410 818 l 1
 410 717 l 1
 0 717 l 1
410 819 m 1
 410 921 l 1
 819 921 l 1
 819 819 l 1
 410 819 l 1
410 922 m 1
 410 1023 l 1
 819 1023 l 1
 819 922 l 1
 410 922 l 1
410 1024 m 1
 410 1125 l 1
 819 1125 l 1
 819 1024 l 1
 410 1024 l 1
410 1126 m 1
 410 1228 l 1
 819 1228 l 1
 819 1126 l 1
 410 1126 l 1
EndSplineSet
EndChar

StartChar: uni00CA
Encoding: 202 202 202
Width: 819
VWidth: 0
Flags: HW
LayerCount: 2
Fore
SplineSet
410 -409 m 1
 410 -307 l 1
 819 -307 l 1
 819 -409 l 1
 410 -409 l 1
410 -306 m 1
 410 -205 l 1
 819 -205 l 1
 819 -306 l 1
 410 -306 l 1
410 -204 m 1
 410 -102 l 1
 819 -102 l 1
 819 -204 l 1
 410 -204 l 1
410 -101 m 1
 410 -1 l 1
 819 -1 l 1
 819 -101 l 1
 410 -101 l 1
0 410 m 1
 0 511 l 1
 410 511 l 1
 410 410 l 1
 0 410 l 1
0 512 m 1
 0 613 l 1
 410 613 l 1
 410 512 l 1
 0 512 l 1
0 614 m 1
 0 716 l 1
 410 716 l 1
 410 614 l 1
 0 614 l 1
0 717 m 1
 0 818 l 1
 410 818 l 1
 410 717 l 1
 0 717 l 1
0 819 m 1
 0 921 l 1
 410 921 l 1
 410 819 l 1
 0 819 l 1
0 922 m 1
 0 1023 l 1
 410 1023 l 1
 410 922 l 1
 0 922 l 1
0 1024 m 1
 0 1125 l 1
 410 1125 l 1
 410 1024 l 1
 0 1024 l 1
0 1126 m 1
 0 1228 l 1
 410 1228 l 1
 410 1126 l 1
 0 1126 l 1
EndSplineSet
EndChar

StartChar: uni00CB
Encoding: 203 203 203
Width: 819
VWidth: 0
Flags: HW
LayerCount: 2
Fore
SplineSet
410 -409 m 1
 410 -307 l 1
 819 -307 l 1
 819 -409 l 1
 410 -409 l 1
410 -306 m 1
 410 -205 l 1
 819 -205 l 1
 819 -306 l 1
 410 -306 l 1
410 -204 m 1
 410 -102 l 1
 819 -102 l 1
 819 -204 l 1
 410 -204 l 1
410 -101 m 1
 410 -1 l 1
 819 -1 l 1
 819 -101 l 1
 410 -101 l 1
0 410 m 1
 0 511 l 1
 410 511 l 1
 410 410 l 1
 0 410 l 1
0 512 m 1
 0 613 l 1
 410 613 l 1
 410 512 l 1
 0 512 l 1
0 614 m 1
 0 716 l 1
 410 716 l 1
 410 614 l 1
 0 614 l 1
0 717 m 1
 0 818 l 1
 410 818 l 1
 410 717 l 1
 0 717 l 1
0 819 m 1
 0 921 l 1
 819 921 l 1
 819 819 l 1
 0 819 l 1
0 922 m 1
 0 1023 l 1
 819 1023 l 1
 819 922 l 1
 0 922 l 1
0 1024 m 1
 0 1125 l 1
 819 1125 l 1
 819 1024 l 1
 0 1024 l 1
0 1126 m 1
 0 1228 l 1
 819 1228 l 1
 819 1126 l 1
 0 1126 l 1
EndSplineSet
EndChar

StartChar: uni00CC
Encoding: 204 204 204
Width: 819
VWidth: 0
Flags: HW
LayerCount: 2
Fore
SplineSet
410 -409 m 1
 410 -307 l 1
 819 -307 l 1
 819 -409 l 1
 410 -409 l 1
410 -306 m 1
 410 -205 l 1
 819 -205 l 1
 819 -306 l 1
 410 -306 l 1
410 -204 m 1
 410 -102 l 1
 819 -102 l 1
 819 -204 l 1
 410 -204 l 1
410 -101 m 1
 410 -1 l 1
 819 -1 l 1
 819 -101 l 1
 410 -101 l 1
0 410 m 1
 0 511 l 1
 819 511 l 1
 819 410 l 1
 0 410 l 1
0 512 m 1
 0 613 l 1
 819 613 l 1
 819 512 l 1
 0 512 l 1
0 614 m 1
 0 716 l 1
 819 716 l 1
 819 614 l 1
 0 614 l 1
0 717 m 1
 0 818 l 1
 819 818 l 1
 819 717 l 1
 0 717 l 1
EndSplineSet
EndChar

StartChar: uni00CD
Encoding: 205 205 205
Width: 819
VWidth: 0
Flags: HW
LayerCount: 2
Fore
SplineSet
410 -409 m 1
 410 -307 l 1
 819 -307 l 1
 819 -409 l 1
 410 -409 l 1
410 -306 m 1
 410 -205 l 1
 819 -205 l 1
 819 -306 l 1
 410 -306 l 1
410 -204 m 1
 410 -102 l 1
 819 -102 l 1
 819 -204 l 1
 410 -204 l 1
410 -101 m 1
 410 -1 l 1
 819 -1 l 1
 819 -101 l 1
 410 -101 l 1
0 410 m 1
 0 511 l 1
 819 511 l 1
 819 410 l 1
 0 410 l 1
0 512 m 1
 0 613 l 1
 819 613 l 1
 819 512 l 1
 0 512 l 1
0 614 m 1
 0 716 l 1
 819 716 l 1
 819 614 l 1
 0 614 l 1
0 717 m 1
 0 818 l 1
 819 818 l 1
 819 717 l 1
 0 717 l 1
410 819 m 1
 410 921 l 1
 819 921 l 1
 819 819 l 1
 410 819 l 1
410 922 m 1
 410 1023 l 1
 819 1023 l 1
 819 922 l 1
 410 922 l 1
410 1024 m 1
 410 1125 l 1
 819 1125 l 1
 819 1024 l 1
 410 1024 l 1
410 1126 m 1
 410 1228 l 1
 819 1228 l 1
 819 1126 l 1
 410 1126 l 1
EndSplineSet
EndChar

StartChar: uni00CE
Encoding: 206 206 206
Width: 819
VWidth: 0
Flags: HW
LayerCount: 2
Fore
SplineSet
410 -409 m 1
 410 -307 l 1
 819 -307 l 1
 819 -409 l 1
 410 -409 l 1
410 -306 m 1
 410 -205 l 1
 819 -205 l 1
 819 -306 l 1
 410 -306 l 1
410 -204 m 1
 410 -102 l 1
 819 -102 l 1
 819 -204 l 1
 410 -204 l 1
410 -101 m 1
 410 -1 l 1
 819 -1 l 1
 819 -101 l 1
 410 -101 l 1
0 410 m 1
 0 511 l 1
 819 511 l 1
 819 410 l 1
 0 410 l 1
0 512 m 1
 0 613 l 1
 819 613 l 1
 819 512 l 1
 0 512 l 1
0 614 m 1
 0 716 l 1
 819 716 l 1
 819 614 l 1
 0 614 l 1
0 717 m 1
 0 818 l 1
 819 818 l 1
 819 717 l 1
 0 717 l 1
0 819 m 1
 0 921 l 1
 410 921 l 1
 410 819 l 1
 0 819 l 1
0 922 m 1
 0 1023 l 1
 410 1023 l 1
 410 922 l 1
 0 922 l 1
0 1024 m 1
 0 1125 l 1
 410 1125 l 1
 410 1024 l 1
 0 1024 l 1
0 1126 m 1
 0 1228 l 1
 410 1228 l 1
 410 1126 l 1
 0 1126 l 1
EndSplineSet
EndChar

StartChar: uni00CF
Encoding: 207 207 207
Width: 819
VWidth: 0
Flags: HW
LayerCount: 2
Fore
SplineSet
410 -409 m 1
 410 -307 l 1
 819 -307 l 1
 819 -409 l 1
 410 -409 l 1
410 -306 m 1
 410 -205 l 1
 819 -205 l 1
 819 -306 l 1
 410 -306 l 1
410 -204 m 1
 410 -102 l 1
 819 -102 l 1
 819 -204 l 1
 410 -204 l 1
410 -101 m 1
 410 -1 l 1
 819 -1 l 1
 819 -101 l 1
 410 -101 l 1
0 410 m 1
 0 511 l 1
 819 511 l 1
 819 410 l 1
 0 410 l 1
0 512 m 1
 0 613 l 1
 819 613 l 1
 819 512 l 1
 0 512 l 1
0 614 m 1
 0 716 l 1
 819 716 l 1
 819 614 l 1
 0 614 l 1
0 717 m 1
 0 818 l 1
 819 818 l 1
 819 717 l 1
 0 717 l 1
0 819 m 1
 0 921 l 1
 819 921 l 1
 819 819 l 1
 0 819 l 1
0 922 m 1
 0 1023 l 1
 819 1023 l 1
 819 922 l 1
 0 922 l 1
0 1024 m 1
 0 1125 l 1
 819 1125 l 1
 819 1024 l 1
 0 1024 l 1
0 1126 m 1
 0 1228 l 1
 819 1228 l 1
 819 1126 l 1
 0 1126 l 1
EndSplineSet
EndChar

StartChar: uni00D0
Encoding: 208 208 208
Width: 819
VWidth: 0
Flags: HW
LayerCount: 2
Fore
SplineSet
410 -409 m 1
 410 -307 l 1
 819 -307 l 1
 819 -409 l 1
 410 -409 l 1
410 -306 m 1
 410 -205 l 1
 819 -205 l 1
 819 -306 l 1
 410 -306 l 1
410 -204 m 1
 410 -102 l 1
 819 -102 l 1
 819 -204 l 1
 410 -204 l 1
410 -101 m 1
 410 -1 l 1
 819 -1 l 1
 819 -101 l 1
 410 -101 l 1
410 0 m 1
 410 101 l 1
 819 101 l 1
 819 0 l 1
 410 0 l 1
410 102 m 1
 410 204 l 1
 819 204 l 1
 819 102 l 1
 410 102 l 1
410 205 m 1
 410 306 l 1
 819 306 l 1
 819 205 l 1
 410 205 l 1
410 307 m 1
 410 409 l 1
 819 409 l 1
 819 307 l 1
 410 307 l 1
EndSplineSet
EndChar

StartChar: uni00D1
Encoding: 209 209 209
Width: 819
VWidth: 0
Flags: HW
LayerCount: 2
Fore
SplineSet
410 -409 m 1
 410 -307 l 1
 819 -307 l 1
 819 -409 l 1
 410 -409 l 1
410 -306 m 1
 410 -205 l 1
 819 -205 l 1
 819 -306 l 1
 410 -306 l 1
410 -204 m 1
 410 -102 l 1
 819 -102 l 1
 819 -204 l 1
 410 -204 l 1
410 -101 m 1
 410 -1 l 1
 819 -1 l 1
 819 -101 l 1
 410 -101 l 1
410 0 m 1
 410 101 l 1
 819 101 l 1
 819 0 l 1
 410 0 l 1
410 102 m 1
 410 204 l 1
 819 204 l 1
 819 102 l 1
 410 102 l 1
410 205 m 1
 410 306 l 1
 819 306 l 1
 819 205 l 1
 410 205 l 1
410 307 m 1
 410 409 l 1
 819 409 l 1
 819 307 l 1
 410 307 l 1
410 819 m 1
 410 921 l 1
 819 921 l 1
 819 819 l 1
 410 819 l 1
410 922 m 1
 410 1023 l 1
 819 1023 l 1
 819 922 l 1
 410 922 l 1
410 1024 m 1
 410 1125 l 1
 819 1125 l 1
 819 1024 l 1
 410 1024 l 1
410 1126 m 1
 410 1228 l 1
 819 1228 l 1
 819 1126 l 1
 410 1126 l 1
EndSplineSet
EndChar

StartChar: uni00D2
Encoding: 210 210 210
Width: 819
VWidth: 0
Flags: HW
LayerCount: 2
Fore
SplineSet
410 -409 m 1
 410 -307 l 1
 819 -307 l 1
 819 -409 l 1
 410 -409 l 1
410 -306 m 1
 410 -205 l 1
 819 -205 l 1
 819 -306 l 1
 410 -306 l 1
410 -204 m 1
 410 -102 l 1
 819 -102 l 1
 819 -204 l 1
 410 -204 l 1
410 -101 m 1
 410 -1 l 1
 819 -1 l 1
 819 -101 l 1
 410 -101 l 1
410 0 m 1
 410 101 l 1
 819 101 l 1
 819 0 l 1
 410 0 l 1
410 102 m 1
 410 204 l 1
 819 204 l 1
 819 102 l 1
 410 102 l 1
410 205 m 1
 410 306 l 1
 819 306 l 1
 819 205 l 1
 410 205 l 1
410 307 m 1
 410 409 l 1
 819 409 l 1
 819 307 l 1
 410 307 l 1
0 819 m 1
 0 921 l 1
 410 921 l 1
 410 819 l 1
 0 819 l 1
0 922 m 1
 0 1023 l 1
 410 1023 l 1
 410 922 l 1
 0 922 l 1
0 1024 m 1
 0 1125 l 1
 410 1125 l 1
 410 1024 l 1
 0 1024 l 1
0 1126 m 1
 0 1228 l 1
 410 1228 l 1
 410 1126 l 1
 0 1126 l 1
EndSplineSet
EndChar

StartChar: uni00D3
Encoding: 211 211 211
Width: 819
VWidth: 0
Flags: HW
LayerCount: 2
Fore
SplineSet
410 -409 m 1
 410 -307 l 1
 819 -307 l 1
 819 -409 l 1
 410 -409 l 1
410 -306 m 1
 410 -205 l 1
 819 -205 l 1
 819 -306 l 1
 410 -306 l 1
410 -204 m 1
 410 -102 l 1
 819 -102 l 1
 819 -204 l 1
 410 -204 l 1
410 -101 m 1
 410 -1 l 1
 819 -1 l 1
 819 -101 l 1
 410 -101 l 1
410 0 m 1
 410 101 l 1
 819 101 l 1
 819 0 l 1
 410 0 l 1
410 102 m 1
 410 204 l 1
 819 204 l 1
 819 102 l 1
 410 102 l 1
410 205 m 1
 410 306 l 1
 819 306 l 1
 819 205 l 1
 410 205 l 1
410 307 m 1
 410 409 l 1
 819 409 l 1
 819 307 l 1
 410 307 l 1
0 819 m 1
 0 921 l 1
 819 921 l 1
 819 819 l 1
 0 819 l 1
0 922 m 1
 0 1023 l 1
 819 1023 l 1
 819 922 l 1
 0 922 l 1
0 1024 m 1
 0 1125 l 1
 819 1125 l 1
 819 1024 l 1
 0 1024 l 1
0 1126 m 1
 0 1228 l 1
 819 1228 l 1
 819 1126 l 1
 0 1126 l 1
EndSplineSet
EndChar

StartChar: uni00D4
Encoding: 212 212 212
Width: 819
VWidth: 0
Flags: HW
LayerCount: 2
Fore
SplineSet
410 -409 m 1
 410 -307 l 1
 819 -307 l 1
 819 -409 l 1
 410 -409 l 1
410 -306 m 1
 410 -205 l 1
 819 -205 l 1
 819 -306 l 1
 410 -306 l 1
410 -204 m 1
 410 -102 l 1
 819 -102 l 1
 819 -204 l 1
 410 -204 l 1
410 -101 m 1
 410 -1 l 1
 819 -1 l 1
 819 -101 l 1
 410 -101 l 1
410 0 m 1
 410 101 l 1
 819 101 l 1
 819 0 l 1
 410 0 l 1
410 102 m 1
 410 204 l 1
 819 204 l 1
 819 102 l 1
 410 102 l 1
410 205 m 1
 410 306 l 1
 819 306 l 1
 819 205 l 1
 410 205 l 1
410 307 m 1
 410 409 l 1
 819 409 l 1
 819 307 l 1
 410 307 l 1
410 410 m 1
 410 511 l 1
 819 511 l 1
 819 410 l 1
 410 410 l 1
410 512 m 1
 410 613 l 1
 819 613 l 1
 819 512 l 1
 410 512 l 1
410 614 m 1
 410 716 l 1
 819 716 l 1
 819 614 l 1
 410 614 l 1
410 717 m 1
 410 818 l 1
 819 818 l 1
 819 717 l 1
 410 717 l 1
EndSplineSet
EndChar

StartChar: uni00D5
Encoding: 213 213 213
Width: 819
VWidth: 0
Flags: HW
LayerCount: 2
Fore
SplineSet
410 -409 m 1
 410 -307 l 1
 819 -307 l 1
 819 -409 l 1
 410 -409 l 1
410 -306 m 1
 410 -205 l 1
 819 -205 l 1
 819 -306 l 1
 410 -306 l 1
410 -204 m 1
 410 -102 l 1
 819 -102 l 1
 819 -204 l 1
 410 -204 l 1
410 -101 m 1
 410 -1 l 1
 819 -1 l 1
 819 -101 l 1
 410 -101 l 1
410 0 m 1
 410 101 l 1
 819 101 l 1
 819 0 l 1
 410 0 l 1
410 102 m 1
 410 204 l 1
 819 204 l 1
 819 102 l 1
 410 102 l 1
410 205 m 1
 410 306 l 1
 819 306 l 1
 819 205 l 1
 410 205 l 1
410 307 m 1
 410 409 l 1
 819 409 l 1
 819 307 l 1
 410 307 l 1
410 410 m 1
 410 511 l 1
 819 511 l 1
 819 410 l 1
 410 410 l 1
410 512 m 1
 410 613 l 1
 819 613 l 1
 819 512 l 1
 410 512 l 1
410 614 m 1
 410 716 l 1
 819 716 l 1
 819 614 l 1
 410 614 l 1
410 717 m 1
 410 818 l 1
 819 818 l 1
 819 717 l 1
 410 717 l 1
410 819 m 1
 410 921 l 1
 819 921 l 1
 819 819 l 1
 410 819 l 1
410 922 m 1
 410 1023 l 1
 819 1023 l 1
 819 922 l 1
 410 922 l 1
410 1024 m 1
 410 1125 l 1
 819 1125 l 1
 819 1024 l 1
 410 1024 l 1
410 1126 m 1
 410 1228 l 1
 819 1228 l 1
 819 1126 l 1
 410 1126 l 1
EndSplineSet
EndChar

StartChar: uni00D6
Encoding: 214 214 214
Width: 819
VWidth: 0
Flags: HW
LayerCount: 2
Fore
SplineSet
410 -409 m 1
 410 -307 l 1
 819 -307 l 1
 819 -409 l 1
 410 -409 l 1
410 -306 m 1
 410 -205 l 1
 819 -205 l 1
 819 -306 l 1
 410 -306 l 1
410 -204 m 1
 410 -102 l 1
 819 -102 l 1
 819 -204 l 1
 410 -204 l 1
410 -101 m 1
 410 -1 l 1
 819 -1 l 1
 819 -101 l 1
 410 -101 l 1
410 0 m 1
 410 101 l 1
 819 101 l 1
 819 0 l 1
 410 0 l 1
410 102 m 1
 410 204 l 1
 819 204 l 1
 819 102 l 1
 410 102 l 1
410 205 m 1
 410 306 l 1
 819 306 l 1
 819 205 l 1
 410 205 l 1
410 307 m 1
 410 409 l 1
 819 409 l 1
 819 307 l 1
 410 307 l 1
410 410 m 1
 410 511 l 1
 819 511 l 1
 819 410 l 1
 410 410 l 1
410 512 m 1
 410 613 l 1
 819 613 l 1
 819 512 l 1
 410 512 l 1
410 614 m 1
 410 716 l 1
 819 716 l 1
 819 614 l 1
 410 614 l 1
410 717 m 1
 410 818 l 1
 819 818 l 1
 819 717 l 1
 410 717 l 1
0 819 m 1
 0 921 l 1
 410 921 l 1
 410 819 l 1
 0 819 l 1
0 922 m 1
 0 1023 l 1
 410 1023 l 1
 410 922 l 1
 0 922 l 1
0 1024 m 1
 0 1125 l 1
 410 1125 l 1
 410 1024 l 1
 0 1024 l 1
0 1126 m 1
 0 1228 l 1
 410 1228 l 1
 410 1126 l 1
 0 1126 l 1
EndSplineSet
EndChar

StartChar: uni00D7
Encoding: 215 215 215
Width: 819
VWidth: 0
Flags: HW
LayerCount: 2
Fore
SplineSet
410 -409 m 1
 410 -307 l 1
 819 -307 l 1
 819 -409 l 1
 410 -409 l 1
410 -306 m 1
 410 -205 l 1
 819 -205 l 1
 819 -306 l 1
 410 -306 l 1
410 -204 m 1
 410 -102 l 1
 819 -102 l 1
 819 -204 l 1
 410 -204 l 1
410 -101 m 1
 410 -1 l 1
 819 -1 l 1
 819 -101 l 1
 410 -101 l 1
410 0 m 1
 410 101 l 1
 819 101 l 1
 819 0 l 1
 410 0 l 1
410 102 m 1
 410 204 l 1
 819 204 l 1
 819 102 l 1
 410 102 l 1
410 205 m 1
 410 306 l 1
 819 306 l 1
 819 205 l 1
 410 205 l 1
410 307 m 1
 410 409 l 1
 819 409 l 1
 819 307 l 1
 410 307 l 1
410 410 m 1
 410 511 l 1
 819 511 l 1
 819 410 l 1
 410 410 l 1
410 512 m 1
 410 613 l 1
 819 613 l 1
 819 512 l 1
 410 512 l 1
410 614 m 1
 410 716 l 1
 819 716 l 1
 819 614 l 1
 410 614 l 1
410 717 m 1
 410 818 l 1
 819 818 l 1
 819 717 l 1
 410 717 l 1
0 819 m 1
 0 921 l 1
 819 921 l 1
 819 819 l 1
 0 819 l 1
0 922 m 1
 0 1023 l 1
 819 1023 l 1
 819 922 l 1
 0 922 l 1
0 1024 m 1
 0 1125 l 1
 819 1125 l 1
 819 1024 l 1
 0 1024 l 1
0 1126 m 1
 0 1228 l 1
 819 1228 l 1
 819 1126 l 1
 0 1126 l 1
EndSplineSet
EndChar

StartChar: uni00D8
Encoding: 216 216 216
Width: 819
VWidth: 0
Flags: HW
LayerCount: 2
Fore
SplineSet
410 -409 m 1
 410 -307 l 1
 819 -307 l 1
 819 -409 l 1
 410 -409 l 1
410 -306 m 1
 410 -205 l 1
 819 -205 l 1
 819 -306 l 1
 410 -306 l 1
410 -204 m 1
 410 -102 l 1
 819 -102 l 1
 819 -204 l 1
 410 -204 l 1
410 -101 m 1
 410 -1 l 1
 819 -1 l 1
 819 -101 l 1
 410 -101 l 1
410 0 m 1
 410 101 l 1
 819 101 l 1
 819 0 l 1
 410 0 l 1
410 102 m 1
 410 204 l 1
 819 204 l 1
 819 102 l 1
 410 102 l 1
410 205 m 1
 410 306 l 1
 819 306 l 1
 819 205 l 1
 410 205 l 1
410 307 m 1
 410 409 l 1
 819 409 l 1
 819 307 l 1
 410 307 l 1
0 410 m 1
 0 511 l 1
 410 511 l 1
 410 410 l 1
 0 410 l 1
0 512 m 1
 0 613 l 1
 410 613 l 1
 410 512 l 1
 0 512 l 1
0 614 m 1
 0 716 l 1
 410 716 l 1
 410 614 l 1
 0 614 l 1
0 717 m 1
 0 818 l 1
 410 818 l 1
 410 717 l 1
 0 717 l 1
EndSplineSet
EndChar

StartChar: uni00D9
Encoding: 217 217 217
Width: 819
VWidth: 0
Flags: HW
LayerCount: 2
Fore
SplineSet
410 -409 m 1
 410 -307 l 1
 819 -307 l 1
 819 -409 l 1
 410 -409 l 1
410 -306 m 1
 410 -205 l 1
 819 -205 l 1
 819 -306 l 1
 410 -306 l 1
410 -204 m 1
 410 -102 l 1
 819 -102 l 1
 819 -204 l 1
 410 -204 l 1
410 -101 m 1
 410 -1 l 1
 819 -1 l 1
 819 -101 l 1
 410 -101 l 1
410 0 m 1
 410 101 l 1
 819 101 l 1
 819 0 l 1
 410 0 l 1
410 102 m 1
 410 204 l 1
 819 204 l 1
 819 102 l 1
 410 102 l 1
410 205 m 1
 410 306 l 1
 819 306 l 1
 819 205 l 1
 410 205 l 1
410 307 m 1
 410 409 l 1
 819 409 l 1
 819 307 l 1
 410 307 l 1
0 410 m 1
 0 511 l 1
 410 511 l 1
 410 410 l 1
 0 410 l 1
0 512 m 1
 0 613 l 1
 410 613 l 1
 410 512 l 1
 0 512 l 1
0 614 m 1
 0 716 l 1
 410 716 l 1
 410 614 l 1
 0 614 l 1
0 717 m 1
 0 818 l 1
 410 818 l 1
 410 717 l 1
 0 717 l 1
410 819 m 1
 410 921 l 1
 819 921 l 1
 819 819 l 1
 410 819 l 1
410 922 m 1
 410 1023 l 1
 819 1023 l 1
 819 922 l 1
 410 922 l 1
410 1024 m 1
 410 1125 l 1
 819 1125 l 1
 819 1024 l 1
 410 1024 l 1
410 1126 m 1
 410 1228 l 1
 819 1228 l 1
 819 1126 l 1
 410 1126 l 1
EndSplineSet
EndChar

StartChar: uni00DA
Encoding: 218 218 218
Width: 819
VWidth: 0
Flags: HW
LayerCount: 2
Fore
SplineSet
410 -409 m 1
 410 -307 l 1
 819 -307 l 1
 819 -409 l 1
 410 -409 l 1
410 -306 m 1
 410 -205 l 1
 819 -205 l 1
 819 -306 l 1
 410 -306 l 1
410 -204 m 1
 410 -102 l 1
 819 -102 l 1
 819 -204 l 1
 410 -204 l 1
410 -101 m 1
 410 -1 l 1
 819 -1 l 1
 819 -101 l 1
 410 -101 l 1
410 0 m 1
 410 101 l 1
 819 101 l 1
 819 0 l 1
 410 0 l 1
410 102 m 1
 410 204 l 1
 819 204 l 1
 819 102 l 1
 410 102 l 1
410 205 m 1
 410 306 l 1
 819 306 l 1
 819 205 l 1
 410 205 l 1
410 307 m 1
 410 409 l 1
 819 409 l 1
 819 307 l 1
 410 307 l 1
0 410 m 1
 0 511 l 1
 410 511 l 1
 410 410 l 1
 0 410 l 1
0 512 m 1
 0 613 l 1
 410 613 l 1
 410 512 l 1
 0 512 l 1
0 614 m 1
 0 716 l 1
 410 716 l 1
 410 614 l 1
 0 614 l 1
0 717 m 1
 0 818 l 1
 410 818 l 1
 410 717 l 1
 0 717 l 1
0 819 m 1
 0 921 l 1
 410 921 l 1
 410 819 l 1
 0 819 l 1
0 922 m 1
 0 1023 l 1
 410 1023 l 1
 410 922 l 1
 0 922 l 1
0 1024 m 1
 0 1125 l 1
 410 1125 l 1
 410 1024 l 1
 0 1024 l 1
0 1126 m 1
 0 1228 l 1
 410 1228 l 1
 410 1126 l 1
 0 1126 l 1
EndSplineSet
EndChar

StartChar: uni00DB
Encoding: 219 219 219
Width: 819
VWidth: 0
Flags: HW
LayerCount: 2
Fore
SplineSet
410 -409 m 1
 410 -307 l 1
 819 -307 l 1
 819 -409 l 1
 410 -409 l 1
410 -306 m 1
 410 -205 l 1
 819 -205 l 1
 819 -306 l 1
 410 -306 l 1
410 -204 m 1
 410 -102 l 1
 819 -102 l 1
 819 -204 l 1
 410 -204 l 1
410 -101 m 1
 410 -1 l 1
 819 -1 l 1
 819 -101 l 1
 410 -101 l 1
410 0 m 1
 410 101 l 1
 819 101 l 1
 819 0 l 1
 410 0 l 1
410 102 m 1
 410 204 l 1
 819 204 l 1
 819 102 l 1
 410 102 l 1
410 205 m 1
 410 306 l 1
 819 306 l 1
 819 205 l 1
 410 205 l 1
410 307 m 1
 410 409 l 1
 819 409 l 1
 819 307 l 1
 410 307 l 1
0 410 m 1
 0 511 l 1
 410 511 l 1
 410 410 l 1
 0 410 l 1
0 512 m 1
 0 613 l 1
 410 613 l 1
 410 512 l 1
 0 512 l 1
0 614 m 1
 0 716 l 1
 410 716 l 1
 410 614 l 1
 0 614 l 1
0 717 m 1
 0 818 l 1
 410 818 l 1
 410 717 l 1
 0 717 l 1
0 819 m 1
 0 921 l 1
 819 921 l 1
 819 819 l 1
 0 819 l 1
0 922 m 1
 0 1023 l 1
 819 1023 l 1
 819 922 l 1
 0 922 l 1
0 1024 m 1
 0 1125 l 1
 819 1125 l 1
 819 1024 l 1
 0 1024 l 1
0 1126 m 1
 0 1228 l 1
 819 1228 l 1
 819 1126 l 1
 0 1126 l 1
EndSplineSet
EndChar

StartChar: uni00DC
Encoding: 220 220 220
Width: 819
VWidth: 0
Flags: HW
LayerCount: 2
Fore
SplineSet
410 -409 m 1
 410 -307 l 1
 819 -307 l 1
 819 -409 l 1
 410 -409 l 1
410 -306 m 1
 410 -205 l 1
 819 -205 l 1
 819 -306 l 1
 410 -306 l 1
410 -204 m 1
 410 -102 l 1
 819 -102 l 1
 819 -204 l 1
 410 -204 l 1
410 -101 m 1
 410 -1 l 1
 819 -1 l 1
 819 -101 l 1
 410 -101 l 1
410 0 m 1
 410 101 l 1
 819 101 l 1
 819 0 l 1
 410 0 l 1
410 102 m 1
 410 204 l 1
 819 204 l 1
 819 102 l 1
 410 102 l 1
410 205 m 1
 410 306 l 1
 819 306 l 1
 819 205 l 1
 410 205 l 1
410 307 m 1
 410 409 l 1
 819 409 l 1
 819 307 l 1
 410 307 l 1
0 410 m 1
 0 511 l 1
 819 511 l 1
 819 410 l 1
 0 410 l 1
0 512 m 1
 0 613 l 1
 819 613 l 1
 819 512 l 1
 0 512 l 1
0 614 m 1
 0 716 l 1
 819 716 l 1
 819 614 l 1
 0 614 l 1
0 717 m 1
 0 818 l 1
 819 818 l 1
 819 717 l 1
 0 717 l 1
EndSplineSet
EndChar

StartChar: uni00DD
Encoding: 221 221 221
Width: 819
VWidth: 0
Flags: HW
LayerCount: 2
Fore
SplineSet
410 -409 m 1
 410 -307 l 1
 819 -307 l 1
 819 -409 l 1
 410 -409 l 1
410 -306 m 1
 410 -205 l 1
 819 -205 l 1
 819 -306 l 1
 410 -306 l 1
410 -204 m 1
 410 -102 l 1
 819 -102 l 1
 819 -204 l 1
 410 -204 l 1
410 -101 m 1
 410 -1 l 1
 819 -1 l 1
 819 -101 l 1
 410 -101 l 1
410 0 m 1
 410 101 l 1
 819 101 l 1
 819 0 l 1
 410 0 l 1
410 102 m 1
 410 204 l 1
 819 204 l 1
 819 102 l 1
 410 102 l 1
410 205 m 1
 410 306 l 1
 819 306 l 1
 819 205 l 1
 410 205 l 1
410 307 m 1
 410 409 l 1
 819 409 l 1
 819 307 l 1
 410 307 l 1
0 410 m 1
 0 511 l 1
 819 511 l 1
 819 410 l 1
 0 410 l 1
0 512 m 1
 0 613 l 1
 819 613 l 1
 819 512 l 1
 0 512 l 1
0 614 m 1
 0 716 l 1
 819 716 l 1
 819 614 l 1
 0 614 l 1
0 717 m 1
 0 818 l 1
 819 818 l 1
 819 717 l 1
 0 717 l 1
410 819 m 1
 410 921 l 1
 819 921 l 1
 819 819 l 1
 410 819 l 1
410 922 m 1
 410 1023 l 1
 819 1023 l 1
 819 922 l 1
 410 922 l 1
410 1024 m 1
 410 1125 l 1
 819 1125 l 1
 819 1024 l 1
 410 1024 l 1
410 1126 m 1
 410 1228 l 1
 819 1228 l 1
 819 1126 l 1
 410 1126 l 1
EndSplineSet
EndChar

StartChar: uni00DE
Encoding: 222 222 222
Width: 819
VWidth: 0
Flags: HW
LayerCount: 2
Fore
SplineSet
410 -409 m 1
 410 -307 l 1
 819 -307 l 1
 819 -409 l 1
 410 -409 l 1
410 -306 m 1
 410 -205 l 1
 819 -205 l 1
 819 -306 l 1
 410 -306 l 1
410 -204 m 1
 410 -102 l 1
 819 -102 l 1
 819 -204 l 1
 410 -204 l 1
410 -101 m 1
 410 -1 l 1
 819 -1 l 1
 819 -101 l 1
 410 -101 l 1
410 0 m 1
 410 101 l 1
 819 101 l 1
 819 0 l 1
 410 0 l 1
410 102 m 1
 410 204 l 1
 819 204 l 1
 819 102 l 1
 410 102 l 1
410 205 m 1
 410 306 l 1
 819 306 l 1
 819 205 l 1
 410 205 l 1
410 307 m 1
 410 409 l 1
 819 409 l 1
 819 307 l 1
 410 307 l 1
0 410 m 1
 0 511 l 1
 819 511 l 1
 819 410 l 1
 0 410 l 1
0 512 m 1
 0 613 l 1
 819 613 l 1
 819 512 l 1
 0 512 l 1
0 614 m 1
 0 716 l 1
 819 716 l 1
 819 614 l 1
 0 614 l 1
0 717 m 1
 0 818 l 1
 819 818 l 1
 819 717 l 1
 0 717 l 1
0 819 m 1
 0 921 l 1
 410 921 l 1
 410 819 l 1
 0 819 l 1
0 922 m 1
 0 1023 l 1
 410 1023 l 1
 410 922 l 1
 0 922 l 1
0 1024 m 1
 0 1125 l 1
 410 1125 l 1
 410 1024 l 1
 0 1024 l 1
0 1126 m 1
 0 1228 l 1
 410 1228 l 1
 410 1126 l 1
 0 1126 l 1
EndSplineSet
EndChar

StartChar: uni00DF
Encoding: 223 223 223
Width: 819
VWidth: 0
Flags: HW
LayerCount: 2
Fore
SplineSet
410 -409 m 1
 410 -307 l 1
 819 -307 l 1
 819 -409 l 1
 410 -409 l 1
410 -306 m 1
 410 -205 l 1
 819 -205 l 1
 819 -306 l 1
 410 -306 l 1
410 -204 m 1
 410 -102 l 1
 819 -102 l 1
 819 -204 l 1
 410 -204 l 1
410 -101 m 1
 410 -1 l 1
 819 -1 l 1
 819 -101 l 1
 410 -101 l 1
410 0 m 1
 410 101 l 1
 819 101 l 1
 819 0 l 1
 410 0 l 1
410 102 m 1
 410 204 l 1
 819 204 l 1
 819 102 l 1
 410 102 l 1
410 205 m 1
 410 306 l 1
 819 306 l 1
 819 205 l 1
 410 205 l 1
410 307 m 1
 410 409 l 1
 819 409 l 1
 819 307 l 1
 410 307 l 1
0 410 m 1
 0 511 l 1
 819 511 l 1
 819 410 l 1
 0 410 l 1
0 512 m 1
 0 613 l 1
 819 613 l 1
 819 512 l 1
 0 512 l 1
0 614 m 1
 0 716 l 1
 819 716 l 1
 819 614 l 1
 0 614 l 1
0 717 m 1
 0 818 l 1
 819 818 l 1
 819 717 l 1
 0 717 l 1
0 819 m 1
 0 921 l 1
 819 921 l 1
 819 819 l 1
 0 819 l 1
0 922 m 1
 0 1023 l 1
 819 1023 l 1
 819 922 l 1
 0 922 l 1
0 1024 m 1
 0 1125 l 1
 819 1125 l 1
 819 1024 l 1
 0 1024 l 1
0 1126 m 1
 0 1228 l 1
 819 1228 l 1
 819 1126 l 1
 0 1126 l 1
EndSplineSet
EndChar

StartChar: uni00E0
Encoding: 224 224 224
Width: 819
VWidth: 0
Flags: HW
LayerCount: 2
Fore
SplineSet
410 -409 m 1
 410 -307 l 1
 819 -307 l 1
 819 -409 l 1
 410 -409 l 1
410 -306 m 1
 410 -205 l 1
 819 -205 l 1
 819 -306 l 1
 410 -306 l 1
410 -204 m 1
 410 -102 l 1
 819 -102 l 1
 819 -204 l 1
 410 -204 l 1
410 -101 m 1
 410 -1 l 1
 819 -1 l 1
 819 -101 l 1
 410 -101 l 1
0 0 m 1
 0 101 l 1
 410 101 l 1
 410 0 l 1
 0 0 l 1
0 102 m 1
 0 204 l 1
 410 204 l 1
 410 102 l 1
 0 102 l 1
0 205 m 1
 0 306 l 1
 410 306 l 1
 410 205 l 1
 0 205 l 1
0 307 m 1
 0 409 l 1
 410 409 l 1
 410 307 l 1
 0 307 l 1
EndSplineSet
EndChar

StartChar: uni00E1
Encoding: 225 225 225
Width: 819
VWidth: 0
Flags: HW
LayerCount: 2
Fore
SplineSet
410 -409 m 1
 410 -307 l 1
 819 -307 l 1
 819 -409 l 1
 410 -409 l 1
410 -306 m 1
 410 -205 l 1
 819 -205 l 1
 819 -306 l 1
 410 -306 l 1
410 -204 m 1
 410 -102 l 1
 819 -102 l 1
 819 -204 l 1
 410 -204 l 1
410 -101 m 1
 410 -1 l 1
 819 -1 l 1
 819 -101 l 1
 410 -101 l 1
0 0 m 1
 0 101 l 1
 410 101 l 1
 410 0 l 1
 0 0 l 1
0 102 m 1
 0 204 l 1
 410 204 l 1
 410 102 l 1
 0 102 l 1
0 205 m 1
 0 306 l 1
 410 306 l 1
 410 205 l 1
 0 205 l 1
0 307 m 1
 0 409 l 1
 410 409 l 1
 410 307 l 1
 0 307 l 1
410 819 m 1
 410 921 l 1
 819 921 l 1
 819 819 l 1
 410 819 l 1
410 922 m 1
 410 1023 l 1
 819 1023 l 1
 819 922 l 1
 410 922 l 1
410 1024 m 1
 410 1125 l 1
 819 1125 l 1
 819 1024 l 1
 410 1024 l 1
410 1126 m 1
 410 1228 l 1
 819 1228 l 1
 819 1126 l 1
 410 1126 l 1
EndSplineSet
EndChar

StartChar: uni00E2
Encoding: 226 226 226
Width: 819
VWidth: 0
Flags: HW
LayerCount: 2
Fore
SplineSet
410 -409 m 1
 410 -307 l 1
 819 -307 l 1
 819 -409 l 1
 410 -409 l 1
410 -306 m 1
 410 -205 l 1
 819 -205 l 1
 819 -306 l 1
 410 -306 l 1
410 -204 m 1
 410 -102 l 1
 819 -102 l 1
 819 -204 l 1
 410 -204 l 1
410 -101 m 1
 410 -1 l 1
 819 -1 l 1
 819 -101 l 1
 410 -101 l 1
0 0 m 1
 0 101 l 1
 410 101 l 1
 410 0 l 1
 0 0 l 1
0 102 m 1
 0 204 l 1
 410 204 l 1
 410 102 l 1
 0 102 l 1
0 205 m 1
 0 306 l 1
 410 306 l 1
 410 205 l 1
 0 205 l 1
0 307 m 1
 0 409 l 1
 410 409 l 1
 410 307 l 1
 0 307 l 1
0 819 m 1
 0 921 l 1
 410 921 l 1
 410 819 l 1
 0 819 l 1
0 922 m 1
 0 1023 l 1
 410 1023 l 1
 410 922 l 1
 0 922 l 1
0 1024 m 1
 0 1125 l 1
 410 1125 l 1
 410 1024 l 1
 0 1024 l 1
0 1126 m 1
 0 1228 l 1
 410 1228 l 1
 410 1126 l 1
 0 1126 l 1
EndSplineSet
EndChar

StartChar: uni00E3
Encoding: 227 227 227
Width: 819
VWidth: 0
Flags: HW
LayerCount: 2
Fore
SplineSet
410 -409 m 1
 410 -307 l 1
 819 -307 l 1
 819 -409 l 1
 410 -409 l 1
410 -306 m 1
 410 -205 l 1
 819 -205 l 1
 819 -306 l 1
 410 -306 l 1
410 -204 m 1
 410 -102 l 1
 819 -102 l 1
 819 -204 l 1
 410 -204 l 1
410 -101 m 1
 410 -1 l 1
 819 -1 l 1
 819 -101 l 1
 410 -101 l 1
0 0 m 1
 0 101 l 1
 410 101 l 1
 410 0 l 1
 0 0 l 1
0 102 m 1
 0 204 l 1
 410 204 l 1
 410 102 l 1
 0 102 l 1
0 205 m 1
 0 306 l 1
 410 306 l 1
 410 205 l 1
 0 205 l 1
0 307 m 1
 0 409 l 1
 410 409 l 1
 410 307 l 1
 0 307 l 1
0 819 m 1
 0 921 l 1
 819 921 l 1
 819 819 l 1
 0 819 l 1
0 922 m 1
 0 1023 l 1
 819 1023 l 1
 819 922 l 1
 0 922 l 1
0 1024 m 1
 0 1125 l 1
 819 1125 l 1
 819 1024 l 1
 0 1024 l 1
0 1126 m 1
 0 1228 l 1
 819 1228 l 1
 819 1126 l 1
 0 1126 l 1
EndSplineSet
EndChar

StartChar: uni00E4
Encoding: 228 228 228
Width: 819
VWidth: 0
Flags: HW
LayerCount: 2
Fore
SplineSet
410 -409 m 1
 410 -307 l 1
 819 -307 l 1
 819 -409 l 1
 410 -409 l 1
410 -306 m 1
 410 -205 l 1
 819 -205 l 1
 819 -306 l 1
 410 -306 l 1
410 -204 m 1
 410 -102 l 1
 819 -102 l 1
 819 -204 l 1
 410 -204 l 1
410 -101 m 1
 410 -1 l 1
 819 -1 l 1
 819 -101 l 1
 410 -101 l 1
0 0 m 1
 0 101 l 1
 410 101 l 1
 410 0 l 1
 0 0 l 1
0 102 m 1
 0 204 l 1
 410 204 l 1
 410 102 l 1
 0 102 l 1
0 205 m 1
 0 306 l 1
 410 306 l 1
 410 205 l 1
 0 205 l 1
0 307 m 1
 0 409 l 1
 410 409 l 1
 410 307 l 1
 0 307 l 1
410 410 m 1
 410 511 l 1
 819 511 l 1
 819 410 l 1
 410 410 l 1
410 512 m 1
 410 613 l 1
 819 613 l 1
 819 512 l 1
 410 512 l 1
410 614 m 1
 410 716 l 1
 819 716 l 1
 819 614 l 1
 410 614 l 1
410 717 m 1
 410 818 l 1
 819 818 l 1
 819 717 l 1
 410 717 l 1
EndSplineSet
EndChar

StartChar: uni00E5
Encoding: 229 229 229
Width: 819
VWidth: 0
Flags: HW
LayerCount: 2
Fore
SplineSet
410 -409 m 1
 410 -307 l 1
 819 -307 l 1
 819 -409 l 1
 410 -409 l 1
410 -306 m 1
 410 -205 l 1
 819 -205 l 1
 819 -306 l 1
 410 -306 l 1
410 -204 m 1
 410 -102 l 1
 819 -102 l 1
 819 -204 l 1
 410 -204 l 1
410 -101 m 1
 410 -1 l 1
 819 -1 l 1
 819 -101 l 1
 410 -101 l 1
0 0 m 1
 0 101 l 1
 410 101 l 1
 410 0 l 1
 0 0 l 1
0 102 m 1
 0 204 l 1
 410 204 l 1
 410 102 l 1
 0 102 l 1
0 205 m 1
 0 306 l 1
 410 306 l 1
 410 205 l 1
 0 205 l 1
0 307 m 1
 0 409 l 1
 410 409 l 1
 410 307 l 1
 0 307 l 1
410 410 m 1
 410 511 l 1
 819 511 l 1
 819 410 l 1
 410 410 l 1
410 512 m 1
 410 613 l 1
 819 613 l 1
 819 512 l 1
 410 512 l 1
410 614 m 1
 410 716 l 1
 819 716 l 1
 819 614 l 1
 410 614 l 1
410 717 m 1
 410 818 l 1
 819 818 l 1
 819 717 l 1
 410 717 l 1
410 819 m 1
 410 921 l 1
 819 921 l 1
 819 819 l 1
 410 819 l 1
410 922 m 1
 410 1023 l 1
 819 1023 l 1
 819 922 l 1
 410 922 l 1
410 1024 m 1
 410 1125 l 1
 819 1125 l 1
 819 1024 l 1
 410 1024 l 1
410 1126 m 1
 410 1228 l 1
 819 1228 l 1
 819 1126 l 1
 410 1126 l 1
EndSplineSet
EndChar

StartChar: uni00E6
Encoding: 230 230 230
Width: 819
VWidth: 0
Flags: HW
LayerCount: 2
Fore
SplineSet
410 -409 m 1
 410 -307 l 1
 819 -307 l 1
 819 -409 l 1
 410 -409 l 1
410 -306 m 1
 410 -205 l 1
 819 -205 l 1
 819 -306 l 1
 410 -306 l 1
410 -204 m 1
 410 -102 l 1
 819 -102 l 1
 819 -204 l 1
 410 -204 l 1
410 -101 m 1
 410 -1 l 1
 819 -1 l 1
 819 -101 l 1
 410 -101 l 1
0 0 m 1
 0 101 l 1
 410 101 l 1
 410 0 l 1
 0 0 l 1
0 102 m 1
 0 204 l 1
 410 204 l 1
 410 102 l 1
 0 102 l 1
0 205 m 1
 0 306 l 1
 410 306 l 1
 410 205 l 1
 0 205 l 1
0 307 m 1
 0 409 l 1
 410 409 l 1
 410 307 l 1
 0 307 l 1
410 410 m 1
 410 511 l 1
 819 511 l 1
 819 410 l 1
 410 410 l 1
410 512 m 1
 410 613 l 1
 819 613 l 1
 819 512 l 1
 410 512 l 1
410 614 m 1
 410 716 l 1
 819 716 l 1
 819 614 l 1
 410 614 l 1
410 717 m 1
 410 818 l 1
 819 818 l 1
 819 717 l 1
 410 717 l 1
0 819 m 1
 0 921 l 1
 410 921 l 1
 410 819 l 1
 0 819 l 1
0 922 m 1
 0 1023 l 1
 410 1023 l 1
 410 922 l 1
 0 922 l 1
0 1024 m 1
 0 1125 l 1
 410 1125 l 1
 410 1024 l 1
 0 1024 l 1
0 1126 m 1
 0 1228 l 1
 410 1228 l 1
 410 1126 l 1
 0 1126 l 1
EndSplineSet
EndChar

StartChar: uni00E7
Encoding: 231 231 231
Width: 819
VWidth: 0
Flags: HW
LayerCount: 2
Fore
SplineSet
410 -409 m 1
 410 -307 l 1
 819 -307 l 1
 819 -409 l 1
 410 -409 l 1
410 -306 m 1
 410 -205 l 1
 819 -205 l 1
 819 -306 l 1
 410 -306 l 1
410 -204 m 1
 410 -102 l 1
 819 -102 l 1
 819 -204 l 1
 410 -204 l 1
410 -101 m 1
 410 -1 l 1
 819 -1 l 1
 819 -101 l 1
 410 -101 l 1
0 0 m 1
 0 101 l 1
 410 101 l 1
 410 0 l 1
 0 0 l 1
0 102 m 1
 0 204 l 1
 410 204 l 1
 410 102 l 1
 0 102 l 1
0 205 m 1
 0 306 l 1
 410 306 l 1
 410 205 l 1
 0 205 l 1
0 307 m 1
 0 409 l 1
 410 409 l 1
 410 307 l 1
 0 307 l 1
410 410 m 1
 410 511 l 1
 819 511 l 1
 819 410 l 1
 410 410 l 1
410 512 m 1
 410 613 l 1
 819 613 l 1
 819 512 l 1
 410 512 l 1
410 614 m 1
 410 716 l 1
 819 716 l 1
 819 614 l 1
 410 614 l 1
410 717 m 1
 410 818 l 1
 819 818 l 1
 819 717 l 1
 410 717 l 1
0 819 m 1
 0 921 l 1
 819 921 l 1
 819 819 l 1
 0 819 l 1
0 922 m 1
 0 1023 l 1
 819 1023 l 1
 819 922 l 1
 0 922 l 1
0 1024 m 1
 0 1125 l 1
 819 1125 l 1
 819 1024 l 1
 0 1024 l 1
0 1126 m 1
 0 1228 l 1
 819 1228 l 1
 819 1126 l 1
 0 1126 l 1
EndSplineSet
EndChar

StartChar: uni00E8
Encoding: 232 232 232
Width: 819
VWidth: 0
Flags: HW
LayerCount: 2
Fore
SplineSet
410 -409 m 1
 410 -307 l 1
 819 -307 l 1
 819 -409 l 1
 410 -409 l 1
410 -306 m 1
 410 -205 l 1
 819 -205 l 1
 819 -306 l 1
 410 -306 l 1
410 -204 m 1
 410 -102 l 1
 819 -102 l 1
 819 -204 l 1
 410 -204 l 1
410 -101 m 1
 410 -1 l 1
 819 -1 l 1
 819 -101 l 1
 410 -101 l 1
0 0 m 1
 0 101 l 1
 410 101 l 1
 410 0 l 1
 0 0 l 1
0 102 m 1
 0 204 l 1
 410 204 l 1
 410 102 l 1
 0 102 l 1
0 205 m 1
 0 306 l 1
 410 306 l 1
 410 205 l 1
 0 205 l 1
0 307 m 1
 0 409 l 1
 410 409 l 1
 410 307 l 1
 0 307 l 1
0 410 m 1
 0 511 l 1
 410 511 l 1
 410 410 l 1
 0 410 l 1
0 512 m 1
 0 613 l 1
 410 613 l 1
 410 512 l 1
 0 512 l 1
0 614 m 1
 0 716 l 1
 410 716 l 1
 410 614 l 1
 0 614 l 1
0 717 m 1
 0 818 l 1
 410 818 l 1
 410 717 l 1
 0 717 l 1
EndSplineSet
EndChar

StartChar: uni00E9
Encoding: 233 233 233
Width: 819
VWidth: 0
Flags: HW
LayerCount: 2
Fore
SplineSet
410 -409 m 1
 410 -307 l 1
 819 -307 l 1
 819 -409 l 1
 410 -409 l 1
410 -306 m 1
 410 -205 l 1
 819 -205 l 1
 819 -306 l 1
 410 -306 l 1
410 -204 m 1
 410 -102 l 1
 819 -102 l 1
 819 -204 l 1
 410 -204 l 1
410 -101 m 1
 410 -1 l 1
 819 -1 l 1
 819 -101 l 1
 410 -101 l 1
0 0 m 1
 0 101 l 1
 410 101 l 1
 410 0 l 1
 0 0 l 1
0 102 m 1
 0 204 l 1
 410 204 l 1
 410 102 l 1
 0 102 l 1
0 205 m 1
 0 306 l 1
 410 306 l 1
 410 205 l 1
 0 205 l 1
0 307 m 1
 0 409 l 1
 410 409 l 1
 410 307 l 1
 0 307 l 1
0 410 m 1
 0 511 l 1
 410 511 l 1
 410 410 l 1
 0 410 l 1
0 512 m 1
 0 613 l 1
 410 613 l 1
 410 512 l 1
 0 512 l 1
0 614 m 1
 0 716 l 1
 410 716 l 1
 410 614 l 1
 0 614 l 1
0 717 m 1
 0 818 l 1
 410 818 l 1
 410 717 l 1
 0 717 l 1
410 819 m 1
 410 921 l 1
 819 921 l 1
 819 819 l 1
 410 819 l 1
410 922 m 1
 410 1023 l 1
 819 1023 l 1
 819 922 l 1
 410 922 l 1
410 1024 m 1
 410 1125 l 1
 819 1125 l 1
 819 1024 l 1
 410 1024 l 1
410 1126 m 1
 410 1228 l 1
 819 1228 l 1
 819 1126 l 1
 410 1126 l 1
EndSplineSet
EndChar

